%TF.GenerationSoftware,KiCad,Pcbnew,(6.0.1)*%
%TF.CreationDate,2022-09-15T14:00:08-04:00*%
%TF.ProjectId,bpcw-hardware,62706377-2d68-4617-9264-776172652e6b,rev?*%
%TF.SameCoordinates,Original*%
%TF.FileFunction,Copper,L2,Bot*%
%TF.FilePolarity,Positive*%
%FSLAX46Y46*%
G04 Gerber Fmt 4.6, Leading zero omitted, Abs format (unit mm)*
G04 Created by KiCad (PCBNEW (6.0.1)) date 2022-09-15 14:00:08*
%MOMM*%
%LPD*%
G01*
G04 APERTURE LIST*
G04 Aperture macros list*
%AMRoundRect*
0 Rectangle with rounded corners*
0 $1 Rounding radius*
0 $2 $3 $4 $5 $6 $7 $8 $9 X,Y pos of 4 corners*
0 Add a 4 corners polygon primitive as box body*
4,1,4,$2,$3,$4,$5,$6,$7,$8,$9,$2,$3,0*
0 Add four circle primitives for the rounded corners*
1,1,$1+$1,$2,$3*
1,1,$1+$1,$4,$5*
1,1,$1+$1,$6,$7*
1,1,$1+$1,$8,$9*
0 Add four rect primitives between the rounded corners*
20,1,$1+$1,$2,$3,$4,$5,0*
20,1,$1+$1,$4,$5,$6,$7,0*
20,1,$1+$1,$6,$7,$8,$9,0*
20,1,$1+$1,$8,$9,$2,$3,0*%
G04 Aperture macros list end*
%TA.AperFunction,ComponentPad*%
%ADD10C,1.750000*%
%TD*%
%TA.AperFunction,ComponentPad*%
%ADD11C,1.500000*%
%TD*%
%TA.AperFunction,ComponentPad*%
%ADD12C,0.500000*%
%TD*%
%TA.AperFunction,SMDPad,CuDef*%
%ADD13R,1.600000X1.600000*%
%TD*%
%TA.AperFunction,ComponentPad*%
%ADD14RoundRect,0.250000X-0.750000X0.600000X-0.750000X-0.600000X0.750000X-0.600000X0.750000X0.600000X0*%
%TD*%
%TA.AperFunction,ComponentPad*%
%ADD15O,2.000000X1.700000*%
%TD*%
%TA.AperFunction,ComponentPad*%
%ADD16R,1.700000X1.700000*%
%TD*%
%TA.AperFunction,ComponentPad*%
%ADD17O,1.700000X1.700000*%
%TD*%
%TA.AperFunction,SMDPad,CuDef*%
%ADD18R,4.200000X1.350000*%
%TD*%
%TA.AperFunction,SMDPad,CuDef*%
%ADD19R,5.100000X5.100000*%
%TD*%
%TA.AperFunction,ComponentPad*%
%ADD20C,0.700000*%
%TD*%
%TA.AperFunction,ComponentPad*%
%ADD21O,2.400000X0.900000*%
%TD*%
%TA.AperFunction,ComponentPad*%
%ADD22O,1.700000X0.900000*%
%TD*%
%TA.AperFunction,SMDPad,CuDef*%
%ADD23R,1.500000X1.000000*%
%TD*%
%TA.AperFunction,ViaPad*%
%ADD24C,0.600000*%
%TD*%
%TA.AperFunction,ViaPad*%
%ADD25C,0.800000*%
%TD*%
%TA.AperFunction,Conductor*%
%ADD26C,0.250000*%
%TD*%
%TA.AperFunction,Conductor*%
%ADD27C,0.200000*%
%TD*%
G04 APERTURE END LIST*
%TO.C,JP1*%
G36*
X146550000Y-96750000D02*
G01*
X145950000Y-96750000D01*
X145950000Y-96250000D01*
X146550000Y-96250000D01*
X146550000Y-96750000D01*
G37*
%TD*%
D10*
%TO.P,SW1,*%
%TO.N,*%
X145230583Y-111485437D03*
X137250000Y-111500000D03*
D11*
%TO.P,SW1,1,A*%
%TO.N,unconnected-(SW1-Pad1)*%
X139250000Y-111500000D03*
%TO.P,SW1,2,B*%
%TO.N,Net-(BT1-Pad1)*%
X141250000Y-111500000D03*
%TO.P,SW1,3,C*%
%TO.N,+5V*%
X143250000Y-111500000D03*
%TD*%
%TO.P,LS1,1,1*%
%TO.N,+5V*%
X129250000Y-94200000D03*
%TO.P,LS1,2,2*%
%TO.N,Net-(D2-Pad2)*%
X129230583Y-90219417D03*
%TD*%
D12*
%TO.P,U4,13,GND*%
%TO.N,GND*%
X165250000Y-88250000D03*
X164700000Y-88250000D03*
D13*
X165250000Y-88250000D03*
D12*
X164700000Y-88800000D03*
X164700000Y-87700000D03*
X165250000Y-88800000D03*
X165800000Y-88250000D03*
X165250000Y-87700000D03*
X165800000Y-87700000D03*
X165800000Y-88800000D03*
%TD*%
D14*
%TO.P,BT1,1,+*%
%TO.N,Net-(BT1-Pad1)*%
X133000000Y-107700000D03*
D15*
%TO.P,BT1,2,-*%
%TO.N,GND*%
X133000000Y-110200000D03*
%TD*%
D16*
%TO.P,J2,1,Pin_1*%
%TO.N,+3V3*%
X128500000Y-100200000D03*
D17*
%TO.P,J2,2,Pin_2*%
%TO.N,/TX*%
X125960000Y-100200000D03*
%TO.P,J2,3,Pin_3*%
%TO.N,/RX*%
X123420000Y-100200000D03*
%TO.P,J2,4,Pin_4*%
%TO.N,GND*%
X120880000Y-100200000D03*
%TD*%
D18*
%TO.P,J6,2,Ext*%
%TO.N,GND*%
X182837500Y-86425000D03*
X182837500Y-92075000D03*
%TD*%
D16*
%TO.P,J4,1,Pin_1*%
%TO.N,/IO1*%
X153000000Y-107250000D03*
D17*
%TO.P,J4,2,Pin_2*%
%TO.N,/IO6*%
X153000000Y-104710000D03*
%TO.P,J4,3,Pin_3*%
%TO.N,/IO2*%
X155540000Y-107250000D03*
%TO.P,J4,4,Pin_4*%
%TO.N,/IO7*%
X155540000Y-104710000D03*
%TO.P,J4,5,Pin_5*%
%TO.N,/IO3*%
X158080000Y-107250000D03*
%TO.P,J4,6,Pin_6*%
%TO.N,/IO8*%
X158080000Y-104710000D03*
%TO.P,J4,7,Pin_7*%
%TO.N,/IO4*%
X160620000Y-107250000D03*
%TO.P,J4,8,Pin_8*%
%TO.N,/IO9*%
X160620000Y-104710000D03*
%TO.P,J4,9,Pin_9*%
%TO.N,/IO5*%
X163160000Y-107250000D03*
%TO.P,J4,10,Pin_10*%
%TO.N,/IO10*%
X163160000Y-104710000D03*
%TO.P,J4,11,Pin_11*%
%TO.N,+3V3*%
X165700000Y-107250000D03*
%TO.P,J4,12,Pin_12*%
%TO.N,GND*%
X165700000Y-104710000D03*
%TD*%
D12*
%TO.P,U3,49,EPAD*%
%TO.N,GND*%
X145450000Y-92716667D03*
X145450000Y-89650000D03*
X146983333Y-92716667D03*
X146983333Y-89650000D03*
X150050000Y-94250000D03*
X145450000Y-94250000D03*
X150050000Y-92716667D03*
X145450000Y-91183333D03*
X148516667Y-94250000D03*
X146983333Y-91183333D03*
X148516667Y-91183333D03*
X150050000Y-89650000D03*
X146983333Y-94250000D03*
D19*
X147750000Y-91950000D03*
D12*
X150050000Y-91183333D03*
X148516667Y-92716667D03*
X148516667Y-89650000D03*
%TD*%
D16*
%TO.P,J3,1,Pin_1*%
%TO.N,+3V3*%
X165750000Y-111250000D03*
D17*
%TO.P,J3,2,Pin_2*%
%TO.N,/SWDIO*%
X163210000Y-111250000D03*
%TO.P,J3,3,Pin_3*%
%TO.N,/SWCLK*%
X160670000Y-111250000D03*
%TO.P,J3,4,Pin_4*%
%TO.N,/~{uC_RST}*%
X158130000Y-111250000D03*
%TO.P,J3,5,Pin_5*%
%TO.N,GND*%
X155590000Y-111250000D03*
%TD*%
D20*
%TO.P,J5,A1,GND*%
%TO.N,GND*%
X126825000Y-105225000D03*
%TO.P,J5,A4,VBUS*%
%TO.N,Net-(BT1-Pad1)*%
X126825000Y-106075000D03*
%TO.P,J5,A5,CC1*%
%TO.N,Net-(J5-PadA5)*%
X126825000Y-106925000D03*
%TO.P,J5,A6,D+*%
%TO.N,/USB_D+*%
X126825000Y-107775000D03*
%TO.P,J5,A7,D-*%
%TO.N,/USB_D-*%
X126825000Y-108625000D03*
%TO.P,J5,A8,SBU1*%
%TO.N,unconnected-(J5-PadA8)*%
X126825000Y-109475000D03*
%TO.P,J5,A9,VBUS*%
%TO.N,Net-(BT1-Pad1)*%
X126825000Y-110325000D03*
%TO.P,J5,A12,GND*%
%TO.N,GND*%
X126825000Y-111175000D03*
%TO.P,J5,B1,GND*%
X125475000Y-111175000D03*
%TO.P,J5,B4,VBUS*%
%TO.N,Net-(BT1-Pad1)*%
X125475000Y-110325000D03*
%TO.P,J5,B5,CC2*%
%TO.N,Net-(J5-PadB5)*%
X125475000Y-109475000D03*
%TO.P,J5,B6,D+*%
%TO.N,/USB_D+*%
X125475000Y-108625000D03*
%TO.P,J5,B7,D-*%
%TO.N,/USB_D-*%
X125475000Y-107775000D03*
%TO.P,J5,B8,SBU2*%
%TO.N,unconnected-(J5-PadB8)*%
X125475000Y-106925000D03*
%TO.P,J5,B9,VBUS*%
%TO.N,Net-(BT1-Pad1)*%
X125475000Y-106075000D03*
%TO.P,J5,B12,GND*%
%TO.N,GND*%
X125475000Y-105225000D03*
D21*
%TO.P,J5,S1,SHIELD*%
X125845000Y-112525000D03*
X125845000Y-103875000D03*
D22*
X122465000Y-112525000D03*
X122465000Y-103875000D03*
%TD*%
D23*
%TO.P,JP1,1,A*%
%TO.N,Net-(JP1-Pad1)*%
X146250000Y-97150000D03*
%TO.P,JP1,2,B*%
%TO.N,GND*%
X146250000Y-95850000D03*
%TD*%
D24*
%TO.N,GND*%
X169750000Y-96250000D03*
X172500000Y-99500000D03*
X178000000Y-83000000D03*
X170500000Y-78750000D03*
X156250000Y-85500000D03*
X177177203Y-96794026D03*
X180500000Y-84250000D03*
X175000000Y-100250000D03*
X178000000Y-93750000D03*
X171250000Y-85500000D03*
X156500000Y-83750000D03*
X168250000Y-90250000D03*
X168750000Y-92250000D03*
X178750000Y-85500000D03*
X165250000Y-96174001D03*
X169500000Y-81250000D03*
X171000000Y-99000000D03*
X162750000Y-91750000D03*
X176250000Y-84250000D03*
X170500000Y-83000000D03*
X154500000Y-89250000D03*
X153250000Y-80250000D03*
X162000000Y-89000000D03*
X166000000Y-94000000D03*
X155500000Y-91500000D03*
X174000000Y-81750000D03*
X158750000Y-92000000D03*
X172000000Y-83250000D03*
X154750000Y-83500000D03*
X162500000Y-80750000D03*
X180750000Y-101000000D03*
X147750000Y-104500000D03*
X174250000Y-85250000D03*
X158250000Y-88750000D03*
X156750000Y-93000000D03*
X174250000Y-90750000D03*
X167750000Y-102000000D03*
X177000000Y-95250000D03*
X139500000Y-86000000D03*
X175750000Y-92500000D03*
X172750000Y-96000000D03*
X160500000Y-91500000D03*
X175000000Y-93750000D03*
X182500000Y-82250000D03*
X169000000Y-94000000D03*
X144000000Y-108750000D03*
X167250000Y-92000000D03*
X158500000Y-85000000D03*
X160000000Y-88750000D03*
X156250000Y-86750000D03*
X148500000Y-109250000D03*
X144250000Y-81000000D03*
X174500000Y-96000000D03*
X146750000Y-85500000D03*
X181750000Y-94500000D03*
X182000000Y-97500000D03*
X146250000Y-102750000D03*
X172750000Y-80000000D03*
X171000000Y-92750000D03*
X141583821Y-89966998D03*
X166250000Y-82000000D03*
X140500000Y-112750000D03*
X164000000Y-90750000D03*
X151286927Y-112875500D03*
X172750000Y-91750000D03*
X150500000Y-84750000D03*
X173750000Y-94750000D03*
X174250000Y-98500000D03*
X154743375Y-92945106D03*
X174000000Y-86750000D03*
D25*
X154750000Y-95750000D03*
D24*
X177500000Y-104750000D03*
X163500000Y-81750000D03*
X144250000Y-98500000D03*
X139500000Y-89000000D03*
X156750000Y-81250000D03*
X163250000Y-85000000D03*
X159500000Y-81750000D03*
%TO.N,+3V3*%
X146000000Y-83250000D03*
X132967303Y-103625499D03*
X155500000Y-80000000D03*
X138717303Y-103625500D03*
X149000000Y-107500000D03*
X168000000Y-80000000D03*
X152800490Y-113199510D03*
X149130567Y-101124501D03*
X151683411Y-111124500D03*
%TO.N,+5V*%
X170500000Y-80750000D03*
X160500000Y-79000000D03*
%TO.N,Net-(C13-Pad2)*%
X145500000Y-84500000D03*
X141000000Y-87250000D03*
%TO.N,/AVCC*%
X151970500Y-92250000D03*
X153250000Y-91250000D03*
X157000000Y-91500000D03*
X156750000Y-89000000D03*
%TO.N,/TX*%
X142432995Y-104334402D03*
%TO.N,/RX*%
X141250000Y-104750000D03*
%TO.N,/IO6*%
X151572010Y-101749390D03*
%TO.N,/IO7*%
X148381565Y-99490234D03*
%TO.N,/IO3*%
X151506219Y-105257337D03*
%TO.N,/IO8*%
X147750000Y-99000000D03*
%TO.N,/IO4*%
X151250000Y-104500002D03*
%TO.N,/IO9*%
X146750000Y-99500000D03*
X154537407Y-105654230D03*
%TO.N,/IO10*%
X145991525Y-99247175D03*
X148500000Y-111250000D03*
%TO.N,/USB_D+*%
X142251152Y-106143080D03*
%TO.N,/USB_D-*%
X140987670Y-106099500D03*
%TO.N,Net-(J5-PadB5)*%
X127700000Y-104200000D03*
%TO.N,Net-(JP1-Pad1)*%
X142794275Y-97460120D03*
X146674011Y-97275500D03*
%TO.N,Net-(R4-Pad2)*%
X177491903Y-101675989D03*
X180000000Y-103000000D03*
%TO.N,/RESET*%
X144363439Y-100136561D03*
X140750000Y-91250000D03*
%TO.N,/TMDI*%
X141500000Y-100500000D03*
X141590028Y-92813310D03*
%TO.N,/SCK*%
X138750000Y-101750000D03*
X142000000Y-102186381D03*
%TO.N,/CS*%
X142750000Y-94750000D03*
X142500000Y-90000000D03*
%TO.N,/TMDO*%
X140125500Y-98467303D03*
X140957498Y-92324320D03*
%TO.N,Net-(J1-PadT)*%
X151000000Y-103000000D03*
X134750000Y-93500000D03*
%TD*%
D26*
%TO.N,Net-(J5-PadB5)*%
X127700000Y-103707887D02*
X127700000Y-104200000D01*
X126967593Y-102975480D02*
X127700000Y-103707887D01*
X124722407Y-102975480D02*
X126967593Y-102975480D01*
X124195480Y-109240454D02*
X124195480Y-103502407D01*
X124195480Y-103502407D02*
X124722407Y-102975480D01*
X124430026Y-109475000D02*
X124195480Y-109240454D01*
X125475000Y-109475000D02*
X124430026Y-109475000D01*
%TO.N,/RX*%
X129874296Y-104750000D02*
X141250000Y-104750000D01*
X127524296Y-102400000D02*
X129874296Y-104750000D01*
X125620000Y-102400000D02*
X127524296Y-102400000D01*
X123420000Y-100200000D02*
X125620000Y-102400000D01*
%TO.N,Net-(BT1-Pad1)*%
X137450000Y-107700000D02*
X140750000Y-111000000D01*
X140750000Y-111000000D02*
X141250000Y-111000000D01*
X133000000Y-107700000D02*
X137450000Y-107700000D01*
%TO.N,GND*%
X155590000Y-111250000D02*
X154340000Y-110000000D01*
X149250000Y-110000000D02*
X148500000Y-109250000D01*
X154340000Y-110000000D02*
X149250000Y-110000000D01*
%TO.N,+3V3*%
X128500000Y-98000000D02*
X128500000Y-100200000D01*
X151750000Y-112250000D02*
X151750000Y-111191089D01*
X149000000Y-107500000D02*
X149130567Y-107369433D01*
X165750000Y-111250000D02*
X165750000Y-107300000D01*
X152699510Y-113199510D02*
X163800490Y-113199510D01*
X133091804Y-103750000D02*
X132967303Y-103625499D01*
X143250000Y-83250000D02*
X128500000Y-98000000D01*
X146000000Y-83250000D02*
X143250000Y-83250000D01*
X165750000Y-107300000D02*
X165700000Y-107250000D01*
X163800490Y-113199510D02*
X165750000Y-111250000D01*
X149130567Y-107369433D02*
X149130567Y-101124501D01*
X138717303Y-103625500D02*
X138592803Y-103750000D01*
X138592803Y-103750000D02*
X133091804Y-103750000D01*
X151750000Y-111191089D02*
X151683411Y-111124500D01*
X168000000Y-80000000D02*
X155500000Y-80000000D01*
X151750000Y-112250000D02*
X152699510Y-113199510D01*
%TO.N,+5V*%
X160500000Y-79000000D02*
X168750000Y-79000000D01*
X168750000Y-79000000D02*
X170500000Y-80750000D01*
%TO.N,Net-(C13-Pad2)*%
X141000000Y-87250000D02*
X143750000Y-84500000D01*
X143750000Y-84500000D02*
X145500000Y-84500000D01*
%TO.N,/AVCC*%
X157000000Y-89250000D02*
X156750000Y-89000000D01*
X157000000Y-91500000D02*
X157000000Y-89250000D01*
X152250000Y-92250000D02*
X153250000Y-91250000D01*
X151970500Y-92250000D02*
X152250000Y-92250000D01*
%TO.N,/TX*%
X142224092Y-104125499D02*
X142432995Y-104334402D01*
X130009999Y-104249999D02*
X140866821Y-104250000D01*
X140991322Y-104125499D02*
X142224092Y-104125499D01*
X125960000Y-100200000D02*
X130009999Y-104249999D01*
X140866821Y-104250000D02*
X140991322Y-104125499D01*
%TO.N,/IO6*%
X151624501Y-102741322D02*
X151572010Y-102688831D01*
X153000000Y-104710000D02*
X151624501Y-103334501D01*
X151572010Y-102688831D02*
X151572010Y-101749390D01*
X151624501Y-103334501D02*
X151624501Y-102741322D01*
%TO.N,/IO7*%
X155540000Y-103507919D02*
X151522315Y-99490234D01*
X151522315Y-99490234D02*
X148381565Y-99490234D01*
X155540000Y-104710000D02*
X155540000Y-103507919D01*
%TO.N,/IO3*%
X151850978Y-108850978D02*
X151506219Y-108506219D01*
X156479022Y-108850978D02*
X151850978Y-108850978D01*
X151506219Y-108506219D02*
X151506219Y-105257337D01*
X158080000Y-107250000D02*
X156479022Y-108850978D01*
%TO.N,/IO8*%
X152171488Y-98801488D02*
X147948512Y-98801488D01*
X158080000Y-104710000D02*
X152171488Y-98801488D01*
X147948512Y-98801488D02*
X147750000Y-99000000D01*
%TO.N,/IO4*%
X158569511Y-109300489D02*
X151300489Y-109300489D01*
X150750000Y-108750000D02*
X150750000Y-105000002D01*
X151300489Y-109300489D02*
X150750000Y-108750000D01*
X150750000Y-105000002D02*
X151250000Y-104500002D01*
X160620000Y-107250000D02*
X158569511Y-109300489D01*
%TO.N,/IO9*%
X152196511Y-102008068D02*
X152196511Y-101490712D01*
X148704488Y-100050490D02*
X148640243Y-100114735D01*
X154291148Y-104139087D02*
X152178320Y-102026259D01*
X154291148Y-105407971D02*
X154291148Y-104139087D01*
X152178320Y-102026259D02*
X152196511Y-102008068D01*
X150756289Y-100050490D02*
X148704488Y-100050490D01*
X147364735Y-100114735D02*
X146750000Y-99500000D01*
X154537407Y-105654230D02*
X154291148Y-105407971D01*
X148640243Y-100114735D02*
X147364735Y-100114735D01*
X152196511Y-101490712D02*
X150756289Y-100050490D01*
%TO.N,/IO10*%
X164334511Y-105884511D02*
X163160000Y-104710000D01*
X157750000Y-103250000D02*
X152750000Y-98250000D01*
X162035489Y-110464511D02*
X164334511Y-108165489D01*
X146988700Y-98250000D02*
X145991525Y-99247175D01*
X154250000Y-112750000D02*
X161250000Y-112750000D01*
X148500000Y-111250000D02*
X149250000Y-110500000D01*
X161250000Y-112750000D02*
X162035489Y-111964511D01*
X162035489Y-111964511D02*
X162035489Y-110464511D01*
X163160000Y-104710000D02*
X161700000Y-103250000D01*
X149250000Y-110500000D02*
X152000000Y-110500000D01*
X152000000Y-110500000D02*
X154250000Y-112750000D01*
X161700000Y-103250000D02*
X157750000Y-103250000D01*
X164334511Y-108165489D02*
X164334511Y-105884511D01*
X152750000Y-98250000D02*
X146988700Y-98250000D01*
D27*
%TO.N,/USB_D+*%
X141608072Y-105500000D02*
X142251152Y-106143080D01*
X130211054Y-107775000D02*
X132486054Y-105500000D01*
X132486054Y-105500000D02*
X141608072Y-105500000D01*
X126825000Y-107775000D02*
X130211054Y-107775000D01*
%TO.N,/USB_D-*%
X129926047Y-108625000D02*
X132451547Y-106099500D01*
X125875000Y-107775000D02*
X126725000Y-108625000D01*
X126825000Y-108625000D02*
X129926047Y-108625000D01*
X132451547Y-106099500D02*
X140987670Y-106099500D01*
X125443548Y-107775000D02*
X125875000Y-107775000D01*
D26*
%TO.N,Net-(JP1-Pad1)*%
X146400000Y-97549511D02*
X146674011Y-97275500D01*
X142794275Y-97460120D02*
X143004395Y-97250000D01*
X146648511Y-97250000D02*
X146674011Y-97275500D01*
X143004395Y-97250000D02*
X146648511Y-97250000D01*
%TO.N,Net-(R4-Pad2)*%
X180000000Y-103000000D02*
X178815914Y-103000000D01*
X178815914Y-103000000D02*
X177491903Y-101675989D01*
%TO.N,/RESET*%
X140750000Y-91250000D02*
X140949761Y-91250000D01*
X142020740Y-97793862D02*
X144363439Y-100136561D01*
X142300489Y-93290232D02*
X142020740Y-93569981D01*
X142020740Y-93569981D02*
X142020740Y-97793862D01*
X140949761Y-91250000D02*
X142300489Y-92600728D01*
X142300489Y-92600728D02*
X142300489Y-93290232D01*
%TO.N,/TMDI*%
X141500000Y-92903338D02*
X141590028Y-92813310D01*
X141500000Y-100500000D02*
X141500000Y-92903338D01*
%TO.N,/SCK*%
X141563619Y-101750000D02*
X142000000Y-102186381D01*
X138750000Y-101750000D02*
X141563619Y-101750000D01*
%TO.N,/CS*%
X142500000Y-90000000D02*
X142750000Y-90250000D01*
X142750000Y-90250000D02*
X142750000Y-94750000D01*
%TO.N,/TMDO*%
X140250000Y-98342803D02*
X140250000Y-93031818D01*
X140125500Y-98467303D02*
X140250000Y-98342803D01*
X140250000Y-93031818D02*
X140957498Y-92324320D01*
%TO.N,Net-(J1-PadT)*%
X151000000Y-103000000D02*
X151000000Y-102000000D01*
X143327344Y-100500999D02*
X143077344Y-100750999D01*
X148826436Y-100564246D02*
X148185754Y-100564246D01*
X148185754Y-100564246D02*
X147750000Y-101000000D01*
X144343701Y-101000000D02*
X143844700Y-100500999D01*
X148890681Y-100500001D02*
X148826436Y-100564246D01*
X141758678Y-101124501D02*
X137374501Y-101124501D01*
X147750000Y-101000000D02*
X144343701Y-101000000D01*
X142132180Y-100750999D02*
X141758678Y-101124501D01*
X137374501Y-101124501D02*
X134750000Y-98500000D01*
X143844700Y-100500999D02*
X143327344Y-100500999D01*
X151000000Y-102000000D02*
X149500001Y-100500001D01*
X149500001Y-100500001D02*
X148890681Y-100500001D01*
X134750000Y-98500000D02*
X134750000Y-93500000D01*
X143077344Y-100750999D02*
X142132180Y-100750999D01*
%TD*%
%TA.AperFunction,Conductor*%
%TO.N,GND*%
G36*
X181002901Y-78000634D02*
G01*
X181172757Y-78008487D01*
X181173104Y-78008504D01*
X181369673Y-78018161D01*
X181380897Y-78019217D01*
X181434372Y-78026676D01*
X181562906Y-78044606D01*
X181563766Y-78044730D01*
X181641186Y-78056214D01*
X181747155Y-78071934D01*
X181757514Y-78073917D01*
X181938439Y-78116470D01*
X181940206Y-78116899D01*
X182117770Y-78161376D01*
X182127197Y-78164132D01*
X182304328Y-78223500D01*
X182306699Y-78224321D01*
X182478169Y-78285674D01*
X182486585Y-78289033D01*
X182657987Y-78364714D01*
X182660909Y-78366050D01*
X182718583Y-78393328D01*
X182825048Y-78443683D01*
X182832487Y-78447509D01*
X182996377Y-78538795D01*
X182999842Y-78540797D01*
X183155297Y-78633974D01*
X183161727Y-78638098D01*
X183316665Y-78744233D01*
X183320515Y-78746978D01*
X183387140Y-78796389D01*
X183465957Y-78854844D01*
X183471354Y-78859081D01*
X183615926Y-78979131D01*
X183620017Y-78982681D01*
X183744722Y-79095707D01*
X183754163Y-79104264D01*
X183758641Y-79108529D01*
X183891471Y-79241359D01*
X183895736Y-79245837D01*
X184017319Y-79379983D01*
X184020869Y-79384074D01*
X184140919Y-79528646D01*
X184145156Y-79534043D01*
X184201593Y-79610140D01*
X184253022Y-79679485D01*
X184255767Y-79683335D01*
X184361902Y-79838273D01*
X184366026Y-79844703D01*
X184459203Y-80000158D01*
X184461205Y-80003623D01*
X184552491Y-80167513D01*
X184556317Y-80174952D01*
X184603200Y-80274077D01*
X184629586Y-80329863D01*
X184633937Y-80339063D01*
X184635286Y-80342013D01*
X184710967Y-80513415D01*
X184714326Y-80521831D01*
X184761601Y-80653955D01*
X184775673Y-80693284D01*
X184776500Y-80695673D01*
X184812639Y-80803498D01*
X184835868Y-80872803D01*
X184838624Y-80882230D01*
X184883101Y-81059794D01*
X184883530Y-81061561D01*
X184926083Y-81242486D01*
X184928066Y-81252845D01*
X184955253Y-81436116D01*
X184955409Y-81437198D01*
X184980783Y-81619103D01*
X184981839Y-81630327D01*
X184991496Y-81826896D01*
X184991512Y-81827222D01*
X184995589Y-81915397D01*
X184999366Y-81997099D01*
X184999500Y-82002918D01*
X184999500Y-85116000D01*
X184979498Y-85184121D01*
X184925842Y-85230614D01*
X184873500Y-85242000D01*
X183109615Y-85242000D01*
X183094376Y-85246475D01*
X183093171Y-85247865D01*
X183091500Y-85255548D01*
X183091500Y-87589884D01*
X183095975Y-87605123D01*
X183097365Y-87606328D01*
X183105048Y-87607999D01*
X184873500Y-87607999D01*
X184941621Y-87628001D01*
X184988114Y-87681657D01*
X184999500Y-87733999D01*
X184999500Y-90766000D01*
X184979498Y-90834121D01*
X184925842Y-90880614D01*
X184873500Y-90892000D01*
X183109615Y-90892000D01*
X183094376Y-90896475D01*
X183093171Y-90897865D01*
X183091500Y-90905548D01*
X183091500Y-93239884D01*
X183095975Y-93255123D01*
X183097365Y-93256328D01*
X183105048Y-93257999D01*
X184873500Y-93257999D01*
X184941621Y-93278001D01*
X184988114Y-93331657D01*
X184999500Y-93383999D01*
X184999500Y-113873500D01*
X184979498Y-113941621D01*
X184925842Y-113988114D01*
X184873500Y-113999500D01*
X181626500Y-113999500D01*
X181558379Y-113979498D01*
X181511886Y-113925842D01*
X181500500Y-113873500D01*
X181500500Y-107500099D01*
X181500541Y-107500000D01*
X181500383Y-107499617D01*
X181500099Y-107499500D01*
X181500000Y-107499459D01*
X181499901Y-107499500D01*
X168500099Y-107499500D01*
X168500000Y-107499459D01*
X168499901Y-107499500D01*
X168499617Y-107499617D01*
X168499459Y-107500000D01*
X168499500Y-107500099D01*
X168499500Y-113873500D01*
X168479498Y-113941621D01*
X168425842Y-113988114D01*
X168373500Y-113999500D01*
X118126500Y-113999500D01*
X118058379Y-113979498D01*
X118011886Y-113925842D01*
X118000500Y-113873500D01*
X118000500Y-112789075D01*
X121141363Y-112789075D01*
X121197310Y-112941136D01*
X121202877Y-112952549D01*
X121298708Y-113107108D01*
X121306460Y-113117174D01*
X121431408Y-113249303D01*
X121441026Y-113257605D01*
X121589987Y-113361908D01*
X121601081Y-113368108D01*
X121767980Y-113440332D01*
X121780083Y-113444171D01*
X121959600Y-113481675D01*
X121969152Y-113482915D01*
X121972384Y-113483000D01*
X122192885Y-113483000D01*
X122208124Y-113478525D01*
X122209329Y-113477135D01*
X122211000Y-113469452D01*
X122211000Y-113464885D01*
X122719000Y-113464885D01*
X122723475Y-113480124D01*
X122724865Y-113481329D01*
X122732548Y-113483000D01*
X122910447Y-113483000D01*
X122916822Y-113482677D01*
X123052277Y-113468918D01*
X123064717Y-113466364D01*
X123238244Y-113411984D01*
X123249932Y-113406975D01*
X123408979Y-113318813D01*
X123419412Y-113311562D01*
X123557491Y-113193215D01*
X123566244Y-113184024D01*
X123677711Y-113040320D01*
X123684435Y-113029560D01*
X123764732Y-112866375D01*
X123769155Y-112854481D01*
X123784251Y-112796530D01*
X123784021Y-112789075D01*
X124171363Y-112789075D01*
X124227310Y-112941136D01*
X124232877Y-112952549D01*
X124328708Y-113107108D01*
X124336460Y-113117174D01*
X124461408Y-113249303D01*
X124471026Y-113257605D01*
X124619987Y-113361908D01*
X124631081Y-113368108D01*
X124797980Y-113440332D01*
X124810083Y-113444171D01*
X124989600Y-113481675D01*
X124999152Y-113482915D01*
X125002384Y-113483000D01*
X125572885Y-113483000D01*
X125588124Y-113478525D01*
X125589329Y-113477135D01*
X125591000Y-113469452D01*
X125591000Y-113464885D01*
X126099000Y-113464885D01*
X126103475Y-113480124D01*
X126104865Y-113481329D01*
X126112548Y-113483000D01*
X126640447Y-113483000D01*
X126646822Y-113482677D01*
X126782277Y-113468918D01*
X126794717Y-113466364D01*
X126968244Y-113411984D01*
X126979932Y-113406975D01*
X127138979Y-113318813D01*
X127149412Y-113311562D01*
X127287491Y-113193215D01*
X127296244Y-113184024D01*
X127407711Y-113040320D01*
X127414435Y-113029560D01*
X127494732Y-112866375D01*
X127499155Y-112854481D01*
X127514251Y-112796530D01*
X127513817Y-112782436D01*
X127505636Y-112779000D01*
X126117115Y-112779000D01*
X126101876Y-112783475D01*
X126100671Y-112784865D01*
X126099000Y-112792548D01*
X126099000Y-113464885D01*
X125591000Y-113464885D01*
X125591000Y-112797115D01*
X125586525Y-112781876D01*
X125585135Y-112780671D01*
X125577452Y-112779000D01*
X124185771Y-112779000D01*
X124172240Y-112782973D01*
X124171363Y-112789075D01*
X123784021Y-112789075D01*
X123783817Y-112782436D01*
X123775636Y-112779000D01*
X122737115Y-112779000D01*
X122721876Y-112783475D01*
X122720671Y-112784865D01*
X122719000Y-112792548D01*
X122719000Y-113464885D01*
X122211000Y-113464885D01*
X122211000Y-112797115D01*
X122206525Y-112781876D01*
X122205135Y-112780671D01*
X122197452Y-112779000D01*
X121155771Y-112779000D01*
X121142240Y-112782973D01*
X121141363Y-112789075D01*
X118000500Y-112789075D01*
X118000500Y-112253470D01*
X121145749Y-112253470D01*
X121146183Y-112267564D01*
X121154364Y-112271000D01*
X122192885Y-112271000D01*
X122208124Y-112266525D01*
X122209329Y-112265135D01*
X122211000Y-112257452D01*
X122211000Y-112252885D01*
X122719000Y-112252885D01*
X122723475Y-112268124D01*
X122724865Y-112269329D01*
X122732548Y-112271000D01*
X123774229Y-112271000D01*
X123787760Y-112267027D01*
X123788637Y-112260925D01*
X123785894Y-112253470D01*
X124175749Y-112253470D01*
X124176183Y-112267564D01*
X124184364Y-112271000D01*
X125572885Y-112271000D01*
X125588124Y-112266525D01*
X125589329Y-112265135D01*
X125591000Y-112257452D01*
X125591000Y-111653000D01*
X125611002Y-111584879D01*
X125664658Y-111538386D01*
X125717000Y-111527000D01*
X125973000Y-111527000D01*
X126041121Y-111547002D01*
X126087614Y-111600658D01*
X126099000Y-111653000D01*
X126099000Y-112252885D01*
X126103475Y-112268124D01*
X126104865Y-112269329D01*
X126112548Y-112271000D01*
X127504229Y-112271000D01*
X127517760Y-112267027D01*
X127518637Y-112260925D01*
X127462690Y-112108864D01*
X127457123Y-112097451D01*
X127361292Y-111942891D01*
X127356509Y-111936681D01*
X127344292Y-111929560D01*
X127329947Y-111930184D01*
X127284172Y-111942935D01*
X127216336Y-111921986D01*
X127196832Y-111906042D01*
X126466922Y-111176132D01*
X127189408Y-111176132D01*
X127189539Y-111177965D01*
X127193790Y-111184580D01*
X127571767Y-111562557D01*
X127584147Y-111569317D01*
X127591062Y-111564141D01*
X127609835Y-111531625D01*
X127615181Y-111519617D01*
X127666833Y-111360650D01*
X127669563Y-111347807D01*
X127687036Y-111181565D01*
X127687036Y-111168435D01*
X127669563Y-111002193D01*
X127666833Y-110989350D01*
X127615181Y-110830383D01*
X127609835Y-110818375D01*
X127593637Y-110790320D01*
X127583431Y-110780589D01*
X127575410Y-110783800D01*
X127197022Y-111162188D01*
X127189408Y-111176132D01*
X126466922Y-111176132D01*
X126162812Y-110872022D01*
X126148868Y-110864408D01*
X126147035Y-110864539D01*
X126140420Y-110868790D01*
X125564095Y-111445115D01*
X125501783Y-111479141D01*
X125430968Y-111474076D01*
X125385905Y-111445115D01*
X124728233Y-110787443D01*
X124715853Y-110780683D01*
X124708938Y-110785859D01*
X124690165Y-110818375D01*
X124684819Y-110830383D01*
X124633167Y-110989350D01*
X124630437Y-111002193D01*
X124612964Y-111168435D01*
X124612964Y-111181565D01*
X124630437Y-111347807D01*
X124633167Y-111360650D01*
X124684819Y-111519617D01*
X124686924Y-111524345D01*
X124696359Y-111594712D01*
X124666254Y-111659010D01*
X124632904Y-111685798D01*
X124551021Y-111731187D01*
X124540588Y-111738438D01*
X124402509Y-111856785D01*
X124393756Y-111865976D01*
X124282289Y-112009680D01*
X124275565Y-112020440D01*
X124195268Y-112183625D01*
X124190845Y-112195519D01*
X124175749Y-112253470D01*
X123785894Y-112253470D01*
X123732690Y-112108864D01*
X123727123Y-112097451D01*
X123631292Y-111942892D01*
X123623540Y-111932826D01*
X123498592Y-111800697D01*
X123488974Y-111792395D01*
X123340013Y-111688092D01*
X123328919Y-111681892D01*
X123162020Y-111609668D01*
X123149917Y-111605829D01*
X122970400Y-111568325D01*
X122960848Y-111567085D01*
X122957616Y-111567000D01*
X122737115Y-111567000D01*
X122721876Y-111571475D01*
X122720671Y-111572865D01*
X122719000Y-111580548D01*
X122719000Y-112252885D01*
X122211000Y-112252885D01*
X122211000Y-111585115D01*
X122206525Y-111569876D01*
X122205135Y-111568671D01*
X122197452Y-111567000D01*
X122019553Y-111567000D01*
X122013178Y-111567323D01*
X121877723Y-111581082D01*
X121865283Y-111583636D01*
X121691756Y-111638016D01*
X121680068Y-111643025D01*
X121521021Y-111731187D01*
X121510588Y-111738438D01*
X121372509Y-111856785D01*
X121363756Y-111865976D01*
X121252289Y-112009680D01*
X121245565Y-112020440D01*
X121165268Y-112183625D01*
X121160845Y-112195519D01*
X121145749Y-112253470D01*
X118000500Y-112253470D01*
X118000500Y-104139075D01*
X121141363Y-104139075D01*
X121197310Y-104291136D01*
X121202877Y-104302549D01*
X121298708Y-104457108D01*
X121306460Y-104467174D01*
X121431408Y-104599303D01*
X121441026Y-104607605D01*
X121589987Y-104711908D01*
X121601081Y-104718108D01*
X121767980Y-104790332D01*
X121780083Y-104794171D01*
X121959600Y-104831675D01*
X121969152Y-104832915D01*
X121972384Y-104833000D01*
X122192885Y-104833000D01*
X122208124Y-104828525D01*
X122209329Y-104827135D01*
X122211000Y-104819452D01*
X122211000Y-104147115D01*
X122206525Y-104131876D01*
X122205135Y-104130671D01*
X122197452Y-104129000D01*
X121155771Y-104129000D01*
X121142240Y-104132973D01*
X121141363Y-104139075D01*
X118000500Y-104139075D01*
X118000500Y-103603470D01*
X121145749Y-103603470D01*
X121146183Y-103617564D01*
X121154364Y-103621000D01*
X122192885Y-103621000D01*
X122208124Y-103616525D01*
X122209329Y-103615135D01*
X122211000Y-103607452D01*
X122211000Y-102935115D01*
X122206525Y-102919876D01*
X122205135Y-102918671D01*
X122197452Y-102917000D01*
X122019553Y-102917000D01*
X122013178Y-102917323D01*
X121877723Y-102931082D01*
X121865283Y-102933636D01*
X121691756Y-102988016D01*
X121680068Y-102993025D01*
X121521021Y-103081187D01*
X121510588Y-103088438D01*
X121372509Y-103206785D01*
X121363756Y-103215976D01*
X121252289Y-103359680D01*
X121245565Y-103370440D01*
X121165268Y-103533625D01*
X121160845Y-103545519D01*
X121145749Y-103603470D01*
X118000500Y-103603470D01*
X118000500Y-100467966D01*
X119548257Y-100467966D01*
X119578565Y-100602446D01*
X119581645Y-100612275D01*
X119661770Y-100809603D01*
X119666413Y-100818794D01*
X119777694Y-101000388D01*
X119783777Y-101008699D01*
X119923213Y-101169667D01*
X119930580Y-101176883D01*
X120094434Y-101312916D01*
X120102881Y-101318831D01*
X120286756Y-101426279D01*
X120296042Y-101430729D01*
X120495001Y-101506703D01*
X120504899Y-101509579D01*
X120608250Y-101530606D01*
X120622299Y-101529410D01*
X120626000Y-101519065D01*
X120626000Y-101518517D01*
X121134000Y-101518517D01*
X121138064Y-101532359D01*
X121151478Y-101534393D01*
X121158184Y-101533534D01*
X121168262Y-101531392D01*
X121372255Y-101470191D01*
X121381842Y-101466433D01*
X121573095Y-101372739D01*
X121581945Y-101367464D01*
X121755328Y-101243792D01*
X121763200Y-101237139D01*
X121914052Y-101086812D01*
X121920730Y-101078965D01*
X122045003Y-100906020D01*
X122050313Y-100897183D01*
X122144670Y-100706267D01*
X122148469Y-100696672D01*
X122189593Y-100561319D01*
X122228534Y-100501955D01*
X122293388Y-100473068D01*
X122363564Y-100483830D01*
X122416782Y-100530823D01*
X122431270Y-100563217D01*
X122438544Y-100588586D01*
X122441359Y-100594063D01*
X122441360Y-100594066D01*
X122529897Y-100766341D01*
X122532712Y-100771818D01*
X122660677Y-100933270D01*
X122665370Y-100937264D01*
X122665371Y-100937265D01*
X122791054Y-101044229D01*
X122817564Y-101066791D01*
X122822942Y-101069797D01*
X122822944Y-101069798D01*
X122841669Y-101080263D01*
X122997398Y-101167297D01*
X123072352Y-101191651D01*
X123187471Y-101229056D01*
X123187475Y-101229057D01*
X123193329Y-101230959D01*
X123397894Y-101255351D01*
X123404029Y-101254879D01*
X123404031Y-101254879D01*
X123460939Y-101250500D01*
X123603300Y-101239546D01*
X123609230Y-101237890D01*
X123609232Y-101237890D01*
X123795797Y-101185800D01*
X123795796Y-101185800D01*
X123801725Y-101184145D01*
X123812962Y-101178469D01*
X123814722Y-101177580D01*
X123884544Y-101164721D01*
X123950235Y-101191651D01*
X123960626Y-101200952D01*
X125194559Y-102434885D01*
X125228585Y-102497197D01*
X125223520Y-102568012D01*
X125180973Y-102624848D01*
X125114453Y-102649659D01*
X125105464Y-102649980D01*
X124742117Y-102649980D01*
X124731135Y-102649500D01*
X124704582Y-102647177D01*
X124704577Y-102647177D01*
X124693600Y-102646217D01*
X124657190Y-102655972D01*
X124646483Y-102658346D01*
X124609362Y-102664892D01*
X124599818Y-102670402D01*
X124596542Y-102671594D01*
X124593371Y-102673073D01*
X124582723Y-102675926D01*
X124573694Y-102682248D01*
X124551856Y-102697539D01*
X124542586Y-102703444D01*
X124519499Y-102716773D01*
X124519495Y-102716776D01*
X124509952Y-102722286D01*
X124502867Y-102730730D01*
X124485732Y-102751150D01*
X124478307Y-102759253D01*
X123979258Y-103258303D01*
X123971154Y-103265729D01*
X123942286Y-103289952D01*
X123936773Y-103299501D01*
X123923441Y-103322592D01*
X123917535Y-103331863D01*
X123895927Y-103362722D01*
X123895823Y-103362649D01*
X123853688Y-103410501D01*
X123785410Y-103429961D01*
X123717450Y-103409418D01*
X123679326Y-103370362D01*
X123631292Y-103292892D01*
X123623540Y-103282826D01*
X123498592Y-103150697D01*
X123488974Y-103142395D01*
X123340013Y-103038092D01*
X123328919Y-103031892D01*
X123162020Y-102959668D01*
X123149917Y-102955829D01*
X122970400Y-102918325D01*
X122960848Y-102917085D01*
X122957616Y-102917000D01*
X122737115Y-102917000D01*
X122721876Y-102921475D01*
X122720671Y-102922865D01*
X122719000Y-102930548D01*
X122719000Y-104814885D01*
X122723475Y-104830124D01*
X122724865Y-104831329D01*
X122732548Y-104833000D01*
X122910447Y-104833000D01*
X122916822Y-104832677D01*
X123052277Y-104818918D01*
X123064717Y-104816364D01*
X123238244Y-104761984D01*
X123249932Y-104756975D01*
X123408979Y-104668813D01*
X123419412Y-104661562D01*
X123557491Y-104543215D01*
X123566244Y-104534024D01*
X123644420Y-104433239D01*
X123701977Y-104391672D01*
X123772869Y-104387821D01*
X123834589Y-104422909D01*
X123867541Y-104485795D01*
X123869980Y-104510465D01*
X123869980Y-109220744D01*
X123869500Y-109231726D01*
X123866216Y-109269261D01*
X123874771Y-109301186D01*
X123875971Y-109305664D01*
X123878350Y-109316396D01*
X123884892Y-109353499D01*
X123890403Y-109363044D01*
X123891595Y-109366320D01*
X123893072Y-109369488D01*
X123895926Y-109380138D01*
X123902250Y-109389169D01*
X123917535Y-109410998D01*
X123923441Y-109420269D01*
X123932359Y-109435715D01*
X123942286Y-109452909D01*
X123950731Y-109459995D01*
X123971162Y-109477139D01*
X123979265Y-109484565D01*
X124185915Y-109691215D01*
X124193342Y-109699319D01*
X124217571Y-109728194D01*
X124227120Y-109733707D01*
X124250211Y-109747039D01*
X124259482Y-109752945D01*
X124290342Y-109774554D01*
X124300993Y-109777408D01*
X124304166Y-109778888D01*
X124307438Y-109780079D01*
X124316981Y-109785588D01*
X124354102Y-109792134D01*
X124364809Y-109794508D01*
X124401219Y-109804263D01*
X124412194Y-109803303D01*
X124412196Y-109803303D01*
X124438757Y-109800979D01*
X124449738Y-109800500D01*
X124928071Y-109800500D01*
X124996192Y-109820502D01*
X125042685Y-109874158D01*
X125052789Y-109944432D01*
X125028034Y-110003202D01*
X124994139Y-110047375D01*
X124938670Y-110181291D01*
X124919750Y-110325000D01*
X124938670Y-110468709D01*
X124994139Y-110602625D01*
X125082379Y-110717621D01*
X125197375Y-110805861D01*
X125331291Y-110861330D01*
X125475000Y-110880250D01*
X125618709Y-110861330D01*
X125752625Y-110805861D01*
X125867621Y-110717621D01*
X125955861Y-110602625D01*
X126011330Y-110468709D01*
X126025078Y-110364285D01*
X126042734Y-110324375D01*
X126025078Y-110285715D01*
X126017113Y-110225214D01*
X126011330Y-110181291D01*
X125955861Y-110047375D01*
X125901633Y-109976704D01*
X125876032Y-109910484D01*
X125890297Y-109840935D01*
X125901633Y-109823296D01*
X125909089Y-109813579D01*
X125955861Y-109752625D01*
X126011330Y-109618709D01*
X126024247Y-109520599D01*
X126025078Y-109514285D01*
X126042734Y-109474375D01*
X126025078Y-109435715D01*
X126012408Y-109339480D01*
X126011330Y-109331291D01*
X125955861Y-109197375D01*
X125901633Y-109126704D01*
X125876032Y-109060484D01*
X125890297Y-108990935D01*
X125901633Y-108973296D01*
X125928652Y-108938084D01*
X125955861Y-108902625D01*
X126011330Y-108768709D01*
X126025078Y-108664285D01*
X126053801Y-108599358D01*
X126113066Y-108560267D01*
X126184058Y-108559422D01*
X126244236Y-108597093D01*
X126274922Y-108664285D01*
X126288670Y-108768709D01*
X126344139Y-108902625D01*
X126371348Y-108938084D01*
X126398367Y-108973296D01*
X126423968Y-109039516D01*
X126409703Y-109109065D01*
X126398367Y-109126704D01*
X126344139Y-109197375D01*
X126288670Y-109331291D01*
X126287592Y-109339480D01*
X126274922Y-109435715D01*
X126257266Y-109475625D01*
X126274922Y-109514285D01*
X126275753Y-109520599D01*
X126288670Y-109618709D01*
X126344139Y-109752625D01*
X126390911Y-109813579D01*
X126398367Y-109823296D01*
X126423968Y-109889516D01*
X126409703Y-109959065D01*
X126398367Y-109976704D01*
X126344139Y-110047375D01*
X126288670Y-110181291D01*
X126282887Y-110225214D01*
X126274922Y-110285715D01*
X126257266Y-110325625D01*
X126274922Y-110364285D01*
X126288670Y-110468709D01*
X126344139Y-110602625D01*
X126432379Y-110717621D01*
X126547375Y-110805861D01*
X126681291Y-110861330D01*
X126825000Y-110880250D01*
X126968709Y-110861330D01*
X127102625Y-110805861D01*
X127217621Y-110717621D01*
X127305861Y-110602625D01*
X127361330Y-110468709D01*
X127361347Y-110468580D01*
X131518752Y-110468580D01*
X131543477Y-110586421D01*
X131546537Y-110596617D01*
X131627263Y-110801029D01*
X131631994Y-110810561D01*
X131746016Y-110998462D01*
X131752280Y-111007052D01*
X131896327Y-111173052D01*
X131903958Y-111180472D01*
X132073911Y-111319826D01*
X132082678Y-111325850D01*
X132273682Y-111434576D01*
X132283346Y-111439041D01*
X132489941Y-111514031D01*
X132500208Y-111516802D01*
X132717655Y-111556123D01*
X132725884Y-111557056D01*
X132730376Y-111557268D01*
X132743124Y-111553525D01*
X132744329Y-111552135D01*
X132746000Y-111544452D01*
X132746000Y-111535970D01*
X133254000Y-111535970D01*
X133258310Y-111550648D01*
X133270193Y-111552711D01*
X133374325Y-111543876D01*
X133384797Y-111542086D01*
X133597535Y-111486870D01*
X133607575Y-111483335D01*
X133807970Y-111393063D01*
X133817256Y-111387894D01*
X133999575Y-111265150D01*
X134007870Y-111258481D01*
X134166900Y-111106772D01*
X134173941Y-111098814D01*
X134305141Y-110922475D01*
X134310745Y-110913438D01*
X134410357Y-110717516D01*
X134414357Y-110707665D01*
X134479534Y-110497760D01*
X134481817Y-110487376D01*
X134483861Y-110471957D01*
X134481665Y-110457793D01*
X134468478Y-110454000D01*
X133272115Y-110454000D01*
X133256876Y-110458475D01*
X133255671Y-110459865D01*
X133254000Y-110467548D01*
X133254000Y-111535970D01*
X132746000Y-111535970D01*
X132746000Y-110472115D01*
X132741525Y-110456876D01*
X132740135Y-110455671D01*
X132732452Y-110454000D01*
X131533808Y-110454000D01*
X131520277Y-110457973D01*
X131518752Y-110468580D01*
X127361347Y-110468580D01*
X127380250Y-110325000D01*
X127361330Y-110181291D01*
X127305861Y-110047375D01*
X127251633Y-109976704D01*
X127226032Y-109910484D01*
X127240297Y-109840935D01*
X127251633Y-109823296D01*
X127259089Y-109813579D01*
X127305861Y-109752625D01*
X127361330Y-109618709D01*
X127380250Y-109475000D01*
X127361330Y-109331291D01*
X127305861Y-109197375D01*
X127252784Y-109128204D01*
X127227183Y-109061984D01*
X127241448Y-108992435D01*
X127291049Y-108941639D01*
X127352746Y-108925500D01*
X129873681Y-108925500D01*
X129876354Y-108925696D01*
X129881389Y-108927425D01*
X129893011Y-108926989D01*
X129893013Y-108926989D01*
X129930302Y-108925589D01*
X129935028Y-108925500D01*
X129953995Y-108925500D01*
X129958730Y-108924618D01*
X129962256Y-108924390D01*
X129965996Y-108924249D01*
X129993255Y-108923226D01*
X130003940Y-108918636D01*
X130008540Y-108917599D01*
X130020261Y-108914038D01*
X130024664Y-108912339D01*
X130036100Y-108910209D01*
X130057088Y-108897272D01*
X130073458Y-108888769D01*
X130087935Y-108882549D01*
X130087939Y-108882547D01*
X130096110Y-108879036D01*
X130100996Y-108875022D01*
X130103181Y-108872837D01*
X130105444Y-108870785D01*
X130105589Y-108870945D01*
X130114596Y-108863825D01*
X130121491Y-108857573D01*
X130131395Y-108851468D01*
X130147963Y-108829680D01*
X130159157Y-108816861D01*
X131584405Y-107391614D01*
X131646717Y-107357588D01*
X131717533Y-107362653D01*
X131774368Y-107405200D01*
X131799179Y-107471720D01*
X131799500Y-107480709D01*
X131799500Y-108353834D01*
X131802481Y-108385369D01*
X131847366Y-108513184D01*
X131852958Y-108520754D01*
X131852959Y-108520757D01*
X131910193Y-108598244D01*
X131927850Y-108622150D01*
X131935421Y-108627742D01*
X132029243Y-108697041D01*
X132029246Y-108697042D01*
X132036816Y-108702634D01*
X132164631Y-108747519D01*
X132172275Y-108748242D01*
X132172277Y-108748242D01*
X132189342Y-108749855D01*
X132255278Y-108776180D01*
X132296514Y-108833973D01*
X132299959Y-108904886D01*
X132264519Y-108966404D01*
X132229234Y-108990178D01*
X132192030Y-109006937D01*
X132182744Y-109012106D01*
X132000425Y-109134850D01*
X131992130Y-109141519D01*
X131833100Y-109293228D01*
X131826059Y-109301186D01*
X131694859Y-109477525D01*
X131689255Y-109486562D01*
X131589643Y-109682484D01*
X131585643Y-109692335D01*
X131520466Y-109902240D01*
X131518183Y-109912624D01*
X131516139Y-109928043D01*
X131518335Y-109942207D01*
X131531522Y-109946000D01*
X134466192Y-109946000D01*
X134479723Y-109942027D01*
X134481248Y-109931420D01*
X134456523Y-109813579D01*
X134453463Y-109803383D01*
X134372737Y-109598971D01*
X134368006Y-109589439D01*
X134253984Y-109401538D01*
X134247720Y-109392948D01*
X134103673Y-109226948D01*
X134096042Y-109219528D01*
X133926089Y-109080174D01*
X133917322Y-109074150D01*
X133760329Y-108984784D01*
X133711023Y-108933702D01*
X133697161Y-108864072D01*
X133723144Y-108798001D01*
X133780724Y-108756466D01*
X133810803Y-108749841D01*
X133819155Y-108749052D01*
X133827722Y-108748242D01*
X133827723Y-108748242D01*
X133835369Y-108747519D01*
X133963184Y-108702634D01*
X133970754Y-108697042D01*
X133970757Y-108697041D01*
X134064579Y-108627742D01*
X134072150Y-108622150D01*
X134089807Y-108598244D01*
X134147041Y-108520757D01*
X134147042Y-108520754D01*
X134152634Y-108513184D01*
X134197519Y-108385369D01*
X134200500Y-108353834D01*
X134200500Y-108151500D01*
X134220502Y-108083379D01*
X134274158Y-108036886D01*
X134326500Y-108025500D01*
X137262984Y-108025500D01*
X137331105Y-108045502D01*
X137352079Y-108062405D01*
X139678794Y-110389120D01*
X139712820Y-110451432D01*
X139707755Y-110522247D01*
X139665208Y-110579083D01*
X139598688Y-110603894D01*
X139552441Y-110598580D01*
X139447939Y-110566232D01*
X139447937Y-110566232D01*
X139442049Y-110564409D01*
X139435924Y-110563765D01*
X139435923Y-110563765D01*
X139262796Y-110545568D01*
X139262795Y-110545568D01*
X139256668Y-110544924D01*
X139178549Y-110552033D01*
X139077171Y-110561259D01*
X139077168Y-110561260D01*
X139071032Y-110561818D01*
X139065122Y-110563557D01*
X139065119Y-110563558D01*
X138904561Y-110610814D01*
X138892214Y-110614448D01*
X138727023Y-110700807D01*
X138722223Y-110704667D01*
X138722222Y-110704667D01*
X138686817Y-110733134D01*
X138581752Y-110817608D01*
X138461935Y-110960401D01*
X138434192Y-111010865D01*
X138431459Y-111015837D01*
X138381114Y-111065895D01*
X138311697Y-111080789D01*
X138245248Y-111055788D01*
X138208038Y-111010865D01*
X138173497Y-110940824D01*
X138170943Y-110935645D01*
X138076389Y-110809021D01*
X138056130Y-110781891D01*
X138056129Y-110781890D01*
X138052677Y-110777267D01*
X138035122Y-110761039D01*
X137911769Y-110647013D01*
X137911767Y-110647011D01*
X137907528Y-110643093D01*
X137846123Y-110604349D01*
X137745239Y-110540696D01*
X137740359Y-110537617D01*
X137734999Y-110535479D01*
X137734996Y-110535477D01*
X137586767Y-110476340D01*
X137556767Y-110464371D01*
X137551107Y-110463245D01*
X137551103Y-110463244D01*
X137368569Y-110426936D01*
X137368567Y-110426936D01*
X137362902Y-110425809D01*
X137357127Y-110425733D01*
X137357123Y-110425733D01*
X137258687Y-110424445D01*
X137165256Y-110423222D01*
X137159559Y-110424201D01*
X137159558Y-110424201D01*
X136976412Y-110455671D01*
X136970447Y-110456696D01*
X136785002Y-110525110D01*
X136780041Y-110528062D01*
X136780040Y-110528062D01*
X136620096Y-110623218D01*
X136620093Y-110623220D01*
X136615128Y-110626174D01*
X136610788Y-110629980D01*
X136610784Y-110629983D01*
X136477929Y-110746495D01*
X136466517Y-110756503D01*
X136462942Y-110761038D01*
X136462941Y-110761039D01*
X136355626Y-110897168D01*
X136344145Y-110911731D01*
X136341454Y-110916847D01*
X136341452Y-110916849D01*
X136259772Y-111072098D01*
X136252110Y-111086661D01*
X136235754Y-111139336D01*
X136200299Y-111253522D01*
X136193495Y-111275433D01*
X136170262Y-111471726D01*
X136183190Y-111668966D01*
X136231845Y-111860547D01*
X136314599Y-112040054D01*
X136428679Y-112201474D01*
X136570266Y-112339402D01*
X136734617Y-112449217D01*
X136739919Y-112451495D01*
X136739921Y-112451496D01*
X136910921Y-112524964D01*
X136916228Y-112527244D01*
X136957271Y-112536531D01*
X137103381Y-112569593D01*
X137103387Y-112569594D01*
X137109018Y-112570868D01*
X137114789Y-112571095D01*
X137114791Y-112571095D01*
X137175384Y-112573475D01*
X137306528Y-112578628D01*
X137412686Y-112563236D01*
X137496432Y-112551094D01*
X137496437Y-112551093D01*
X137502146Y-112550265D01*
X137507610Y-112548410D01*
X137507615Y-112548409D01*
X137683848Y-112488586D01*
X137683853Y-112488584D01*
X137689320Y-112486728D01*
X137694361Y-112483905D01*
X137856742Y-112392967D01*
X137856746Y-112392964D01*
X137861780Y-112390145D01*
X137866217Y-112386454D01*
X137866221Y-112386452D01*
X138009314Y-112267443D01*
X138013752Y-112263752D01*
X138041582Y-112230290D01*
X138136452Y-112116221D01*
X138136454Y-112116217D01*
X138140145Y-112111780D01*
X138142966Y-112106743D01*
X138142970Y-112106737D01*
X138210847Y-111985534D01*
X138261584Y-111935872D01*
X138331115Y-111921525D01*
X138397366Y-111947046D01*
X138432846Y-111989504D01*
X138444357Y-112011901D01*
X138444360Y-112011906D01*
X138447176Y-112017385D01*
X138562959Y-112163468D01*
X138704912Y-112284279D01*
X138710290Y-112287285D01*
X138710292Y-112287286D01*
X138741771Y-112304879D01*
X138867627Y-112375217D01*
X139044907Y-112432819D01*
X139229998Y-112454890D01*
X139236133Y-112454418D01*
X139236135Y-112454418D01*
X139409710Y-112441062D01*
X139409715Y-112441061D01*
X139415851Y-112440589D01*
X139421781Y-112438933D01*
X139421783Y-112438933D01*
X139589459Y-112392117D01*
X139589458Y-112392117D01*
X139595387Y-112390462D01*
X139761768Y-112306417D01*
X139769342Y-112300500D01*
X139903794Y-112195454D01*
X139903795Y-112195453D01*
X139908655Y-112191656D01*
X140030454Y-112050550D01*
X140033738Y-112044770D01*
X140082954Y-111958133D01*
X140122526Y-111888474D01*
X140129542Y-111867383D01*
X140170025Y-111809059D01*
X140235613Y-111781880D01*
X140305483Y-111794475D01*
X140357452Y-111842846D01*
X140361791Y-111851687D01*
X140361971Y-111851595D01*
X140444358Y-112011901D01*
X140447176Y-112017385D01*
X140562959Y-112163468D01*
X140704912Y-112284279D01*
X140710290Y-112287285D01*
X140710292Y-112287286D01*
X140741771Y-112304879D01*
X140867627Y-112375217D01*
X141044907Y-112432819D01*
X141229998Y-112454890D01*
X141236133Y-112454418D01*
X141236135Y-112454418D01*
X141409710Y-112441062D01*
X141409715Y-112441061D01*
X141415851Y-112440589D01*
X141421781Y-112438933D01*
X141421783Y-112438933D01*
X141589459Y-112392117D01*
X141589458Y-112392117D01*
X141595387Y-112390462D01*
X141761768Y-112306417D01*
X141769342Y-112300500D01*
X141903794Y-112195454D01*
X141903795Y-112195453D01*
X141908655Y-112191656D01*
X142030454Y-112050550D01*
X142033738Y-112044770D01*
X142082954Y-111958133D01*
X142122526Y-111888474D01*
X142129542Y-111867383D01*
X142170025Y-111809059D01*
X142235613Y-111781880D01*
X142305483Y-111794475D01*
X142357452Y-111842846D01*
X142361791Y-111851687D01*
X142361971Y-111851595D01*
X142444358Y-112011901D01*
X142447176Y-112017385D01*
X142562959Y-112163468D01*
X142704912Y-112284279D01*
X142710290Y-112287285D01*
X142710292Y-112287286D01*
X142741771Y-112304879D01*
X142867627Y-112375217D01*
X143044907Y-112432819D01*
X143229998Y-112454890D01*
X143236133Y-112454418D01*
X143236135Y-112454418D01*
X143409710Y-112441062D01*
X143409715Y-112441061D01*
X143415851Y-112440589D01*
X143421781Y-112438933D01*
X143421783Y-112438933D01*
X143589459Y-112392117D01*
X143589458Y-112392117D01*
X143595387Y-112390462D01*
X143761768Y-112306417D01*
X143769342Y-112300500D01*
X143903794Y-112195454D01*
X143903795Y-112195453D01*
X143908655Y-112191656D01*
X144030454Y-112050550D01*
X144033738Y-112044770D01*
X144061738Y-111995480D01*
X144112777Y-111946130D01*
X144182395Y-111932207D01*
X144248489Y-111958133D01*
X144285720Y-112004967D01*
X144288917Y-112011901D01*
X144295182Y-112025491D01*
X144409262Y-112186911D01*
X144457749Y-112234145D01*
X144546421Y-112320525D01*
X144550849Y-112324839D01*
X144715200Y-112434654D01*
X144720502Y-112436932D01*
X144720504Y-112436933D01*
X144891504Y-112510401D01*
X144896811Y-112512681D01*
X144951094Y-112524964D01*
X145083964Y-112555030D01*
X145083970Y-112555031D01*
X145089601Y-112556305D01*
X145095372Y-112556532D01*
X145095374Y-112556532D01*
X145155967Y-112558912D01*
X145287111Y-112564065D01*
X145395090Y-112548409D01*
X145477015Y-112536531D01*
X145477020Y-112536530D01*
X145482729Y-112535702D01*
X145488193Y-112533847D01*
X145488198Y-112533846D01*
X145664431Y-112474023D01*
X145664436Y-112474021D01*
X145669903Y-112472165D01*
X145674944Y-112469342D01*
X145837325Y-112378404D01*
X145837329Y-112378401D01*
X145842363Y-112375582D01*
X145846800Y-112371891D01*
X145846804Y-112371889D01*
X145989897Y-112252880D01*
X145994335Y-112249189D01*
X146039026Y-112195454D01*
X146117035Y-112101658D01*
X146117037Y-112101654D01*
X146120728Y-112097217D01*
X146123547Y-112092183D01*
X146123550Y-112092179D01*
X146214488Y-111929798D01*
X146214488Y-111929797D01*
X146217311Y-111924757D01*
X146219167Y-111919290D01*
X146219169Y-111919285D01*
X146278992Y-111743052D01*
X146278993Y-111743047D01*
X146280848Y-111737583D01*
X146281676Y-111731874D01*
X146281677Y-111731869D01*
X146301563Y-111594712D01*
X146309211Y-111541965D01*
X146310691Y-111485437D01*
X146310113Y-111479141D01*
X146293133Y-111294360D01*
X146292604Y-111288603D01*
X146238951Y-111098361D01*
X146233182Y-111086661D01*
X146154080Y-110926261D01*
X146151526Y-110921082D01*
X146042280Y-110774783D01*
X146036713Y-110767328D01*
X146036712Y-110767327D01*
X146033260Y-110762704D01*
X146026552Y-110756503D01*
X145892352Y-110632450D01*
X145892350Y-110632448D01*
X145888111Y-110628530D01*
X145867333Y-110615420D01*
X145725822Y-110526133D01*
X145720942Y-110523054D01*
X145715582Y-110520916D01*
X145715579Y-110520914D01*
X145596080Y-110473239D01*
X145537350Y-110449808D01*
X145531690Y-110448682D01*
X145531686Y-110448681D01*
X145349152Y-110412373D01*
X145349150Y-110412373D01*
X145343485Y-110411246D01*
X145337710Y-110411170D01*
X145337706Y-110411170D01*
X145239270Y-110409882D01*
X145145839Y-110408659D01*
X145140142Y-110409638D01*
X145140141Y-110409638D01*
X144956727Y-110441154D01*
X144951030Y-110442133D01*
X144765585Y-110510547D01*
X144760624Y-110513499D01*
X144760623Y-110513499D01*
X144600679Y-110608655D01*
X144600676Y-110608657D01*
X144595711Y-110611611D01*
X144591371Y-110615417D01*
X144591367Y-110615420D01*
X144480704Y-110712470D01*
X144447100Y-110741940D01*
X144443525Y-110746475D01*
X144443524Y-110746476D01*
X144344552Y-110872022D01*
X144324728Y-110897168D01*
X144285153Y-110972388D01*
X144277136Y-110987626D01*
X144227717Y-111038598D01*
X144158584Y-111054761D01*
X144091688Y-111030982D01*
X144054378Y-110988111D01*
X144045522Y-110971456D01*
X144041632Y-110966686D01*
X144041629Y-110966682D01*
X143931605Y-110831780D01*
X143931602Y-110831777D01*
X143927710Y-110827005D01*
X143922056Y-110822327D01*
X143849984Y-110762704D01*
X143784085Y-110708187D01*
X143620116Y-110619529D01*
X143513160Y-110586421D01*
X143447936Y-110566231D01*
X143447933Y-110566230D01*
X143442049Y-110564409D01*
X143435924Y-110563765D01*
X143435923Y-110563765D01*
X143262796Y-110545568D01*
X143262795Y-110545568D01*
X143256668Y-110544924D01*
X143178549Y-110552033D01*
X143077171Y-110561259D01*
X143077168Y-110561260D01*
X143071032Y-110561818D01*
X143065122Y-110563557D01*
X143065119Y-110563558D01*
X142904561Y-110610814D01*
X142892214Y-110614448D01*
X142727023Y-110700807D01*
X142722223Y-110704667D01*
X142722222Y-110704667D01*
X142686817Y-110733134D01*
X142581752Y-110817608D01*
X142461935Y-110960401D01*
X142458971Y-110965793D01*
X142458968Y-110965797D01*
X142386091Y-111098361D01*
X142372135Y-111123746D01*
X142370273Y-111129615D01*
X142367844Y-111135283D01*
X142366713Y-111134798D01*
X142330665Y-111188308D01*
X142265461Y-111216396D01*
X142195422Y-111204774D01*
X142142785Y-111157131D01*
X142134448Y-111140728D01*
X142133033Y-111136040D01*
X142112999Y-111098361D01*
X142048416Y-110976898D01*
X142048413Y-110976894D01*
X142045522Y-110971456D01*
X142041632Y-110966686D01*
X142041629Y-110966682D01*
X141931605Y-110831780D01*
X141931602Y-110831777D01*
X141927710Y-110827005D01*
X141922056Y-110822327D01*
X141849984Y-110762704D01*
X141784085Y-110708187D01*
X141620116Y-110619529D01*
X141513160Y-110586421D01*
X141447936Y-110566231D01*
X141447933Y-110566230D01*
X141442049Y-110564409D01*
X141435924Y-110563765D01*
X141435923Y-110563765D01*
X141262796Y-110545568D01*
X141262795Y-110545568D01*
X141256668Y-110544924D01*
X141178549Y-110552033D01*
X141077171Y-110561259D01*
X141077168Y-110561260D01*
X141071032Y-110561818D01*
X141065122Y-110563557D01*
X141065119Y-110563558D01*
X140911879Y-110608660D01*
X140840882Y-110608706D01*
X140787208Y-110576882D01*
X137694111Y-107483785D01*
X137686684Y-107475681D01*
X137669541Y-107455251D01*
X137669542Y-107455251D01*
X137662455Y-107446806D01*
X137640986Y-107434411D01*
X137629815Y-107427961D01*
X137620544Y-107422055D01*
X137598715Y-107406770D01*
X137589684Y-107400446D01*
X137579034Y-107397592D01*
X137575866Y-107396115D01*
X137572590Y-107394923D01*
X137563045Y-107389412D01*
X137529301Y-107383462D01*
X137525942Y-107382870D01*
X137515215Y-107380492D01*
X137478807Y-107370736D01*
X137467822Y-107371697D01*
X137467820Y-107371697D01*
X137441272Y-107374020D01*
X137430290Y-107374500D01*
X134326500Y-107374500D01*
X134258379Y-107354498D01*
X134211886Y-107300842D01*
X134200500Y-107248500D01*
X134200500Y-107046166D01*
X134197519Y-107014631D01*
X134152634Y-106886816D01*
X134147042Y-106879246D01*
X134147041Y-106879243D01*
X134077742Y-106785421D01*
X134072150Y-106777850D01*
X134055206Y-106765335D01*
X133970757Y-106702959D01*
X133970754Y-106702958D01*
X133963184Y-106697366D01*
X133835369Y-106652481D01*
X133827723Y-106651758D01*
X133827722Y-106651758D01*
X133824367Y-106651441D01*
X133822037Y-106650511D01*
X133820224Y-106650113D01*
X133820290Y-106649813D01*
X133758431Y-106625117D01*
X133717194Y-106567324D01*
X133713749Y-106496411D01*
X133749188Y-106434892D01*
X133812262Y-106402300D01*
X133836225Y-106400000D01*
X140527691Y-106400000D01*
X140595812Y-106420002D01*
X140624140Y-106444922D01*
X140650640Y-106476448D01*
X140680630Y-106496411D01*
X140723586Y-106525005D01*
X140769983Y-106555890D01*
X140906827Y-106598642D01*
X140915799Y-106598806D01*
X140915802Y-106598807D01*
X140981133Y-106600004D01*
X141050169Y-106601270D01*
X141059203Y-106598807D01*
X141179828Y-106565921D01*
X141179830Y-106565920D01*
X141188487Y-106563560D01*
X141310661Y-106488545D01*
X141406870Y-106382254D01*
X141448266Y-106296813D01*
X141465465Y-106261314D01*
X141465465Y-106261313D01*
X141469380Y-106253233D01*
X141493166Y-106111854D01*
X141493225Y-106106992D01*
X141493591Y-106102918D01*
X141519599Y-106036857D01*
X141577194Y-105995344D01*
X141648090Y-105991559D01*
X141708182Y-106025081D01*
X141710325Y-106027224D01*
X141744351Y-106089536D01*
X141745232Y-106119036D01*
X141747034Y-106119058D01*
X141746924Y-106128031D01*
X141745543Y-106136903D01*
X141746707Y-106145805D01*
X141746707Y-106145808D01*
X141748040Y-106156000D01*
X141764132Y-106279059D01*
X141821872Y-106410283D01*
X141827649Y-106417156D01*
X141827650Y-106417157D01*
X141906099Y-106510484D01*
X141914122Y-106520028D01*
X142033465Y-106599470D01*
X142170309Y-106642222D01*
X142179281Y-106642386D01*
X142179284Y-106642387D01*
X142244615Y-106643584D01*
X142313651Y-106644850D01*
X142322685Y-106642387D01*
X142443310Y-106609501D01*
X142443312Y-106609500D01*
X142451969Y-106607140D01*
X142574143Y-106532125D01*
X142606470Y-106496411D01*
X142641593Y-106457607D01*
X142670352Y-106425834D01*
X142732862Y-106296813D01*
X142756648Y-106155434D01*
X142756799Y-106143080D01*
X142743767Y-106052082D01*
X142737748Y-106010048D01*
X142737747Y-106010045D01*
X142736475Y-106001162D01*
X142725232Y-105976433D01*
X142701237Y-105923660D01*
X142677136Y-105870652D01*
X142636004Y-105822916D01*
X142589412Y-105768843D01*
X142589409Y-105768840D01*
X142583552Y-105762043D01*
X142463247Y-105684065D01*
X142325891Y-105642987D01*
X142316915Y-105642932D01*
X142316914Y-105642932D01*
X142278139Y-105642695D01*
X142226846Y-105642382D01*
X142158850Y-105621964D01*
X142138522Y-105605479D01*
X141857591Y-105324548D01*
X141855835Y-105322514D01*
X141853497Y-105317731D01*
X141817595Y-105284427D01*
X141814190Y-105281147D01*
X141800795Y-105267752D01*
X141796825Y-105265028D01*
X141794177Y-105262703D01*
X141779953Y-105249508D01*
X141779950Y-105249506D01*
X141771426Y-105241599D01*
X141760622Y-105237289D01*
X141756633Y-105234767D01*
X141745846Y-105229006D01*
X141741519Y-105227089D01*
X141731926Y-105220508D01*
X141721047Y-105217926D01*
X141667096Y-105172232D01*
X141646328Y-105104340D01*
X141667068Y-105035109D01*
X141669200Y-105032754D01*
X141674392Y-105022039D01*
X141727795Y-104911814D01*
X141727795Y-104911813D01*
X141731710Y-104903733D01*
X141755496Y-104762354D01*
X141755647Y-104750000D01*
X141735323Y-104608082D01*
X141737149Y-104607820D01*
X141737220Y-104547821D01*
X141775673Y-104488140D01*
X141840289Y-104458723D01*
X141910551Y-104468909D01*
X141964152Y-104515465D01*
X141973401Y-104532711D01*
X142003715Y-104601605D01*
X142009492Y-104608478D01*
X142009493Y-104608479D01*
X142016787Y-104617156D01*
X142095965Y-104711350D01*
X142146793Y-104745184D01*
X142172587Y-104762354D01*
X142215308Y-104790792D01*
X142352152Y-104833544D01*
X142361124Y-104833708D01*
X142361127Y-104833709D01*
X142426458Y-104834906D01*
X142495494Y-104836172D01*
X142504528Y-104833709D01*
X142625153Y-104800823D01*
X142625155Y-104800822D01*
X142633812Y-104798462D01*
X142755986Y-104723447D01*
X142766431Y-104711908D01*
X142846173Y-104623809D01*
X142852195Y-104617156D01*
X142914705Y-104488135D01*
X142938491Y-104346756D01*
X142938642Y-104334402D01*
X142928864Y-104266124D01*
X142919591Y-104201370D01*
X142919590Y-104201367D01*
X142918318Y-104192484D01*
X142858979Y-104061974D01*
X142833711Y-104032649D01*
X142771255Y-103960165D01*
X142771252Y-103960162D01*
X142765395Y-103953365D01*
X142645090Y-103875387D01*
X142507734Y-103834309D01*
X142498758Y-103834254D01*
X142498757Y-103834254D01*
X142469470Y-103834075D01*
X142402977Y-103833669D01*
X142364053Y-103824910D01*
X142363776Y-103825945D01*
X142361813Y-103825419D01*
X142357138Y-103823945D01*
X142357065Y-103824147D01*
X142356494Y-103823994D01*
X142355140Y-103823501D01*
X142353260Y-103822722D01*
X142351331Y-103822114D01*
X142350853Y-103821940D01*
X142350475Y-103821855D01*
X142349963Y-103821616D01*
X142346683Y-103820422D01*
X142337137Y-103814911D01*
X142303393Y-103808961D01*
X142300034Y-103808369D01*
X142289307Y-103805991D01*
X142252899Y-103796235D01*
X142241914Y-103797196D01*
X142241912Y-103797196D01*
X142215364Y-103799519D01*
X142204382Y-103799999D01*
X141011032Y-103799999D01*
X141000050Y-103799519D01*
X140973502Y-103797196D01*
X140973500Y-103797196D01*
X140962515Y-103796235D01*
X140926107Y-103805991D01*
X140915380Y-103808369D01*
X140912021Y-103808961D01*
X140878277Y-103814911D01*
X140868732Y-103820422D01*
X140865456Y-103821614D01*
X140862288Y-103823091D01*
X140851638Y-103825945D01*
X140838875Y-103834882D01*
X140820778Y-103847554D01*
X140811507Y-103853460D01*
X140805849Y-103856727D01*
X140778867Y-103872305D01*
X140771780Y-103880750D01*
X140763337Y-103887835D01*
X140762248Y-103886537D01*
X140713723Y-103918819D01*
X140676315Y-103924500D01*
X139323543Y-103924500D01*
X139255422Y-103904498D01*
X139208929Y-103850842D01*
X139199289Y-103777596D01*
X139221992Y-103642651D01*
X139221992Y-103642650D01*
X139222799Y-103637854D01*
X139222950Y-103625500D01*
X139211496Y-103545519D01*
X139203899Y-103492468D01*
X139203898Y-103492465D01*
X139202626Y-103483582D01*
X139198354Y-103474185D01*
X139179163Y-103431977D01*
X139143287Y-103353072D01*
X139106680Y-103310588D01*
X139055563Y-103251263D01*
X139055560Y-103251260D01*
X139049703Y-103244463D01*
X138929398Y-103166485D01*
X138792042Y-103125407D01*
X138783066Y-103125352D01*
X138783065Y-103125352D01*
X138722858Y-103124984D01*
X138648679Y-103124531D01*
X138510832Y-103163928D01*
X138389583Y-103240430D01*
X138383641Y-103247158D01*
X138383640Y-103247159D01*
X138311977Y-103328303D01*
X138294680Y-103347888D01*
X138290867Y-103356010D01*
X138285936Y-103363516D01*
X138283811Y-103362120D01*
X138245671Y-103405210D01*
X138178671Y-103424500D01*
X133506441Y-103424500D01*
X133438320Y-103404498D01*
X133400293Y-103366387D01*
X133397001Y-103361240D01*
X133393287Y-103353071D01*
X133383022Y-103341158D01*
X133305563Y-103251262D01*
X133305560Y-103251259D01*
X133299703Y-103244462D01*
X133179398Y-103166484D01*
X133042042Y-103125406D01*
X133033066Y-103125351D01*
X133033065Y-103125351D01*
X132972858Y-103124983D01*
X132898679Y-103124530D01*
X132760832Y-103163927D01*
X132639583Y-103240429D01*
X132633641Y-103247157D01*
X132633640Y-103247158D01*
X132602104Y-103282866D01*
X132544680Y-103347887D01*
X132483750Y-103477662D01*
X132477684Y-103516621D01*
X132465403Y-103595502D01*
X132461694Y-103619322D01*
X132462858Y-103628224D01*
X132462858Y-103628227D01*
X132466675Y-103657412D01*
X132480283Y-103761478D01*
X132482457Y-103766419D01*
X132481534Y-103835606D01*
X132442358Y-103894815D01*
X132377389Y-103923444D01*
X132361122Y-103924499D01*
X130197015Y-103924499D01*
X130128894Y-103904497D01*
X130107920Y-103887594D01*
X127685921Y-101465595D01*
X127651895Y-101403283D01*
X127656960Y-101332468D01*
X127699507Y-101275632D01*
X127766027Y-101250821D01*
X127775016Y-101250500D01*
X129369748Y-101250500D01*
X129375816Y-101249293D01*
X129416061Y-101241288D01*
X129416062Y-101241288D01*
X129428231Y-101238867D01*
X129494552Y-101194552D01*
X129538867Y-101128231D01*
X129546101Y-101091866D01*
X129549293Y-101075816D01*
X129550500Y-101069748D01*
X129550500Y-99330252D01*
X129538867Y-99271769D01*
X129494552Y-99205448D01*
X129428231Y-99161133D01*
X129416062Y-99158712D01*
X129416061Y-99158712D01*
X129375816Y-99150707D01*
X129369748Y-99149500D01*
X128951500Y-99149500D01*
X128883379Y-99129498D01*
X128836886Y-99075842D01*
X128825500Y-99023500D01*
X128825500Y-98187016D01*
X128845502Y-98118895D01*
X128862405Y-98097921D01*
X133466503Y-93493823D01*
X134244391Y-93493823D01*
X134245555Y-93502725D01*
X134245555Y-93502728D01*
X134247441Y-93517149D01*
X134262980Y-93635979D01*
X134320720Y-93767203D01*
X134326497Y-93774076D01*
X134326498Y-93774077D01*
X134394951Y-93855512D01*
X134423472Y-93920528D01*
X134424500Y-93936587D01*
X134424500Y-98480290D01*
X134424020Y-98491272D01*
X134420736Y-98528807D01*
X134423590Y-98539456D01*
X134430491Y-98565210D01*
X134432870Y-98575942D01*
X134439412Y-98613045D01*
X134444923Y-98622590D01*
X134446115Y-98625866D01*
X134447592Y-98629034D01*
X134450446Y-98639684D01*
X134456770Y-98648715D01*
X134472055Y-98670544D01*
X134477961Y-98679815D01*
X134491293Y-98702906D01*
X134496806Y-98712455D01*
X134505251Y-98719541D01*
X134525682Y-98736685D01*
X134533785Y-98744111D01*
X137130390Y-101340716D01*
X137137816Y-101348819D01*
X137162046Y-101377695D01*
X137171595Y-101383208D01*
X137194686Y-101396540D01*
X137203957Y-101402446D01*
X137234817Y-101424055D01*
X137245467Y-101426909D01*
X137248635Y-101428386D01*
X137251911Y-101429578D01*
X137261456Y-101435089D01*
X137295200Y-101441039D01*
X137298559Y-101441631D01*
X137309286Y-101444009D01*
X137345694Y-101453765D01*
X137356679Y-101452804D01*
X137356681Y-101452804D01*
X137383229Y-101450481D01*
X137394211Y-101450001D01*
X138144019Y-101450001D01*
X138212140Y-101470003D01*
X138258633Y-101523659D01*
X138268737Y-101593933D01*
X138267309Y-101600328D01*
X138266447Y-101602163D01*
X138265408Y-101608837D01*
X138265407Y-101608841D01*
X138246193Y-101732252D01*
X138244391Y-101743823D01*
X138245555Y-101752725D01*
X138245555Y-101752728D01*
X138252436Y-101805344D01*
X138262980Y-101885979D01*
X138320720Y-102017203D01*
X138326497Y-102024076D01*
X138326498Y-102024077D01*
X138407190Y-102120072D01*
X138412970Y-102126948D01*
X138431143Y-102139045D01*
X138513511Y-102193874D01*
X138532313Y-102206390D01*
X138669157Y-102249142D01*
X138678129Y-102249306D01*
X138678132Y-102249307D01*
X138743463Y-102250504D01*
X138812499Y-102251770D01*
X138821533Y-102249307D01*
X138942158Y-102216421D01*
X138942160Y-102216420D01*
X138950817Y-102214060D01*
X139038483Y-102160233D01*
X139065343Y-102143741D01*
X139065344Y-102143741D01*
X139072991Y-102139045D01*
X139090165Y-102120072D01*
X139092995Y-102116945D01*
X139153538Y-102079863D01*
X139186410Y-102075500D01*
X141370103Y-102075500D01*
X141438224Y-102095502D01*
X141484717Y-102149158D01*
X141495039Y-102185162D01*
X141498204Y-102209364D01*
X141512980Y-102322360D01*
X141570720Y-102453584D01*
X141576497Y-102460457D01*
X141576498Y-102460458D01*
X141644188Y-102540985D01*
X141662970Y-102563329D01*
X141670447Y-102568306D01*
X141767429Y-102632863D01*
X141782313Y-102642771D01*
X141919157Y-102685523D01*
X141928129Y-102685687D01*
X141928132Y-102685688D01*
X141993463Y-102686885D01*
X142062499Y-102688151D01*
X142071533Y-102685688D01*
X142192158Y-102652802D01*
X142192160Y-102652801D01*
X142200817Y-102650441D01*
X142322991Y-102575426D01*
X142331280Y-102566269D01*
X142413178Y-102475788D01*
X142419200Y-102469135D01*
X142481710Y-102340114D01*
X142505496Y-102198735D01*
X142505647Y-102186381D01*
X142489579Y-102074179D01*
X142486596Y-102053349D01*
X142486595Y-102053346D01*
X142485323Y-102044463D01*
X142425984Y-101913953D01*
X142377284Y-101857434D01*
X142338260Y-101812144D01*
X142338257Y-101812141D01*
X142332400Y-101805344D01*
X142212095Y-101727366D01*
X142074739Y-101686288D01*
X142065763Y-101686233D01*
X142065762Y-101686233D01*
X142011267Y-101685900D01*
X141943270Y-101665482D01*
X141922942Y-101648997D01*
X141886696Y-101612751D01*
X141852670Y-101550439D01*
X141857735Y-101479624D01*
X141903520Y-101420443D01*
X141929222Y-101402446D01*
X141938493Y-101396540D01*
X141961584Y-101383208D01*
X141971133Y-101377695D01*
X141995363Y-101348818D01*
X142002789Y-101340716D01*
X142230101Y-101113404D01*
X142292413Y-101079378D01*
X142319196Y-101076499D01*
X143057634Y-101076499D01*
X143068616Y-101076979D01*
X143095164Y-101079302D01*
X143095166Y-101079302D01*
X143106151Y-101080263D01*
X143142559Y-101070507D01*
X143153286Y-101068129D01*
X143156645Y-101067537D01*
X143190389Y-101061587D01*
X143199934Y-101056076D01*
X143203210Y-101054884D01*
X143206378Y-101053407D01*
X143217028Y-101050553D01*
X143247888Y-101028944D01*
X143257159Y-101023038D01*
X143280250Y-101009706D01*
X143289799Y-101004193D01*
X143314023Y-100975324D01*
X143321450Y-100967219D01*
X143425267Y-100863403D01*
X143487579Y-100829378D01*
X143514362Y-100826499D01*
X143657684Y-100826499D01*
X143725805Y-100846501D01*
X143746779Y-100863404D01*
X144099590Y-101216215D01*
X144107017Y-101224319D01*
X144131246Y-101253194D01*
X144140795Y-101258707D01*
X144163886Y-101272039D01*
X144173157Y-101277945D01*
X144204017Y-101299554D01*
X144214667Y-101302408D01*
X144217835Y-101303885D01*
X144221111Y-101305077D01*
X144230656Y-101310588D01*
X144264400Y-101316538D01*
X144267759Y-101317130D01*
X144278486Y-101319508D01*
X144314894Y-101329264D01*
X144325879Y-101328303D01*
X144325881Y-101328303D01*
X144352429Y-101325980D01*
X144363411Y-101325500D01*
X147730290Y-101325500D01*
X147741272Y-101325980D01*
X147767820Y-101328303D01*
X147767822Y-101328303D01*
X147778807Y-101329264D01*
X147815215Y-101319508D01*
X147825942Y-101317130D01*
X147829301Y-101316538D01*
X147863045Y-101310588D01*
X147872590Y-101305077D01*
X147875866Y-101303885D01*
X147879034Y-101302408D01*
X147889684Y-101299554D01*
X147920544Y-101277945D01*
X147929815Y-101272039D01*
X147952906Y-101258707D01*
X147962455Y-101253194D01*
X147986684Y-101224319D01*
X147994106Y-101216220D01*
X148283677Y-100926650D01*
X148345989Y-100892625D01*
X148372772Y-100889746D01*
X148513411Y-100889746D01*
X148581532Y-100909748D01*
X148628025Y-100963404D01*
X148637911Y-101035130D01*
X148631022Y-101079378D01*
X148624958Y-101118324D01*
X148643547Y-101260480D01*
X148657957Y-101293230D01*
X148695111Y-101377667D01*
X148701287Y-101391704D01*
X148707064Y-101398577D01*
X148707065Y-101398578D01*
X148775518Y-101480013D01*
X148804039Y-101545029D01*
X148805067Y-101561088D01*
X148805067Y-106961664D01*
X148785065Y-107029785D01*
X148746302Y-107068226D01*
X148672280Y-107114930D01*
X148577377Y-107222388D01*
X148516447Y-107352163D01*
X148508868Y-107400842D01*
X148495942Y-107483863D01*
X148494391Y-107493823D01*
X148495555Y-107502725D01*
X148495555Y-107502728D01*
X148502541Y-107556147D01*
X148512980Y-107635979D01*
X148570720Y-107767203D01*
X148576497Y-107774076D01*
X148576498Y-107774077D01*
X148657190Y-107870072D01*
X148662970Y-107876948D01*
X148670447Y-107881925D01*
X148731941Y-107922859D01*
X148782313Y-107956390D01*
X148919157Y-107999142D01*
X148928129Y-107999306D01*
X148928132Y-107999307D01*
X148993463Y-108000504D01*
X149062499Y-108001770D01*
X149071533Y-107999307D01*
X149192158Y-107966421D01*
X149192160Y-107966420D01*
X149200817Y-107964060D01*
X149322991Y-107889045D01*
X149419200Y-107782754D01*
X149469302Y-107679344D01*
X149477795Y-107661814D01*
X149477795Y-107661813D01*
X149481710Y-107653733D01*
X149505496Y-107512354D01*
X149505647Y-107500000D01*
X149495330Y-107427961D01*
X149486596Y-107366968D01*
X149486595Y-107366965D01*
X149485323Y-107358082D01*
X149481610Y-107349916D01*
X149481609Y-107349912D01*
X149467366Y-107318587D01*
X149456067Y-107266436D01*
X149456067Y-101559330D01*
X149476069Y-101491209D01*
X149488652Y-101474775D01*
X149543743Y-101413912D01*
X149543748Y-101413905D01*
X149549767Y-101407255D01*
X149602156Y-101299124D01*
X149649857Y-101246542D01*
X149718415Y-101228096D01*
X149786063Y-101249643D01*
X149804642Y-101264968D01*
X150637595Y-102097921D01*
X150671621Y-102160233D01*
X150674500Y-102187016D01*
X150674500Y-102564742D01*
X150654498Y-102632863D01*
X150642942Y-102648149D01*
X150641325Y-102649980D01*
X150577377Y-102722388D01*
X150516447Y-102852163D01*
X150508299Y-102904498D01*
X150496861Y-102977961D01*
X150494391Y-102993823D01*
X150495555Y-103002725D01*
X150495555Y-103002728D01*
X150500180Y-103038092D01*
X150512980Y-103135979D01*
X150516597Y-103144199D01*
X150557246Y-103236580D01*
X150570720Y-103267203D01*
X150576497Y-103274076D01*
X150576498Y-103274077D01*
X150655646Y-103368235D01*
X150662970Y-103376948D01*
X150705151Y-103405026D01*
X150761761Y-103442709D01*
X150782313Y-103456390D01*
X150919157Y-103499142D01*
X150928129Y-103499306D01*
X150928132Y-103499307D01*
X150993463Y-103500504D01*
X151062499Y-103501770D01*
X151072139Y-103499142D01*
X151096618Y-103492468D01*
X151200817Y-103464060D01*
X151200904Y-103464380D01*
X151265725Y-103456379D01*
X151329704Y-103487156D01*
X151354423Y-103517711D01*
X151371307Y-103546956D01*
X151379752Y-103554042D01*
X151400177Y-103571181D01*
X151408280Y-103578607D01*
X151998257Y-104168584D01*
X152032283Y-104230896D01*
X152029264Y-104295776D01*
X152010879Y-104353733D01*
X151987283Y-104428117D01*
X151947619Y-104487001D01*
X151882417Y-104515093D01*
X151812377Y-104503475D01*
X151759738Y-104455835D01*
X151742455Y-104407886D01*
X151735323Y-104358084D01*
X151730173Y-104346756D01*
X151706993Y-104295776D01*
X151675984Y-104227574D01*
X151645748Y-104192484D01*
X151588260Y-104125765D01*
X151588257Y-104125762D01*
X151582400Y-104118965D01*
X151462095Y-104040987D01*
X151324739Y-103999909D01*
X151315763Y-103999854D01*
X151315762Y-103999854D01*
X151255555Y-103999486D01*
X151181376Y-103999033D01*
X151043529Y-104038430D01*
X150922280Y-104114932D01*
X150916338Y-104121660D01*
X150916337Y-104121661D01*
X150908380Y-104130671D01*
X150827377Y-104222390D01*
X150766447Y-104352165D01*
X150760296Y-104391672D01*
X150746115Y-104482754D01*
X150744391Y-104493825D01*
X150744729Y-104496411D01*
X150724838Y-104561217D01*
X150708774Y-104580902D01*
X150533785Y-104755891D01*
X150525681Y-104763318D01*
X150496806Y-104787547D01*
X150491293Y-104797096D01*
X150477961Y-104820187D01*
X150472055Y-104829458D01*
X150450446Y-104860318D01*
X150447592Y-104870968D01*
X150446115Y-104874136D01*
X150444923Y-104877412D01*
X150439412Y-104886957D01*
X150433462Y-104920701D01*
X150432870Y-104924060D01*
X150430492Y-104934787D01*
X150420736Y-104971195D01*
X150421697Y-104982180D01*
X150421697Y-104982182D01*
X150424020Y-105008730D01*
X150424500Y-105019712D01*
X150424500Y-108730290D01*
X150424020Y-108741272D01*
X150422691Y-108756466D01*
X150420736Y-108778807D01*
X150430491Y-108815210D01*
X150432870Y-108825942D01*
X150439412Y-108863045D01*
X150444923Y-108872590D01*
X150446115Y-108875866D01*
X150447592Y-108879034D01*
X150450446Y-108889684D01*
X150464096Y-108909178D01*
X150472055Y-108920544D01*
X150477961Y-108929815D01*
X150484788Y-108941639D01*
X150496806Y-108962455D01*
X150525682Y-108986685D01*
X150533785Y-108994111D01*
X151056378Y-109516704D01*
X151063804Y-109524807D01*
X151088034Y-109553683D01*
X151097583Y-109559196D01*
X151120674Y-109572528D01*
X151129945Y-109578434D01*
X151160805Y-109600043D01*
X151171455Y-109602897D01*
X151174623Y-109604374D01*
X151177899Y-109605566D01*
X151187444Y-109611077D01*
X151221188Y-109617027D01*
X151224547Y-109617619D01*
X151235274Y-109619997D01*
X151271682Y-109629753D01*
X151282667Y-109628792D01*
X151282669Y-109628792D01*
X151309217Y-109626469D01*
X151320199Y-109625989D01*
X158549801Y-109625989D01*
X158560783Y-109626469D01*
X158587331Y-109628792D01*
X158587333Y-109628792D01*
X158598318Y-109629753D01*
X158634726Y-109619997D01*
X158645453Y-109617619D01*
X158648812Y-109617027D01*
X158682556Y-109611077D01*
X158692101Y-109605566D01*
X158695377Y-109604374D01*
X158698545Y-109602897D01*
X158709195Y-109600043D01*
X158740055Y-109578434D01*
X158749326Y-109572528D01*
X158772417Y-109559196D01*
X158781966Y-109553683D01*
X158806196Y-109524806D01*
X158813622Y-109516704D01*
X160079122Y-108251205D01*
X160141434Y-108217179D01*
X160207153Y-108220467D01*
X160387471Y-108279056D01*
X160387475Y-108279057D01*
X160393329Y-108280959D01*
X160597894Y-108305351D01*
X160604029Y-108304879D01*
X160604031Y-108304879D01*
X160660939Y-108300500D01*
X160803300Y-108289546D01*
X160809230Y-108287890D01*
X160809232Y-108287890D01*
X160940626Y-108251204D01*
X161001725Y-108234145D01*
X161007214Y-108231372D01*
X161007220Y-108231370D01*
X161165334Y-108151500D01*
X161185610Y-108141258D01*
X161208601Y-108123296D01*
X161343101Y-108018213D01*
X161347951Y-108014424D01*
X161360913Y-107999408D01*
X161478540Y-107863134D01*
X161478540Y-107863133D01*
X161482564Y-107858472D01*
X161503387Y-107821818D01*
X161557742Y-107726135D01*
X161584323Y-107679344D01*
X161649351Y-107483863D01*
X161675171Y-107279474D01*
X161675583Y-107250000D01*
X161655480Y-107044970D01*
X161595935Y-106847749D01*
X161499218Y-106665849D01*
X161418863Y-106567324D01*
X161372906Y-106510975D01*
X161372903Y-106510972D01*
X161369011Y-106506200D01*
X161362167Y-106500538D01*
X161215025Y-106378811D01*
X161215021Y-106378809D01*
X161210275Y-106374882D01*
X161029055Y-106276897D01*
X160832254Y-106215977D01*
X160826129Y-106215333D01*
X160826128Y-106215333D01*
X160633498Y-106195087D01*
X160633496Y-106195087D01*
X160627369Y-106194443D01*
X160540529Y-106202346D01*
X160428342Y-106212555D01*
X160428339Y-106212556D01*
X160422203Y-106213114D01*
X160224572Y-106271280D01*
X160042002Y-106366726D01*
X160037201Y-106370586D01*
X160037198Y-106370588D01*
X159898765Y-106481891D01*
X159881447Y-106495815D01*
X159749024Y-106653630D01*
X159746056Y-106659028D01*
X159746053Y-106659033D01*
X159674340Y-106789480D01*
X159649776Y-106834162D01*
X159587484Y-107030532D01*
X159586798Y-107036649D01*
X159586797Y-107036653D01*
X159568181Y-107202625D01*
X159564520Y-107235262D01*
X159565036Y-107241406D01*
X159580702Y-107427961D01*
X159581759Y-107440553D01*
X159583458Y-107446478D01*
X159630081Y-107609071D01*
X159638544Y-107638586D01*
X159641362Y-107644068D01*
X159641363Y-107644072D01*
X159641541Y-107644419D01*
X159641579Y-107644619D01*
X159643630Y-107649799D01*
X159642645Y-107650189D01*
X159654887Y-107714150D01*
X159628414Y-107780027D01*
X159618568Y-107791105D01*
X158471590Y-108938084D01*
X158409278Y-108972109D01*
X158382495Y-108974989D01*
X157119527Y-108974989D01*
X157051406Y-108954987D01*
X157004913Y-108901331D01*
X156994809Y-108831057D01*
X157024303Y-108766477D01*
X157030432Y-108759894D01*
X157539122Y-108251204D01*
X157601434Y-108217178D01*
X157667151Y-108220466D01*
X157853329Y-108280959D01*
X158057894Y-108305351D01*
X158064029Y-108304879D01*
X158064031Y-108304879D01*
X158120939Y-108300500D01*
X158263300Y-108289546D01*
X158269230Y-108287890D01*
X158269232Y-108287890D01*
X158400626Y-108251204D01*
X158461725Y-108234145D01*
X158467214Y-108231372D01*
X158467220Y-108231370D01*
X158625334Y-108151500D01*
X158645610Y-108141258D01*
X158668601Y-108123296D01*
X158803101Y-108018213D01*
X158807951Y-108014424D01*
X158820913Y-107999408D01*
X158938540Y-107863134D01*
X158938540Y-107863133D01*
X158942564Y-107858472D01*
X158963387Y-107821818D01*
X159017742Y-107726135D01*
X159044323Y-107679344D01*
X159109351Y-107483863D01*
X159135171Y-107279474D01*
X159135583Y-107250000D01*
X159115480Y-107044970D01*
X159055935Y-106847749D01*
X158959218Y-106665849D01*
X158878863Y-106567324D01*
X158832906Y-106510975D01*
X158832903Y-106510972D01*
X158829011Y-106506200D01*
X158822167Y-106500538D01*
X158675025Y-106378811D01*
X158675021Y-106378809D01*
X158670275Y-106374882D01*
X158489055Y-106276897D01*
X158292254Y-106215977D01*
X158286129Y-106215333D01*
X158286128Y-106215333D01*
X158093498Y-106195087D01*
X158093496Y-106195087D01*
X158087369Y-106194443D01*
X158000529Y-106202346D01*
X157888342Y-106212555D01*
X157888339Y-106212556D01*
X157882203Y-106213114D01*
X157684572Y-106271280D01*
X157502002Y-106366726D01*
X157497201Y-106370586D01*
X157497198Y-106370588D01*
X157358765Y-106481891D01*
X157341447Y-106495815D01*
X157209024Y-106653630D01*
X157206056Y-106659028D01*
X157206053Y-106659033D01*
X157134340Y-106789480D01*
X157109776Y-106834162D01*
X157047484Y-107030532D01*
X157046798Y-107036649D01*
X157046797Y-107036653D01*
X157028181Y-107202625D01*
X157024520Y-107235262D01*
X157025036Y-107241406D01*
X157040702Y-107427961D01*
X157041759Y-107440553D01*
X157043458Y-107446478D01*
X157090081Y-107609071D01*
X157098544Y-107638586D01*
X157101362Y-107644069D01*
X157101365Y-107644077D01*
X157101545Y-107644428D01*
X157101584Y-107644630D01*
X157103630Y-107649799D01*
X157102647Y-107650188D01*
X157114886Y-107714160D01*
X157088409Y-107780034D01*
X157078568Y-107791106D01*
X156381101Y-108488573D01*
X156318789Y-108522599D01*
X156292006Y-108525478D01*
X155798111Y-108525478D01*
X155729990Y-108505476D01*
X155683497Y-108451820D01*
X155673393Y-108381546D01*
X155702887Y-108316966D01*
X155764227Y-108278119D01*
X155769295Y-108276704D01*
X155921725Y-108234145D01*
X155927214Y-108231372D01*
X155927220Y-108231370D01*
X156085334Y-108151500D01*
X156105610Y-108141258D01*
X156128601Y-108123296D01*
X156263101Y-108018213D01*
X156267951Y-108014424D01*
X156280913Y-107999408D01*
X156398540Y-107863134D01*
X156398540Y-107863133D01*
X156402564Y-107858472D01*
X156423387Y-107821818D01*
X156477742Y-107726135D01*
X156504323Y-107679344D01*
X156569351Y-107483863D01*
X156595171Y-107279474D01*
X156595583Y-107250000D01*
X156575480Y-107044970D01*
X156515935Y-106847749D01*
X156419218Y-106665849D01*
X156338863Y-106567324D01*
X156292906Y-106510975D01*
X156292903Y-106510972D01*
X156289011Y-106506200D01*
X156282167Y-106500538D01*
X156135025Y-106378811D01*
X156135021Y-106378809D01*
X156130275Y-106374882D01*
X155949055Y-106276897D01*
X155752254Y-106215977D01*
X155746129Y-106215333D01*
X155746128Y-106215333D01*
X155553498Y-106195087D01*
X155553496Y-106195087D01*
X155547369Y-106194443D01*
X155460529Y-106202346D01*
X155348342Y-106212555D01*
X155348339Y-106212556D01*
X155342203Y-106213114D01*
X155144572Y-106271280D01*
X154962002Y-106366726D01*
X154957201Y-106370586D01*
X154957198Y-106370588D01*
X154818765Y-106481891D01*
X154801447Y-106495815D01*
X154669024Y-106653630D01*
X154666056Y-106659028D01*
X154666053Y-106659033D01*
X154594340Y-106789480D01*
X154569776Y-106834162D01*
X154507484Y-107030532D01*
X154506798Y-107036649D01*
X154506797Y-107036653D01*
X154488181Y-107202625D01*
X154484520Y-107235262D01*
X154485036Y-107241406D01*
X154500702Y-107427961D01*
X154501759Y-107440553D01*
X154503458Y-107446478D01*
X154550081Y-107609071D01*
X154558544Y-107638586D01*
X154561359Y-107644063D01*
X154561360Y-107644066D01*
X154628485Y-107774677D01*
X154652712Y-107821818D01*
X154780677Y-107983270D01*
X154785370Y-107987264D01*
X154785371Y-107987265D01*
X154873661Y-108062405D01*
X154937564Y-108116791D01*
X155117398Y-108217297D01*
X155300766Y-108276877D01*
X155309285Y-108279645D01*
X155367891Y-108319718D01*
X155395528Y-108385115D01*
X155383421Y-108455072D01*
X155335415Y-108507378D01*
X155270349Y-108525478D01*
X153984120Y-108525478D01*
X153915999Y-108505476D01*
X153869506Y-108451820D01*
X153859402Y-108381546D01*
X153888896Y-108316966D01*
X153927722Y-108288968D01*
X153928231Y-108288867D01*
X153942033Y-108279645D01*
X153984239Y-108251443D01*
X153994552Y-108244552D01*
X154028133Y-108194296D01*
X154031974Y-108188547D01*
X154038867Y-108178231D01*
X154045670Y-108144033D01*
X154049293Y-108125816D01*
X154050500Y-108119748D01*
X154050500Y-106380252D01*
X154038867Y-106321769D01*
X153994552Y-106255448D01*
X153928231Y-106211133D01*
X153916062Y-106208712D01*
X153916061Y-106208712D01*
X153875816Y-106200707D01*
X153869748Y-106199500D01*
X152130252Y-106199500D01*
X152124184Y-106200707D01*
X152083939Y-106208712D01*
X152083938Y-106208712D01*
X152071769Y-106211133D01*
X152061452Y-106218027D01*
X152061449Y-106218028D01*
X152027722Y-106240564D01*
X151959969Y-106261780D01*
X151891502Y-106242998D01*
X151844059Y-106190181D01*
X151831719Y-106135800D01*
X151831719Y-105692166D01*
X151851721Y-105624045D01*
X151864304Y-105607611D01*
X151919395Y-105546748D01*
X151919400Y-105546741D01*
X151925419Y-105540091D01*
X151986640Y-105413731D01*
X152034341Y-105361149D01*
X152102899Y-105342703D01*
X152170547Y-105364250D01*
X152198776Y-105390405D01*
X152236848Y-105438439D01*
X152240677Y-105443270D01*
X152245370Y-105447264D01*
X152245371Y-105447265D01*
X152389135Y-105569617D01*
X152397564Y-105576791D01*
X152402942Y-105579797D01*
X152402944Y-105579798D01*
X152464394Y-105614141D01*
X152577398Y-105677297D01*
X152644005Y-105698939D01*
X152767471Y-105739056D01*
X152767475Y-105739057D01*
X152773329Y-105740959D01*
X152977894Y-105765351D01*
X152984029Y-105764879D01*
X152984031Y-105764879D01*
X153040039Y-105760569D01*
X153183300Y-105749546D01*
X153189230Y-105747890D01*
X153189232Y-105747890D01*
X153326880Y-105709458D01*
X153381725Y-105694145D01*
X153387214Y-105691372D01*
X153387220Y-105691370D01*
X153536030Y-105616200D01*
X153565610Y-105601258D01*
X153581345Y-105588965D01*
X153663805Y-105524540D01*
X153727951Y-105474424D01*
X153757500Y-105440191D01*
X153817153Y-105401694D01*
X153888150Y-105401558D01*
X153947949Y-105439828D01*
X153976968Y-105500643D01*
X153980560Y-105521016D01*
X153986070Y-105530560D01*
X153987263Y-105533837D01*
X153988740Y-105537005D01*
X153991594Y-105547655D01*
X154010292Y-105574357D01*
X154032213Y-105645389D01*
X154031798Y-105648053D01*
X154050387Y-105790209D01*
X154066607Y-105827072D01*
X154100554Y-105904221D01*
X154108127Y-105921433D01*
X154113904Y-105928306D01*
X154113905Y-105928307D01*
X154190424Y-106019338D01*
X154200377Y-106031178D01*
X154218550Y-106043275D01*
X154308150Y-106102918D01*
X154319720Y-106110620D01*
X154456564Y-106153372D01*
X154465536Y-106153536D01*
X154465539Y-106153537D01*
X154530870Y-106154734D01*
X154599906Y-106156000D01*
X154608940Y-106153537D01*
X154729565Y-106120651D01*
X154729567Y-106120650D01*
X154738224Y-106118290D01*
X154860398Y-106043275D01*
X154898517Y-106001162D01*
X154950585Y-105943637D01*
X154956607Y-105936984D01*
X155009859Y-105827072D01*
X155015202Y-105816044D01*
X155015202Y-105816043D01*
X155019117Y-105807963D01*
X155020721Y-105798429D01*
X155020817Y-105797862D01*
X155021364Y-105796736D01*
X155023336Y-105790558D01*
X155024228Y-105790843D01*
X155051847Y-105734005D01*
X155112474Y-105697061D01*
X155184005Y-105698939D01*
X155313329Y-105740959D01*
X155517894Y-105765351D01*
X155524029Y-105764879D01*
X155524031Y-105764879D01*
X155580039Y-105760569D01*
X155723300Y-105749546D01*
X155729230Y-105747890D01*
X155729232Y-105747890D01*
X155866880Y-105709458D01*
X155921725Y-105694145D01*
X155927214Y-105691372D01*
X155927220Y-105691370D01*
X156076030Y-105616200D01*
X156105610Y-105601258D01*
X156121345Y-105588965D01*
X156203805Y-105524540D01*
X156267951Y-105474424D01*
X156297814Y-105439828D01*
X156398540Y-105323134D01*
X156398540Y-105323133D01*
X156402564Y-105318472D01*
X156411864Y-105302102D01*
X156459574Y-105218117D01*
X156504323Y-105139344D01*
X156569351Y-104943863D01*
X156595171Y-104739474D01*
X156595583Y-104710000D01*
X156575480Y-104504970D01*
X156515935Y-104307749D01*
X156419218Y-104125849D01*
X156338775Y-104027216D01*
X156292906Y-103970975D01*
X156292903Y-103970972D01*
X156289011Y-103966200D01*
X156281716Y-103960165D01*
X156135025Y-103838811D01*
X156135021Y-103838809D01*
X156130275Y-103834882D01*
X155949055Y-103736897D01*
X155943167Y-103735074D01*
X155942676Y-103734868D01*
X155887628Y-103690033D01*
X155865500Y-103618712D01*
X155865500Y-103527629D01*
X155865980Y-103516647D01*
X155868303Y-103490099D01*
X155868303Y-103490097D01*
X155869264Y-103479112D01*
X155859508Y-103442704D01*
X155857130Y-103431977D01*
X155856538Y-103428618D01*
X155850588Y-103394874D01*
X155845077Y-103385329D01*
X155843885Y-103382053D01*
X155842408Y-103378885D01*
X155839554Y-103368235D01*
X155817945Y-103337375D01*
X155812039Y-103328104D01*
X155798707Y-103305013D01*
X155793194Y-103295464D01*
X155764317Y-103271234D01*
X155756215Y-103263808D01*
X151834490Y-99342083D01*
X151800464Y-99279771D01*
X151805529Y-99208956D01*
X151848076Y-99152120D01*
X151914596Y-99127309D01*
X151923585Y-99126988D01*
X151984472Y-99126988D01*
X152052593Y-99146990D01*
X152073567Y-99163893D01*
X157078257Y-104168583D01*
X157112283Y-104230895D01*
X157109264Y-104295776D01*
X157047484Y-104490532D01*
X157046798Y-104496649D01*
X157046797Y-104496653D01*
X157028300Y-104661562D01*
X157024520Y-104695262D01*
X157025294Y-104704474D01*
X157040902Y-104890342D01*
X157041759Y-104900553D01*
X157043458Y-104906478D01*
X157093004Y-105079264D01*
X157098544Y-105098586D01*
X157101359Y-105104063D01*
X157101360Y-105104066D01*
X157189897Y-105276341D01*
X157192712Y-105281818D01*
X157320677Y-105443270D01*
X157325370Y-105447264D01*
X157325371Y-105447265D01*
X157469135Y-105569617D01*
X157477564Y-105576791D01*
X157482942Y-105579797D01*
X157482944Y-105579798D01*
X157544394Y-105614141D01*
X157657398Y-105677297D01*
X157724005Y-105698939D01*
X157847471Y-105739056D01*
X157847475Y-105739057D01*
X157853329Y-105740959D01*
X158057894Y-105765351D01*
X158064029Y-105764879D01*
X158064031Y-105764879D01*
X158120039Y-105760569D01*
X158263300Y-105749546D01*
X158269230Y-105747890D01*
X158269232Y-105747890D01*
X158406880Y-105709458D01*
X158461725Y-105694145D01*
X158467214Y-105691372D01*
X158467220Y-105691370D01*
X158616030Y-105616200D01*
X158645610Y-105601258D01*
X158661345Y-105588965D01*
X158743805Y-105524540D01*
X158807951Y-105474424D01*
X158837814Y-105439828D01*
X158938540Y-105323134D01*
X158938540Y-105323133D01*
X158942564Y-105318472D01*
X158951864Y-105302102D01*
X158999574Y-105218117D01*
X159044323Y-105139344D01*
X159109351Y-104943863D01*
X159135171Y-104739474D01*
X159135583Y-104710000D01*
X159115480Y-104504970D01*
X159055935Y-104307749D01*
X158959218Y-104125849D01*
X158878775Y-104027216D01*
X158832906Y-103970975D01*
X158832903Y-103970972D01*
X158829011Y-103966200D01*
X158821716Y-103960165D01*
X158675025Y-103838811D01*
X158675021Y-103838809D01*
X158670275Y-103834882D01*
X158628577Y-103812336D01*
X158578169Y-103762341D01*
X158562791Y-103693030D01*
X158587327Y-103626408D01*
X158643987Y-103583627D01*
X158688506Y-103575500D01*
X160009573Y-103575500D01*
X160077694Y-103595502D01*
X160124187Y-103649158D01*
X160134291Y-103719432D01*
X160104797Y-103784012D01*
X160067948Y-103813161D01*
X160042002Y-103826726D01*
X160037201Y-103830586D01*
X160037198Y-103830588D01*
X159920396Y-103924499D01*
X159881447Y-103955815D01*
X159749024Y-104113630D01*
X159746056Y-104119028D01*
X159746053Y-104119033D01*
X159683142Y-104233469D01*
X159649776Y-104294162D01*
X159587484Y-104490532D01*
X159586798Y-104496649D01*
X159586797Y-104496653D01*
X159568300Y-104661562D01*
X159564520Y-104695262D01*
X159565294Y-104704474D01*
X159580902Y-104890342D01*
X159581759Y-104900553D01*
X159583458Y-104906478D01*
X159633004Y-105079264D01*
X159638544Y-105098586D01*
X159641359Y-105104063D01*
X159641360Y-105104066D01*
X159729897Y-105276341D01*
X159732712Y-105281818D01*
X159860677Y-105443270D01*
X159865370Y-105447264D01*
X159865371Y-105447265D01*
X160009135Y-105569617D01*
X160017564Y-105576791D01*
X160022942Y-105579797D01*
X160022944Y-105579798D01*
X160084394Y-105614141D01*
X160197398Y-105677297D01*
X160264005Y-105698939D01*
X160387471Y-105739056D01*
X160387475Y-105739057D01*
X160393329Y-105740959D01*
X160597894Y-105765351D01*
X160604029Y-105764879D01*
X160604031Y-105764879D01*
X160660039Y-105760569D01*
X160803300Y-105749546D01*
X160809230Y-105747890D01*
X160809232Y-105747890D01*
X160946880Y-105709458D01*
X161001725Y-105694145D01*
X161007214Y-105691372D01*
X161007220Y-105691370D01*
X161156030Y-105616200D01*
X161185610Y-105601258D01*
X161201345Y-105588965D01*
X161283805Y-105524540D01*
X161347951Y-105474424D01*
X161377814Y-105439828D01*
X161478540Y-105323134D01*
X161478540Y-105323133D01*
X161482564Y-105318472D01*
X161491864Y-105302102D01*
X161539574Y-105218117D01*
X161584323Y-105139344D01*
X161649351Y-104943863D01*
X161675171Y-104739474D01*
X161675583Y-104710000D01*
X161655480Y-104504970D01*
X161595935Y-104307749D01*
X161499218Y-104125849D01*
X161418775Y-104027216D01*
X161372906Y-103970975D01*
X161372903Y-103970972D01*
X161369011Y-103966200D01*
X161361716Y-103960165D01*
X161215025Y-103838811D01*
X161215021Y-103838809D01*
X161210275Y-103834882D01*
X161168577Y-103812336D01*
X161118169Y-103762341D01*
X161102791Y-103693030D01*
X161127327Y-103626408D01*
X161183987Y-103583627D01*
X161228506Y-103575500D01*
X161512984Y-103575500D01*
X161581105Y-103595502D01*
X161602079Y-103612405D01*
X162158257Y-104168583D01*
X162192283Y-104230895D01*
X162189264Y-104295776D01*
X162127484Y-104490532D01*
X162126798Y-104496649D01*
X162126797Y-104496653D01*
X162108300Y-104661562D01*
X162104520Y-104695262D01*
X162105294Y-104704474D01*
X162120902Y-104890342D01*
X162121759Y-104900553D01*
X162123458Y-104906478D01*
X162173004Y-105079264D01*
X162178544Y-105098586D01*
X162181359Y-105104063D01*
X162181360Y-105104066D01*
X162269897Y-105276341D01*
X162272712Y-105281818D01*
X162400677Y-105443270D01*
X162405370Y-105447264D01*
X162405371Y-105447265D01*
X162549135Y-105569617D01*
X162557564Y-105576791D01*
X162562942Y-105579797D01*
X162562944Y-105579798D01*
X162624394Y-105614141D01*
X162737398Y-105677297D01*
X162804005Y-105698939D01*
X162927471Y-105739056D01*
X162927475Y-105739057D01*
X162933329Y-105740959D01*
X163137894Y-105765351D01*
X163144029Y-105764879D01*
X163144031Y-105764879D01*
X163200039Y-105760569D01*
X163343300Y-105749546D01*
X163349230Y-105747890D01*
X163349232Y-105747890D01*
X163486880Y-105709458D01*
X163541725Y-105694145D01*
X163547223Y-105691368D01*
X163554718Y-105687582D01*
X163624540Y-105674720D01*
X163690231Y-105701649D01*
X163700626Y-105710952D01*
X163972107Y-105982434D01*
X164006132Y-106044746D01*
X164009011Y-106071529D01*
X164009011Y-106321163D01*
X163989009Y-106389284D01*
X163935353Y-106435777D01*
X163865079Y-106445881D01*
X163802696Y-106418248D01*
X163756766Y-106380252D01*
X163750275Y-106374882D01*
X163569055Y-106276897D01*
X163372254Y-106215977D01*
X163366129Y-106215333D01*
X163366128Y-106215333D01*
X163173498Y-106195087D01*
X163173496Y-106195087D01*
X163167369Y-106194443D01*
X163080529Y-106202346D01*
X162968342Y-106212555D01*
X162968339Y-106212556D01*
X162962203Y-106213114D01*
X162764572Y-106271280D01*
X162582002Y-106366726D01*
X162577201Y-106370586D01*
X162577198Y-106370588D01*
X162438765Y-106481891D01*
X162421447Y-106495815D01*
X162289024Y-106653630D01*
X162286056Y-106659028D01*
X162286053Y-106659033D01*
X162214340Y-106789480D01*
X162189776Y-106834162D01*
X162127484Y-107030532D01*
X162126798Y-107036649D01*
X162126797Y-107036653D01*
X162108181Y-107202625D01*
X162104520Y-107235262D01*
X162105036Y-107241406D01*
X162120702Y-107427961D01*
X162121759Y-107440553D01*
X162123458Y-107446478D01*
X162170081Y-107609071D01*
X162178544Y-107638586D01*
X162181359Y-107644063D01*
X162181360Y-107644066D01*
X162248485Y-107774677D01*
X162272712Y-107821818D01*
X162400677Y-107983270D01*
X162405370Y-107987264D01*
X162405371Y-107987265D01*
X162493661Y-108062405D01*
X162557564Y-108116791D01*
X162737398Y-108217297D01*
X162811675Y-108241431D01*
X162927471Y-108279056D01*
X162927475Y-108279057D01*
X162933329Y-108280959D01*
X163137894Y-108305351D01*
X163144029Y-108304879D01*
X163144031Y-108304879D01*
X163200939Y-108300500D01*
X163343300Y-108289546D01*
X163349234Y-108287889D01*
X163349241Y-108287888D01*
X163445125Y-108261117D01*
X163516115Y-108262063D01*
X163575325Y-108301239D01*
X163603954Y-108366207D01*
X163592915Y-108436340D01*
X163568104Y-108471570D01*
X161819274Y-110220400D01*
X161811170Y-110227827D01*
X161782295Y-110252056D01*
X161776782Y-110261605D01*
X161763450Y-110284696D01*
X161757544Y-110293967D01*
X161735935Y-110324827D01*
X161733081Y-110335477D01*
X161731604Y-110338645D01*
X161730412Y-110341921D01*
X161724901Y-110351466D01*
X161720080Y-110378811D01*
X161718359Y-110388569D01*
X161715981Y-110399296D01*
X161706225Y-110435704D01*
X161707186Y-110446689D01*
X161707186Y-110446691D01*
X161709509Y-110473239D01*
X161709989Y-110484221D01*
X161709989Y-110509125D01*
X161689987Y-110577246D01*
X161636331Y-110623739D01*
X161566057Y-110633843D01*
X161501477Y-110604349D01*
X161486346Y-110588761D01*
X161480525Y-110581623D01*
X161450594Y-110544924D01*
X161422906Y-110510975D01*
X161422903Y-110510972D01*
X161419011Y-110506200D01*
X161392443Y-110484221D01*
X161265025Y-110378811D01*
X161265021Y-110378809D01*
X161260275Y-110374882D01*
X161079055Y-110276897D01*
X160882254Y-110215977D01*
X160876129Y-110215333D01*
X160876128Y-110215333D01*
X160683498Y-110195087D01*
X160683496Y-110195087D01*
X160677369Y-110194443D01*
X160590529Y-110202346D01*
X160478342Y-110212555D01*
X160478339Y-110212556D01*
X160472203Y-110213114D01*
X160274572Y-110271280D01*
X160269107Y-110274137D01*
X160250675Y-110283773D01*
X160092002Y-110366726D01*
X160087201Y-110370586D01*
X160087198Y-110370588D01*
X159965160Y-110468709D01*
X159931447Y-110495815D01*
X159799024Y-110653630D01*
X159796056Y-110659028D01*
X159796053Y-110659033D01*
X159715190Y-110806124D01*
X159699776Y-110834162D01*
X159697914Y-110840032D01*
X159697913Y-110840035D01*
X159642146Y-111015837D01*
X159637484Y-111030532D01*
X159636798Y-111036649D01*
X159636797Y-111036653D01*
X159616636Y-111216396D01*
X159614520Y-111235262D01*
X159615036Y-111241406D01*
X159629346Y-111411814D01*
X159631759Y-111440553D01*
X159633458Y-111446478D01*
X159686768Y-111632391D01*
X159688544Y-111638586D01*
X159691359Y-111644063D01*
X159691360Y-111644066D01*
X159771857Y-111800697D01*
X159782712Y-111821818D01*
X159910677Y-111983270D01*
X159915370Y-111987264D01*
X159915371Y-111987265D01*
X160055751Y-112106737D01*
X160067564Y-112116791D01*
X160195895Y-112188513D01*
X160245599Y-112239206D01*
X160260007Y-112308725D01*
X160234543Y-112374998D01*
X160177292Y-112416983D01*
X160134423Y-112424500D01*
X158663780Y-112424500D01*
X158595659Y-112404498D01*
X158549166Y-112350842D01*
X158539062Y-112280568D01*
X158568556Y-112215988D01*
X158606969Y-112186034D01*
X158674188Y-112152079D01*
X158695610Y-112141258D01*
X158711345Y-112128965D01*
X158795797Y-112062984D01*
X158857951Y-112014424D01*
X158879462Y-111989504D01*
X158988540Y-111863134D01*
X158988540Y-111863133D01*
X158992564Y-111858472D01*
X158996419Y-111851687D01*
X159036074Y-111781880D01*
X159094323Y-111679344D01*
X159159351Y-111483863D01*
X159185171Y-111279474D01*
X159185437Y-111260479D01*
X159185534Y-111253522D01*
X159185534Y-111253518D01*
X159185583Y-111250000D01*
X159165480Y-111044970D01*
X159105935Y-110847749D01*
X159009218Y-110665849D01*
X158910594Y-110544924D01*
X158882906Y-110510975D01*
X158882903Y-110510972D01*
X158879011Y-110506200D01*
X158852443Y-110484221D01*
X158725025Y-110378811D01*
X158725021Y-110378809D01*
X158720275Y-110374882D01*
X158539055Y-110276897D01*
X158342254Y-110215977D01*
X158336129Y-110215333D01*
X158336128Y-110215333D01*
X158143498Y-110195087D01*
X158143496Y-110195087D01*
X158137369Y-110194443D01*
X158050529Y-110202346D01*
X157938342Y-110212555D01*
X157938339Y-110212556D01*
X157932203Y-110213114D01*
X157734572Y-110271280D01*
X157729107Y-110274137D01*
X157710675Y-110283773D01*
X157552002Y-110366726D01*
X157547201Y-110370586D01*
X157547198Y-110370588D01*
X157425160Y-110468709D01*
X157391447Y-110495815D01*
X157259024Y-110653630D01*
X157256056Y-110659028D01*
X157256053Y-110659033D01*
X157175190Y-110806124D01*
X157159776Y-110834162D01*
X157148792Y-110868790D01*
X157141068Y-110893138D01*
X157101405Y-110952022D01*
X157036202Y-110980114D01*
X156966163Y-110968497D01*
X156913523Y-110920857D01*
X156898762Y-110885735D01*
X156881214Y-110815875D01*
X156877894Y-110806124D01*
X156792972Y-110610814D01*
X156788105Y-110601739D01*
X156672426Y-110422926D01*
X156666136Y-110414757D01*
X156522806Y-110257240D01*
X156515273Y-110250215D01*
X156348139Y-110118222D01*
X156339552Y-110112517D01*
X156153117Y-110009599D01*
X156143705Y-110005369D01*
X155942959Y-109934280D01*
X155932988Y-109931646D01*
X155861837Y-109918972D01*
X155848540Y-109920432D01*
X155844000Y-109934989D01*
X155844000Y-111378000D01*
X155823998Y-111446121D01*
X155770342Y-111492614D01*
X155718000Y-111504000D01*
X154273225Y-111504000D01*
X154259694Y-111507973D01*
X154258257Y-111517966D01*
X154288565Y-111652446D01*
X154291645Y-111662275D01*
X154371770Y-111859603D01*
X154376413Y-111868794D01*
X154487694Y-112050388D01*
X154493771Y-112058691D01*
X154630039Y-112216003D01*
X154659521Y-112280588D01*
X154649406Y-112350861D01*
X154602905Y-112404509D01*
X154534801Y-112424500D01*
X154437016Y-112424500D01*
X154368895Y-112404498D01*
X154347921Y-112387595D01*
X152944509Y-110984183D01*
X154254389Y-110984183D01*
X154255912Y-110992607D01*
X154268292Y-110996000D01*
X155317885Y-110996000D01*
X155333124Y-110991525D01*
X155334329Y-110990135D01*
X155336000Y-110982452D01*
X155336000Y-109933102D01*
X155332082Y-109919758D01*
X155317806Y-109917771D01*
X155279324Y-109923660D01*
X155269288Y-109926051D01*
X155066868Y-109992212D01*
X155057359Y-109996209D01*
X154868463Y-110094542D01*
X154859738Y-110100036D01*
X154689433Y-110227905D01*
X154681726Y-110234748D01*
X154534590Y-110388717D01*
X154528104Y-110396727D01*
X154408098Y-110572649D01*
X154403000Y-110581623D01*
X154313338Y-110774783D01*
X154309775Y-110784470D01*
X154254389Y-110984183D01*
X152944509Y-110984183D01*
X152244111Y-110283785D01*
X152236684Y-110275681D01*
X152219541Y-110255251D01*
X152219540Y-110255250D01*
X152212455Y-110246806D01*
X152202906Y-110241293D01*
X152179815Y-110227961D01*
X152170544Y-110222055D01*
X152139684Y-110200446D01*
X152129034Y-110197592D01*
X152125866Y-110196115D01*
X152122590Y-110194923D01*
X152113045Y-110189412D01*
X152079301Y-110183462D01*
X152075942Y-110182870D01*
X152065215Y-110180492D01*
X152028807Y-110170736D01*
X152017822Y-110171697D01*
X152017820Y-110171697D01*
X151991272Y-110174020D01*
X151980290Y-110174500D01*
X149269713Y-110174500D01*
X149258732Y-110174021D01*
X149232170Y-110171697D01*
X149232168Y-110171697D01*
X149221193Y-110170737D01*
X149184783Y-110180492D01*
X149174076Y-110182866D01*
X149136955Y-110189412D01*
X149127411Y-110194922D01*
X149124135Y-110196114D01*
X149120964Y-110197593D01*
X149110316Y-110200446D01*
X149101287Y-110206768D01*
X149079449Y-110222059D01*
X149070179Y-110227964D01*
X149047092Y-110241293D01*
X149047088Y-110241296D01*
X149037545Y-110246806D01*
X149028790Y-110257240D01*
X149013325Y-110275670D01*
X149005900Y-110283773D01*
X148776175Y-110513499D01*
X148577204Y-110712470D01*
X148514891Y-110746495D01*
X148487338Y-110749373D01*
X148461692Y-110749216D01*
X148431376Y-110749031D01*
X148293529Y-110788428D01*
X148172280Y-110864930D01*
X148166338Y-110871658D01*
X148166337Y-110871659D01*
X148142051Y-110899158D01*
X148077377Y-110972388D01*
X148016447Y-111102163D01*
X148010659Y-111139336D01*
X147996678Y-111229137D01*
X147994391Y-111243823D01*
X147995555Y-111252725D01*
X147995555Y-111252728D01*
X148000999Y-111294360D01*
X148012980Y-111385979D01*
X148039443Y-111446121D01*
X148064911Y-111504000D01*
X148070720Y-111517203D01*
X148076497Y-111524076D01*
X148076498Y-111524077D01*
X148127607Y-111584879D01*
X148162970Y-111626948D01*
X148181143Y-111639045D01*
X148254825Y-111688092D01*
X148282313Y-111706390D01*
X148419157Y-111749142D01*
X148428129Y-111749306D01*
X148428132Y-111749307D01*
X148493463Y-111750504D01*
X148562499Y-111751770D01*
X148571533Y-111749307D01*
X148692158Y-111716421D01*
X148692160Y-111716420D01*
X148700817Y-111714060D01*
X148822991Y-111639045D01*
X148875691Y-111580823D01*
X148913178Y-111539407D01*
X148919200Y-111532754D01*
X148963871Y-111440553D01*
X148977795Y-111411814D01*
X148977795Y-111411813D01*
X148981710Y-111403733D01*
X149005496Y-111262354D01*
X149005581Y-111255404D01*
X149005810Y-111254659D01*
X149005991Y-111252637D01*
X149006419Y-111252675D01*
X149026415Y-111187533D01*
X149042477Y-111167850D01*
X149347922Y-110862405D01*
X149410234Y-110828379D01*
X149437017Y-110825500D01*
X151077125Y-110825500D01*
X151145246Y-110845502D01*
X151191739Y-110899158D01*
X151201843Y-110969432D01*
X151200563Y-110975162D01*
X151199858Y-110976663D01*
X151197544Y-110991525D01*
X151180044Y-111103926D01*
X151177802Y-111118323D01*
X151178966Y-111127225D01*
X151178966Y-111127228D01*
X151183538Y-111162188D01*
X151196391Y-111260479D01*
X151200543Y-111269916D01*
X151248102Y-111378000D01*
X151254131Y-111391703D01*
X151259908Y-111398576D01*
X151259909Y-111398577D01*
X151334127Y-111486870D01*
X151346381Y-111501448D01*
X151368319Y-111516052D01*
X151413941Y-111570448D01*
X151424500Y-111620938D01*
X151424500Y-112230290D01*
X151424020Y-112241272D01*
X151421720Y-112267564D01*
X151420736Y-112278807D01*
X151427849Y-112305351D01*
X151430491Y-112315210D01*
X151432870Y-112325942D01*
X151439412Y-112363045D01*
X151444923Y-112372590D01*
X151446115Y-112375866D01*
X151447592Y-112379034D01*
X151450446Y-112389684D01*
X151472055Y-112420544D01*
X151477961Y-112429815D01*
X151484182Y-112440589D01*
X151496806Y-112462455D01*
X151505251Y-112469541D01*
X151525682Y-112486685D01*
X151533785Y-112494111D01*
X152273902Y-113234228D01*
X152307928Y-113296540D01*
X152309743Y-113306985D01*
X152313470Y-113335489D01*
X152371210Y-113466713D01*
X152376987Y-113473586D01*
X152376988Y-113473587D01*
X152457680Y-113569582D01*
X152463460Y-113576458D01*
X152582803Y-113655900D01*
X152719647Y-113698652D01*
X152728619Y-113698816D01*
X152728622Y-113698817D01*
X152793953Y-113700014D01*
X152862989Y-113701280D01*
X152872023Y-113698817D01*
X152992648Y-113665931D01*
X152992650Y-113665930D01*
X153001307Y-113663570D01*
X153123481Y-113588555D01*
X153140655Y-113569582D01*
X153143485Y-113566455D01*
X153204028Y-113529373D01*
X153236900Y-113525010D01*
X163780780Y-113525010D01*
X163791762Y-113525490D01*
X163818310Y-113527813D01*
X163818312Y-113527813D01*
X163829297Y-113528774D01*
X163865705Y-113519018D01*
X163876432Y-113516640D01*
X163879791Y-113516048D01*
X163913535Y-113510098D01*
X163923080Y-113504587D01*
X163926356Y-113503395D01*
X163929524Y-113501918D01*
X163940174Y-113499064D01*
X163971034Y-113477455D01*
X163980305Y-113471549D01*
X164003396Y-113458217D01*
X164012945Y-113452704D01*
X164037175Y-113423827D01*
X164044601Y-113415725D01*
X165122922Y-112337405D01*
X165185234Y-112303379D01*
X165212017Y-112300500D01*
X166619748Y-112300500D01*
X166625816Y-112299293D01*
X166666061Y-112291288D01*
X166666062Y-112291288D01*
X166678231Y-112288867D01*
X166744552Y-112244552D01*
X166788867Y-112178231D01*
X166795670Y-112144033D01*
X166799293Y-112125816D01*
X166800500Y-112119748D01*
X166800500Y-110380252D01*
X166794774Y-110351466D01*
X166791288Y-110333939D01*
X166791288Y-110333938D01*
X166788867Y-110321769D01*
X166744552Y-110255448D01*
X166678231Y-110211133D01*
X166666062Y-110208712D01*
X166666061Y-110208712D01*
X166625816Y-110200707D01*
X166619748Y-110199500D01*
X166201500Y-110199500D01*
X166133379Y-110179498D01*
X166086886Y-110125842D01*
X166075500Y-110073500D01*
X166075500Y-108314806D01*
X166095502Y-108246685D01*
X166144689Y-108202340D01*
X166245334Y-108151500D01*
X166265610Y-108141258D01*
X166288601Y-108123296D01*
X166423101Y-108018213D01*
X166427951Y-108014424D01*
X166440913Y-107999408D01*
X166558540Y-107863134D01*
X166558540Y-107863133D01*
X166562564Y-107858472D01*
X166583387Y-107821818D01*
X166637742Y-107726135D01*
X166664323Y-107679344D01*
X166729351Y-107483863D01*
X166755171Y-107279474D01*
X166755583Y-107250000D01*
X166735480Y-107044970D01*
X166675935Y-106847749D01*
X166579218Y-106665849D01*
X166498863Y-106567324D01*
X166452906Y-106510975D01*
X166452903Y-106510972D01*
X166449011Y-106506200D01*
X166442167Y-106500538D01*
X166295025Y-106378811D01*
X166295021Y-106378809D01*
X166290275Y-106374882D01*
X166109055Y-106276897D01*
X166058183Y-106261150D01*
X165999025Y-106221899D01*
X165970477Y-106156895D01*
X165981605Y-106086776D01*
X166028876Y-106033804D01*
X166059235Y-106020099D01*
X166192255Y-105980191D01*
X166201842Y-105976433D01*
X166393095Y-105882739D01*
X166401945Y-105877464D01*
X166575328Y-105753792D01*
X166583200Y-105747139D01*
X166734052Y-105596812D01*
X166740730Y-105588965D01*
X166865003Y-105416020D01*
X166870313Y-105407183D01*
X166964670Y-105216267D01*
X166968469Y-105206672D01*
X167030377Y-105002910D01*
X167032555Y-104992837D01*
X167033986Y-104981962D01*
X167031775Y-104967778D01*
X167018617Y-104964000D01*
X165572000Y-104964000D01*
X165503879Y-104943998D01*
X165457386Y-104890342D01*
X165446000Y-104838000D01*
X165446000Y-104437885D01*
X165954000Y-104437885D01*
X165958475Y-104453124D01*
X165959865Y-104454329D01*
X165967548Y-104456000D01*
X167018344Y-104456000D01*
X167031875Y-104452027D01*
X167033180Y-104442947D01*
X166991214Y-104275875D01*
X166987894Y-104266124D01*
X166902972Y-104070814D01*
X166898105Y-104061739D01*
X166782426Y-103882926D01*
X166776136Y-103874757D01*
X166632806Y-103717240D01*
X166625273Y-103710215D01*
X166458139Y-103578222D01*
X166449552Y-103572517D01*
X166263117Y-103469599D01*
X166253705Y-103465369D01*
X166052959Y-103394280D01*
X166042988Y-103391646D01*
X165971837Y-103378972D01*
X165958540Y-103380432D01*
X165954000Y-103394989D01*
X165954000Y-104437885D01*
X165446000Y-104437885D01*
X165446000Y-103393102D01*
X165442082Y-103379758D01*
X165427806Y-103377771D01*
X165389324Y-103383660D01*
X165379288Y-103386051D01*
X165176868Y-103452212D01*
X165167359Y-103456209D01*
X164978463Y-103554542D01*
X164969738Y-103560036D01*
X164799433Y-103687905D01*
X164791726Y-103694748D01*
X164644590Y-103848717D01*
X164638104Y-103856727D01*
X164518098Y-104032649D01*
X164513000Y-104041623D01*
X164423338Y-104234783D01*
X164419775Y-104244470D01*
X164391012Y-104348185D01*
X164353533Y-104408483D01*
X164289405Y-104438946D01*
X164218986Y-104429903D01*
X164164636Y-104384224D01*
X164148973Y-104350933D01*
X164143982Y-104334402D01*
X164135935Y-104307749D01*
X164039218Y-104125849D01*
X163958775Y-104027216D01*
X163912906Y-103970975D01*
X163912903Y-103970972D01*
X163909011Y-103966200D01*
X163901716Y-103960165D01*
X163755025Y-103838811D01*
X163755021Y-103838809D01*
X163750275Y-103834882D01*
X163569055Y-103736897D01*
X163372254Y-103675977D01*
X163366129Y-103675333D01*
X163366128Y-103675333D01*
X163173498Y-103655087D01*
X163173496Y-103655087D01*
X163167369Y-103654443D01*
X163080529Y-103662346D01*
X162968342Y-103672555D01*
X162968339Y-103672556D01*
X162962203Y-103673114D01*
X162764572Y-103731280D01*
X162759108Y-103734137D01*
X162754781Y-103735885D01*
X162684128Y-103742860D01*
X162618482Y-103708156D01*
X161944111Y-103033785D01*
X161936684Y-103025681D01*
X161919541Y-103005251D01*
X161919542Y-103005251D01*
X161912455Y-102996806D01*
X161897230Y-102988016D01*
X161879815Y-102977961D01*
X161870544Y-102972055D01*
X161848715Y-102956770D01*
X161839684Y-102950446D01*
X161829034Y-102947592D01*
X161825866Y-102946115D01*
X161822590Y-102944923D01*
X161813045Y-102939412D01*
X161779301Y-102933462D01*
X161775942Y-102932870D01*
X161765215Y-102930492D01*
X161728807Y-102920736D01*
X161717822Y-102921697D01*
X161717820Y-102921697D01*
X161691272Y-102924020D01*
X161680290Y-102924500D01*
X157937016Y-102924500D01*
X157868895Y-102904498D01*
X157847921Y-102887595D01*
X156630138Y-101669812D01*
X176986294Y-101669812D01*
X176987458Y-101678714D01*
X176987458Y-101678717D01*
X176993820Y-101727366D01*
X177004883Y-101811968D01*
X177008500Y-101820188D01*
X177049758Y-101913953D01*
X177062623Y-101943192D01*
X177068400Y-101950065D01*
X177068401Y-101950066D01*
X177130614Y-102024077D01*
X177154873Y-102052937D01*
X177162350Y-102057914D01*
X177255728Y-102120072D01*
X177274216Y-102132379D01*
X177411060Y-102175131D01*
X177420032Y-102175296D01*
X177420035Y-102175296D01*
X177482121Y-102176434D01*
X177549864Y-102197682D01*
X177568906Y-102213318D01*
X178071246Y-102715659D01*
X178571809Y-103216222D01*
X178579235Y-103224325D01*
X178603459Y-103253194D01*
X178613002Y-103258704D01*
X178613006Y-103258707D01*
X178636093Y-103272036D01*
X178645363Y-103277941D01*
X178666716Y-103292892D01*
X178676230Y-103299554D01*
X178686878Y-103302407D01*
X178690049Y-103303886D01*
X178693325Y-103305078D01*
X178702869Y-103310588D01*
X178739990Y-103317134D01*
X178750697Y-103319508D01*
X178787107Y-103329263D01*
X178798082Y-103328303D01*
X178798084Y-103328303D01*
X178824645Y-103325979D01*
X178835626Y-103325500D01*
X179561036Y-103325500D01*
X179629157Y-103345502D01*
X179650409Y-103364198D01*
X179650503Y-103364093D01*
X179657190Y-103370072D01*
X179662970Y-103376948D01*
X179705151Y-103405026D01*
X179761761Y-103442709D01*
X179782313Y-103456390D01*
X179919157Y-103499142D01*
X179928129Y-103499306D01*
X179928132Y-103499307D01*
X179993463Y-103500504D01*
X180062499Y-103501770D01*
X180071533Y-103499307D01*
X180192158Y-103466421D01*
X180192160Y-103466420D01*
X180200817Y-103464060D01*
X180322991Y-103389045D01*
X180350002Y-103359204D01*
X180402703Y-103300980D01*
X180419200Y-103282754D01*
X180459451Y-103199675D01*
X180477795Y-103161814D01*
X180477795Y-103161813D01*
X180481710Y-103153733D01*
X180505496Y-103012354D01*
X180505647Y-103000000D01*
X180494433Y-102921697D01*
X180486596Y-102866968D01*
X180486595Y-102866965D01*
X180485323Y-102858082D01*
X180425984Y-102727572D01*
X180392017Y-102688151D01*
X180338260Y-102625763D01*
X180338257Y-102625760D01*
X180332400Y-102618963D01*
X180212095Y-102540985D01*
X180074739Y-102499907D01*
X180065763Y-102499852D01*
X180065762Y-102499852D01*
X180005555Y-102499484D01*
X179931376Y-102499031D01*
X179793529Y-102538428D01*
X179672280Y-102614930D01*
X179657287Y-102631907D01*
X179597203Y-102669725D01*
X179562845Y-102674500D01*
X179002932Y-102674500D01*
X178934811Y-102654498D01*
X178913837Y-102637596D01*
X178033859Y-101757619D01*
X177999834Y-101695306D01*
X177997515Y-101678813D01*
X177997550Y-101675989D01*
X177996859Y-101671161D01*
X177978499Y-101542957D01*
X177978498Y-101542954D01*
X177977226Y-101534071D01*
X177917887Y-101403561D01*
X177884722Y-101365071D01*
X177830163Y-101301752D01*
X177830160Y-101301749D01*
X177824303Y-101294952D01*
X177703998Y-101216974D01*
X177566642Y-101175896D01*
X177557666Y-101175841D01*
X177557665Y-101175841D01*
X177497458Y-101175473D01*
X177423279Y-101175020D01*
X177285432Y-101214417D01*
X177164183Y-101290919D01*
X177158241Y-101297647D01*
X177158240Y-101297648D01*
X177141034Y-101317130D01*
X177069280Y-101398377D01*
X177008350Y-101528152D01*
X177004880Y-101550439D01*
X176989535Y-101648997D01*
X176986294Y-101669812D01*
X156630138Y-101669812D01*
X152994111Y-98033785D01*
X152986684Y-98025681D01*
X152969541Y-98005251D01*
X152969542Y-98005251D01*
X152962455Y-97996806D01*
X152952906Y-97991293D01*
X152929815Y-97977961D01*
X152920544Y-97972055D01*
X152898715Y-97956770D01*
X152889684Y-97950446D01*
X152879034Y-97947592D01*
X152875866Y-97946115D01*
X152872590Y-97944923D01*
X152863045Y-97939412D01*
X152829301Y-97933462D01*
X152825942Y-97932870D01*
X152815215Y-97930492D01*
X152778807Y-97920736D01*
X152767822Y-97921697D01*
X152767820Y-97921697D01*
X152741272Y-97924020D01*
X152730290Y-97924500D01*
X147293454Y-97924500D01*
X147225333Y-97904498D01*
X147178840Y-97850842D01*
X147168736Y-97780568D01*
X147180012Y-97751172D01*
X147177223Y-97750017D01*
X147181974Y-97738547D01*
X147188867Y-97728231D01*
X147200500Y-97669748D01*
X147200500Y-96897646D01*
X147220502Y-96829525D01*
X147250935Y-96796820D01*
X147355724Y-96718285D01*
X147368285Y-96705724D01*
X147444786Y-96603649D01*
X147453324Y-96588054D01*
X147498478Y-96467606D01*
X147502105Y-96452351D01*
X147507631Y-96401486D01*
X147508000Y-96394672D01*
X147508000Y-96122115D01*
X147503525Y-96106876D01*
X147502135Y-96105671D01*
X147494452Y-96104000D01*
X145010116Y-96104000D01*
X144994877Y-96108475D01*
X144993672Y-96109865D01*
X144992001Y-96117548D01*
X144992001Y-96394669D01*
X144992371Y-96401490D01*
X144997895Y-96452352D01*
X145001521Y-96467604D01*
X145046676Y-96588054D01*
X145055214Y-96603649D01*
X145131715Y-96705724D01*
X145135396Y-96709405D01*
X145169422Y-96771717D01*
X145164357Y-96842532D01*
X145121810Y-96899368D01*
X145055290Y-96924179D01*
X145046301Y-96924500D01*
X143024105Y-96924500D01*
X143013123Y-96924020D01*
X142986575Y-96921697D01*
X142986573Y-96921697D01*
X142975588Y-96920736D01*
X142939180Y-96930492D01*
X142928453Y-96932870D01*
X142925094Y-96933462D01*
X142891350Y-96939412D01*
X142881803Y-96944924D01*
X142878525Y-96946117D01*
X142875360Y-96947593D01*
X142871422Y-96948648D01*
X142871417Y-96948633D01*
X142869261Y-96949104D01*
X142866674Y-96949920D01*
X142864711Y-96950446D01*
X142864623Y-96950118D01*
X142820622Y-96959731D01*
X142767192Y-96959405D01*
X142725651Y-96959151D01*
X142587804Y-96998548D01*
X142580213Y-97003337D01*
X142580214Y-97003337D01*
X142539475Y-97029041D01*
X142471190Y-97048475D01*
X142403238Y-97027905D01*
X142357194Y-96973864D01*
X142346240Y-96922479D01*
X142346240Y-95315925D01*
X142366242Y-95247804D01*
X142419898Y-95201311D01*
X142490172Y-95191207D01*
X142525627Y-95201939D01*
X142532313Y-95206390D01*
X142669157Y-95249142D01*
X142678129Y-95249306D01*
X142678132Y-95249307D01*
X142743463Y-95250504D01*
X142812499Y-95251770D01*
X142821533Y-95249307D01*
X142942158Y-95216421D01*
X142942160Y-95216420D01*
X142950817Y-95214060D01*
X143072991Y-95139045D01*
X143119479Y-95087686D01*
X143163178Y-95039407D01*
X143169200Y-95032754D01*
X143211820Y-94944786D01*
X143227795Y-94911814D01*
X143227795Y-94911813D01*
X143231710Y-94903733D01*
X143255496Y-94762354D01*
X143255572Y-94756136D01*
X143255588Y-94754859D01*
X143255588Y-94754854D01*
X143255647Y-94750000D01*
X143235323Y-94608082D01*
X143175984Y-94477572D01*
X143106047Y-94396406D01*
X143076733Y-94331745D01*
X143075500Y-94314159D01*
X143075500Y-94246362D01*
X144687966Y-94246362D01*
X144691400Y-94281388D01*
X144692001Y-94293684D01*
X144692001Y-94544669D01*
X144692371Y-94551490D01*
X144697895Y-94602352D01*
X144701521Y-94617604D01*
X144746676Y-94738054D01*
X144755214Y-94753649D01*
X144831715Y-94855724D01*
X144844276Y-94868285D01*
X144946351Y-94944786D01*
X144961946Y-94953324D01*
X144970391Y-94956490D01*
X145027155Y-94999132D01*
X145051855Y-95065694D01*
X145044143Y-95118701D01*
X145001522Y-95232391D01*
X144997895Y-95247649D01*
X144992369Y-95298514D01*
X144992000Y-95305328D01*
X144992000Y-95577885D01*
X144996475Y-95593124D01*
X144997865Y-95594329D01*
X145005548Y-95596000D01*
X147489884Y-95596000D01*
X147505123Y-95591525D01*
X147506328Y-95590135D01*
X147507999Y-95582452D01*
X147507999Y-95305331D01*
X147507629Y-95298510D01*
X147502105Y-95247648D01*
X147498479Y-95232396D01*
X147463265Y-95138463D01*
X147458082Y-95067655D01*
X147486023Y-95011720D01*
X147494329Y-95002135D01*
X147496000Y-94994452D01*
X147496000Y-94989884D01*
X148004000Y-94989884D01*
X148008475Y-95005123D01*
X148009865Y-95006328D01*
X148017548Y-95007999D01*
X148457625Y-95007999D01*
X148474291Y-95009106D01*
X148493712Y-95011698D01*
X148507707Y-95011991D01*
X148545860Y-95008518D01*
X148557281Y-95007999D01*
X149990958Y-95007999D01*
X150007623Y-95009106D01*
X150027045Y-95011698D01*
X150041040Y-95011991D01*
X150079195Y-95008518D01*
X150090615Y-95007999D01*
X150344669Y-95007999D01*
X150351490Y-95007629D01*
X150402352Y-95002105D01*
X150417604Y-94998479D01*
X150538054Y-94953324D01*
X150553649Y-94944786D01*
X150655724Y-94868285D01*
X150668285Y-94855724D01*
X150744786Y-94753649D01*
X150753324Y-94738054D01*
X150798478Y-94617606D01*
X150802105Y-94602351D01*
X150807631Y-94551486D01*
X150808000Y-94544672D01*
X150808000Y-94312123D01*
X150809226Y-94294587D01*
X150811948Y-94275222D01*
X150812554Y-94267338D01*
X150812741Y-94253962D01*
X150812354Y-94246062D01*
X150808785Y-94214241D01*
X150808000Y-94200196D01*
X150808000Y-92794669D01*
X180229501Y-92794669D01*
X180229871Y-92801490D01*
X180235395Y-92852352D01*
X180239021Y-92867604D01*
X180284176Y-92988054D01*
X180292714Y-93003649D01*
X180369215Y-93105724D01*
X180381776Y-93118285D01*
X180483851Y-93194786D01*
X180499446Y-93203324D01*
X180619894Y-93248478D01*
X180635149Y-93252105D01*
X180686014Y-93257631D01*
X180692828Y-93258000D01*
X182565385Y-93258000D01*
X182580624Y-93253525D01*
X182581829Y-93252135D01*
X182583500Y-93244452D01*
X182583500Y-92347115D01*
X182579025Y-92331876D01*
X182577635Y-92330671D01*
X182569952Y-92329000D01*
X180247616Y-92329000D01*
X180232377Y-92333475D01*
X180231172Y-92334865D01*
X180229501Y-92342548D01*
X180229501Y-92794669D01*
X150808000Y-92794669D01*
X150808000Y-92778790D01*
X150809226Y-92761254D01*
X150811948Y-92741888D01*
X150812554Y-92734005D01*
X150812741Y-92720614D01*
X150812356Y-92712743D01*
X150808785Y-92680906D01*
X150808000Y-92666862D01*
X150808000Y-92243823D01*
X151464891Y-92243823D01*
X151466055Y-92252725D01*
X151466055Y-92252728D01*
X151473449Y-92309270D01*
X151483480Y-92385979D01*
X151541220Y-92517203D01*
X151546997Y-92524076D01*
X151546998Y-92524077D01*
X151590365Y-92575668D01*
X151633470Y-92626948D01*
X151752813Y-92706390D01*
X151889657Y-92749142D01*
X151898629Y-92749306D01*
X151898632Y-92749307D01*
X151963963Y-92750504D01*
X152032999Y-92751770D01*
X152042033Y-92749307D01*
X152162658Y-92716421D01*
X152162660Y-92716420D01*
X152171317Y-92714060D01*
X152293491Y-92639045D01*
X152299936Y-92631925D01*
X152349620Y-92577034D01*
X152385247Y-92550743D01*
X152389684Y-92549554D01*
X152420544Y-92527945D01*
X152429815Y-92522039D01*
X152452906Y-92508707D01*
X152462455Y-92503194D01*
X152486685Y-92474317D01*
X152494111Y-92466215D01*
X153172562Y-91787764D01*
X153234874Y-91753738D01*
X153263964Y-91750880D01*
X153312499Y-91751770D01*
X153369691Y-91736178D01*
X153442158Y-91716421D01*
X153442160Y-91716420D01*
X153450817Y-91714060D01*
X153572991Y-91639045D01*
X153669200Y-91532754D01*
X153731710Y-91403733D01*
X153755496Y-91262354D01*
X153755647Y-91250000D01*
X153744807Y-91174307D01*
X153736596Y-91116968D01*
X153736595Y-91116965D01*
X153735323Y-91108082D01*
X153727842Y-91091627D01*
X153700513Y-91031522D01*
X153675984Y-90977572D01*
X153621957Y-90914871D01*
X153588260Y-90875763D01*
X153588257Y-90875760D01*
X153582400Y-90868963D01*
X153462095Y-90790985D01*
X153324739Y-90749907D01*
X153315763Y-90749852D01*
X153315762Y-90749852D01*
X153255555Y-90749484D01*
X153181376Y-90749031D01*
X153043529Y-90788428D01*
X152922280Y-90864930D01*
X152916338Y-90871658D01*
X152916337Y-90871659D01*
X152889964Y-90901521D01*
X152827377Y-90972388D01*
X152766447Y-91102163D01*
X152759567Y-91146351D01*
X152747009Y-91227009D01*
X152744391Y-91243823D01*
X152744729Y-91246409D01*
X152724838Y-91311215D01*
X152708774Y-91330900D01*
X152286638Y-91753036D01*
X152224326Y-91787062D01*
X152161442Y-91784658D01*
X152053844Y-91752480D01*
X152053841Y-91752480D01*
X152045239Y-91749907D01*
X152036263Y-91749852D01*
X152036262Y-91749852D01*
X151976055Y-91749484D01*
X151901876Y-91749031D01*
X151764029Y-91788428D01*
X151642780Y-91864930D01*
X151636838Y-91871658D01*
X151636837Y-91871659D01*
X151617335Y-91893741D01*
X151547877Y-91972388D01*
X151486947Y-92102163D01*
X151485566Y-92111035D01*
X151468271Y-92222115D01*
X151464891Y-92243823D01*
X150808000Y-92243823D01*
X150808000Y-92222115D01*
X150803525Y-92206876D01*
X150802135Y-92205671D01*
X150794452Y-92204000D01*
X150683990Y-92204000D01*
X150672965Y-92207237D01*
X150676204Y-92214330D01*
X150701952Y-92240078D01*
X150735978Y-92302390D01*
X150730913Y-92373205D01*
X150701952Y-92418268D01*
X150139095Y-92981125D01*
X150076783Y-93015151D01*
X150005968Y-93010086D01*
X149960905Y-92981125D01*
X149398048Y-92418268D01*
X149364022Y-92355956D01*
X149369087Y-92285141D01*
X149398048Y-92240078D01*
X149421315Y-92216811D01*
X149426542Y-92207237D01*
X149897976Y-92207237D01*
X149901214Y-92214328D01*
X150037188Y-92350302D01*
X150051132Y-92357916D01*
X150052965Y-92357785D01*
X150059580Y-92353534D01*
X150196302Y-92216812D01*
X150201811Y-92206723D01*
X150194510Y-92204000D01*
X149909001Y-92204000D01*
X149897976Y-92207237D01*
X149426542Y-92207237D01*
X149426823Y-92206723D01*
X149419521Y-92204000D01*
X149150657Y-92204000D01*
X149139632Y-92207237D01*
X149142871Y-92214330D01*
X149168619Y-92240078D01*
X149202645Y-92302390D01*
X149197580Y-92373205D01*
X149168619Y-92418268D01*
X148218268Y-93368619D01*
X148155956Y-93402645D01*
X148085141Y-93397580D01*
X148040078Y-93368619D01*
X148016811Y-93345352D01*
X148006723Y-93339844D01*
X148004000Y-93347146D01*
X148004000Y-93616010D01*
X148007237Y-93627035D01*
X148014330Y-93623796D01*
X148040078Y-93598048D01*
X148102390Y-93564022D01*
X148173205Y-93569087D01*
X148218268Y-93598048D01*
X148781125Y-94160905D01*
X148815151Y-94223217D01*
X148810086Y-94294032D01*
X148781125Y-94339095D01*
X148218268Y-94901952D01*
X148155956Y-94935978D01*
X148085141Y-94930913D01*
X148040078Y-94901952D01*
X148016811Y-94878685D01*
X148006723Y-94873177D01*
X148004000Y-94880479D01*
X148004000Y-94989884D01*
X147496000Y-94989884D01*
X147496000Y-94883990D01*
X147492763Y-94872965D01*
X147485670Y-94876204D01*
X147459922Y-94901952D01*
X147397610Y-94935978D01*
X147326795Y-94930913D01*
X147281732Y-94901952D01*
X146996145Y-94616365D01*
X146982201Y-94608751D01*
X146980368Y-94608882D01*
X146973753Y-94613133D01*
X146684934Y-94901952D01*
X146622622Y-94935978D01*
X146551807Y-94930913D01*
X146506744Y-94901952D01*
X146331381Y-94726589D01*
X146297355Y-94664277D01*
X146302420Y-94593462D01*
X146331381Y-94548399D01*
X146628648Y-94251132D01*
X147342084Y-94251132D01*
X147342215Y-94252965D01*
X147346466Y-94259580D01*
X147483188Y-94396302D01*
X147493277Y-94401811D01*
X147496000Y-94394510D01*
X147496000Y-94390999D01*
X148004000Y-94390999D01*
X148007237Y-94402024D01*
X148014328Y-94398786D01*
X148150302Y-94262812D01*
X148157916Y-94248868D01*
X148157785Y-94247035D01*
X148153534Y-94240420D01*
X148016812Y-94103698D01*
X148006723Y-94098189D01*
X148004000Y-94105490D01*
X148004000Y-94390999D01*
X147496000Y-94390999D01*
X147496000Y-94109001D01*
X147492763Y-94097976D01*
X147485672Y-94101214D01*
X147349698Y-94237188D01*
X147342084Y-94251132D01*
X146628648Y-94251132D01*
X147281732Y-93598048D01*
X147344044Y-93564022D01*
X147414859Y-93569087D01*
X147459922Y-93598048D01*
X147483189Y-93621315D01*
X147493277Y-93626823D01*
X147496000Y-93619521D01*
X147496000Y-93350657D01*
X147492763Y-93339632D01*
X147485670Y-93342871D01*
X147459922Y-93368619D01*
X147397610Y-93402645D01*
X147326795Y-93397580D01*
X147281732Y-93368619D01*
X146630912Y-92717799D01*
X147342084Y-92717799D01*
X147342215Y-92719632D01*
X147346466Y-92726247D01*
X147483188Y-92862969D01*
X147493277Y-92868478D01*
X147496000Y-92861177D01*
X147496000Y-92857666D01*
X148004000Y-92857666D01*
X148007237Y-92868691D01*
X148014328Y-92865453D01*
X148150302Y-92729479D01*
X148157916Y-92715535D01*
X148157785Y-92713702D01*
X148153534Y-92707087D01*
X148016812Y-92570365D01*
X148006723Y-92564856D01*
X148004000Y-92572157D01*
X148004000Y-92857666D01*
X147496000Y-92857666D01*
X147496000Y-92575668D01*
X147492763Y-92564643D01*
X147485672Y-92567881D01*
X147349698Y-92703855D01*
X147342084Y-92717799D01*
X146630912Y-92717799D01*
X146331381Y-92418268D01*
X146297355Y-92355956D01*
X146302420Y-92285141D01*
X146331381Y-92240078D01*
X146354648Y-92216811D01*
X146359875Y-92207237D01*
X146831309Y-92207237D01*
X146834547Y-92214328D01*
X146970521Y-92350302D01*
X146984465Y-92357916D01*
X146986298Y-92357785D01*
X146992913Y-92353534D01*
X147129635Y-92216812D01*
X147134863Y-92207237D01*
X148364643Y-92207237D01*
X148367881Y-92214328D01*
X148503855Y-92350302D01*
X148517799Y-92357916D01*
X148519632Y-92357785D01*
X148526247Y-92353534D01*
X148662969Y-92216812D01*
X148668478Y-92206723D01*
X148661177Y-92204000D01*
X148375668Y-92204000D01*
X148364643Y-92207237D01*
X147134863Y-92207237D01*
X147135144Y-92206723D01*
X147127843Y-92204000D01*
X146842334Y-92204000D01*
X146831309Y-92207237D01*
X146359875Y-92207237D01*
X146360156Y-92206723D01*
X146352854Y-92204000D01*
X146083990Y-92204000D01*
X146072965Y-92207237D01*
X146076204Y-92214330D01*
X146101952Y-92240078D01*
X146135978Y-92302390D01*
X146130913Y-92373205D01*
X146101952Y-92418268D01*
X145539095Y-92981125D01*
X145476783Y-93015151D01*
X145405968Y-93010086D01*
X145360905Y-92981125D01*
X144798048Y-92418268D01*
X144764022Y-92355956D01*
X144769087Y-92285141D01*
X144798048Y-92240078D01*
X144821315Y-92216811D01*
X144826542Y-92207237D01*
X145297976Y-92207237D01*
X145301214Y-92214328D01*
X145437188Y-92350302D01*
X145451132Y-92357916D01*
X145452965Y-92357785D01*
X145459580Y-92353534D01*
X145596302Y-92216812D01*
X145601811Y-92206723D01*
X145594510Y-92204000D01*
X145309001Y-92204000D01*
X145297976Y-92207237D01*
X144826542Y-92207237D01*
X144826823Y-92206723D01*
X144819521Y-92204000D01*
X144710116Y-92204000D01*
X144694877Y-92208475D01*
X144693672Y-92209865D01*
X144692001Y-92217548D01*
X144692001Y-92660709D01*
X144691007Y-92676503D01*
X144688162Y-92699025D01*
X144687966Y-92713029D01*
X144691400Y-92748052D01*
X144692001Y-92760349D01*
X144692001Y-94194040D01*
X144691007Y-94209833D01*
X144688162Y-94232356D01*
X144687966Y-94246362D01*
X143075500Y-94246362D01*
X143075500Y-91179693D01*
X144687965Y-91179693D01*
X144691399Y-91214714D01*
X144692000Y-91227009D01*
X144692000Y-91677885D01*
X144696475Y-91693124D01*
X144697865Y-91694329D01*
X144705548Y-91696000D01*
X144816010Y-91696000D01*
X144825284Y-91693277D01*
X145298189Y-91693277D01*
X145305490Y-91696000D01*
X145590999Y-91696000D01*
X145602024Y-91692763D01*
X145598786Y-91685672D01*
X145462812Y-91549698D01*
X145448868Y-91542084D01*
X145447035Y-91542215D01*
X145440420Y-91546466D01*
X145303698Y-91683188D01*
X145298189Y-91693277D01*
X144825284Y-91693277D01*
X144827035Y-91692763D01*
X144823796Y-91685670D01*
X144798048Y-91659922D01*
X144764022Y-91597610D01*
X144769087Y-91526795D01*
X144798048Y-91481732D01*
X145360905Y-90918875D01*
X145423217Y-90884849D01*
X145494032Y-90889914D01*
X145539095Y-90918875D01*
X146101952Y-91481732D01*
X146135978Y-91544044D01*
X146130913Y-91614859D01*
X146101952Y-91659922D01*
X146078685Y-91683189D01*
X146073177Y-91693277D01*
X146080479Y-91696000D01*
X146349343Y-91696000D01*
X146358617Y-91693277D01*
X146831522Y-91693277D01*
X146838823Y-91696000D01*
X147124332Y-91696000D01*
X147133606Y-91693277D01*
X148364856Y-91693277D01*
X148372157Y-91696000D01*
X148657666Y-91696000D01*
X148668691Y-91692763D01*
X148665453Y-91685672D01*
X148529479Y-91549698D01*
X148515535Y-91542084D01*
X148513702Y-91542215D01*
X148507087Y-91546466D01*
X148370365Y-91683188D01*
X148364856Y-91693277D01*
X147133606Y-91693277D01*
X147135357Y-91692763D01*
X147132119Y-91685672D01*
X146996145Y-91549698D01*
X146982201Y-91542084D01*
X146980368Y-91542215D01*
X146973753Y-91546466D01*
X146837031Y-91683188D01*
X146831522Y-91693277D01*
X146358617Y-91693277D01*
X146360368Y-91692763D01*
X146357129Y-91685670D01*
X146331381Y-91659922D01*
X146297355Y-91597610D01*
X146302420Y-91526795D01*
X146331381Y-91481732D01*
X146628648Y-91184465D01*
X147342084Y-91184465D01*
X147342215Y-91186298D01*
X147346466Y-91192913D01*
X147483188Y-91329635D01*
X147493277Y-91335144D01*
X147496000Y-91327843D01*
X147496000Y-91324332D01*
X148004000Y-91324332D01*
X148007237Y-91335357D01*
X148014328Y-91332119D01*
X148150302Y-91196145D01*
X148157916Y-91182201D01*
X148157785Y-91180368D01*
X148153534Y-91173753D01*
X148016812Y-91037031D01*
X148006723Y-91031522D01*
X148004000Y-91038823D01*
X148004000Y-91324332D01*
X147496000Y-91324332D01*
X147496000Y-91042334D01*
X147492763Y-91031309D01*
X147485672Y-91034547D01*
X147349698Y-91170521D01*
X147342084Y-91184465D01*
X146628648Y-91184465D01*
X147281732Y-90531381D01*
X147344044Y-90497355D01*
X147414859Y-90502420D01*
X147459922Y-90531381D01*
X147483189Y-90554648D01*
X147493277Y-90560156D01*
X147496000Y-90552854D01*
X147496000Y-90549343D01*
X148004000Y-90549343D01*
X148007237Y-90560368D01*
X148014330Y-90557129D01*
X148040078Y-90531381D01*
X148102390Y-90497355D01*
X148173205Y-90502420D01*
X148218268Y-90531381D01*
X149168619Y-91481732D01*
X149202645Y-91544044D01*
X149197580Y-91614859D01*
X149168619Y-91659922D01*
X149145352Y-91683189D01*
X149139844Y-91693277D01*
X149147146Y-91696000D01*
X149416010Y-91696000D01*
X149425284Y-91693277D01*
X149898189Y-91693277D01*
X149905490Y-91696000D01*
X150190999Y-91696000D01*
X150202024Y-91692763D01*
X150198786Y-91685672D01*
X150062812Y-91549698D01*
X150048868Y-91542084D01*
X150047035Y-91542215D01*
X150040420Y-91546466D01*
X149903698Y-91683188D01*
X149898189Y-91693277D01*
X149425284Y-91693277D01*
X149427035Y-91692763D01*
X149423796Y-91685670D01*
X149398048Y-91659922D01*
X149364022Y-91597610D01*
X149369087Y-91526795D01*
X149398048Y-91481732D01*
X149960905Y-90918875D01*
X150023217Y-90884849D01*
X150094032Y-90889914D01*
X150139095Y-90918875D01*
X150701952Y-91481732D01*
X150735978Y-91544044D01*
X150730913Y-91614859D01*
X150701952Y-91659922D01*
X150678685Y-91683189D01*
X150673177Y-91693277D01*
X150680479Y-91696000D01*
X150789884Y-91696000D01*
X150805123Y-91691525D01*
X150806328Y-91690135D01*
X150807999Y-91682452D01*
X150807999Y-91245463D01*
X150809226Y-91227925D01*
X150811947Y-91208565D01*
X150812554Y-91200674D01*
X150812741Y-91187295D01*
X150812354Y-91179396D01*
X150808784Y-91147568D01*
X150807999Y-91133522D01*
X150807999Y-89712130D01*
X150809225Y-89694594D01*
X150811948Y-89675221D01*
X150812554Y-89667338D01*
X150812741Y-89653962D01*
X150812354Y-89646062D01*
X150808784Y-89614232D01*
X150807999Y-89600187D01*
X150807999Y-89355331D01*
X150807629Y-89348510D01*
X150802105Y-89297648D01*
X150798479Y-89282396D01*
X150753324Y-89161946D01*
X150744786Y-89146351D01*
X150668285Y-89044276D01*
X150655724Y-89031715D01*
X150605165Y-88993823D01*
X156244391Y-88993823D01*
X156262980Y-89135979D01*
X156320720Y-89267203D01*
X156326497Y-89274076D01*
X156326498Y-89274077D01*
X156394799Y-89355331D01*
X156412970Y-89376948D01*
X156532313Y-89456390D01*
X156586075Y-89473186D01*
X156645130Y-89512590D01*
X156673507Y-89577668D01*
X156674500Y-89593452D01*
X156674500Y-91064742D01*
X156654498Y-91132863D01*
X156642942Y-91148149D01*
X156632053Y-91160479D01*
X156577377Y-91222388D01*
X156516447Y-91352163D01*
X156511182Y-91385979D01*
X156496274Y-91481732D01*
X156494391Y-91493823D01*
X156495555Y-91502725D01*
X156495555Y-91502728D01*
X156499482Y-91532754D01*
X156512980Y-91635979D01*
X156533753Y-91683189D01*
X156563110Y-91749907D01*
X156570720Y-91767203D01*
X156576497Y-91774076D01*
X156576498Y-91774077D01*
X156621815Y-91827988D01*
X156662970Y-91876948D01*
X156782313Y-91956390D01*
X156919157Y-91999142D01*
X156928129Y-91999306D01*
X156928132Y-91999307D01*
X156993463Y-92000504D01*
X157062499Y-92001770D01*
X157071533Y-91999307D01*
X157192158Y-91966421D01*
X157192160Y-91966420D01*
X157200817Y-91964060D01*
X157322991Y-91889045D01*
X157400978Y-91802885D01*
X180229500Y-91802885D01*
X180233975Y-91818124D01*
X180235365Y-91819329D01*
X180243048Y-91821000D01*
X182565385Y-91821000D01*
X182580624Y-91816525D01*
X182581829Y-91815135D01*
X182583500Y-91807452D01*
X182583500Y-90910116D01*
X182579025Y-90894877D01*
X182577635Y-90893672D01*
X182569952Y-90892001D01*
X180692831Y-90892001D01*
X180686010Y-90892371D01*
X180635148Y-90897895D01*
X180619896Y-90901521D01*
X180499446Y-90946676D01*
X180483851Y-90955214D01*
X180381776Y-91031715D01*
X180369215Y-91044276D01*
X180292714Y-91146351D01*
X180284176Y-91161946D01*
X180239022Y-91282394D01*
X180235395Y-91297649D01*
X180229869Y-91348514D01*
X180229500Y-91355328D01*
X180229500Y-91802885D01*
X157400978Y-91802885D01*
X157419200Y-91782754D01*
X157461232Y-91696000D01*
X157477795Y-91661814D01*
X157477795Y-91661813D01*
X157481710Y-91653733D01*
X157505496Y-91512354D01*
X157505647Y-91500000D01*
X157490593Y-91394881D01*
X157486596Y-91366968D01*
X157486595Y-91366965D01*
X157485323Y-91358082D01*
X157425984Y-91227572D01*
X157356047Y-91146406D01*
X157326733Y-91081745D01*
X157325500Y-91064159D01*
X157325500Y-89269710D01*
X157325980Y-89258728D01*
X157328303Y-89232175D01*
X157328303Y-89232170D01*
X157329263Y-89221193D01*
X157319512Y-89184803D01*
X157317132Y-89174069D01*
X157313303Y-89152352D01*
X157310588Y-89136955D01*
X157305076Y-89127407D01*
X157303883Y-89124130D01*
X157302406Y-89120962D01*
X157299553Y-89110316D01*
X157278348Y-89080031D01*
X157256639Y-89009683D01*
X157255905Y-89009731D01*
X157255705Y-89006656D01*
X157255571Y-89006223D01*
X157255588Y-89004860D01*
X157255588Y-89004855D01*
X157255647Y-89000000D01*
X157241025Y-88897895D01*
X157236596Y-88866968D01*
X157236595Y-88866965D01*
X157235323Y-88858082D01*
X157207261Y-88796362D01*
X163937966Y-88796362D01*
X163941400Y-88831387D01*
X163942001Y-88843683D01*
X163942001Y-89094669D01*
X163942371Y-89101490D01*
X163947895Y-89152352D01*
X163951521Y-89167604D01*
X163996676Y-89288054D01*
X164005214Y-89303649D01*
X164081715Y-89405724D01*
X164094276Y-89418285D01*
X164196351Y-89494786D01*
X164211946Y-89503324D01*
X164332394Y-89548478D01*
X164347649Y-89552105D01*
X164398514Y-89557631D01*
X164405328Y-89558000D01*
X164640964Y-89558000D01*
X164657628Y-89559107D01*
X164677043Y-89561697D01*
X164691040Y-89561991D01*
X164729187Y-89558519D01*
X164740607Y-89558000D01*
X164977885Y-89558000D01*
X164993124Y-89553525D01*
X164994329Y-89552135D01*
X164996000Y-89544452D01*
X164996000Y-89539884D01*
X165504000Y-89539884D01*
X165508475Y-89555123D01*
X165509865Y-89556328D01*
X165517548Y-89557999D01*
X165740957Y-89557999D01*
X165757622Y-89559106D01*
X165777044Y-89561698D01*
X165791040Y-89561991D01*
X165829195Y-89558518D01*
X165840615Y-89557999D01*
X166094669Y-89557999D01*
X166101490Y-89557629D01*
X166152352Y-89552105D01*
X166167604Y-89548479D01*
X166288054Y-89503324D01*
X166303649Y-89494786D01*
X166405724Y-89418285D01*
X166418285Y-89405724D01*
X166494786Y-89303649D01*
X166503324Y-89288054D01*
X166548478Y-89167606D01*
X166552105Y-89152351D01*
X166557631Y-89101486D01*
X166558000Y-89094672D01*
X166558000Y-88862124D01*
X166559226Y-88844588D01*
X166561948Y-88825222D01*
X166562554Y-88817338D01*
X166562741Y-88803962D01*
X166562354Y-88796062D01*
X166558785Y-88764240D01*
X166558000Y-88750195D01*
X166558000Y-88522115D01*
X166553525Y-88506876D01*
X166552135Y-88505671D01*
X166544452Y-88504000D01*
X166467668Y-88504000D01*
X166442023Y-88511530D01*
X165516812Y-89436741D01*
X165504000Y-89460203D01*
X165504000Y-89539884D01*
X164996000Y-89539884D01*
X164996000Y-89467668D01*
X164988470Y-89442023D01*
X164063259Y-88516812D01*
X164039797Y-88504000D01*
X163960116Y-88504000D01*
X163944877Y-88508475D01*
X163943672Y-88509865D01*
X163942001Y-88517548D01*
X163942001Y-88744041D01*
X163941007Y-88759834D01*
X163938162Y-88782356D01*
X163937966Y-88796362D01*
X157207261Y-88796362D01*
X157175984Y-88727572D01*
X157157598Y-88706234D01*
X157088260Y-88625763D01*
X157088257Y-88625760D01*
X157082400Y-88618963D01*
X156962095Y-88540985D01*
X156824739Y-88499907D01*
X156815763Y-88499852D01*
X156815762Y-88499852D01*
X156755555Y-88499484D01*
X156681376Y-88499031D01*
X156543529Y-88538428D01*
X156422280Y-88614930D01*
X156327377Y-88722388D01*
X156266447Y-88852163D01*
X156260382Y-88891115D01*
X156251732Y-88946676D01*
X156244391Y-88993823D01*
X150605165Y-88993823D01*
X150553649Y-88955214D01*
X150538054Y-88946676D01*
X150417606Y-88901522D01*
X150402351Y-88897895D01*
X150351486Y-88892369D01*
X150344672Y-88892000D01*
X150102876Y-88892000D01*
X150087958Y-88891114D01*
X150062319Y-88888057D01*
X150048321Y-88887959D01*
X150016438Y-88891310D01*
X150003268Y-88892000D01*
X148569543Y-88892000D01*
X148554625Y-88891114D01*
X148528984Y-88888057D01*
X148514987Y-88887959D01*
X148483103Y-88891310D01*
X148469934Y-88892000D01*
X148022115Y-88892000D01*
X148006876Y-88896475D01*
X148005671Y-88897865D01*
X148004000Y-88905548D01*
X148004000Y-89016010D01*
X148007237Y-89027035D01*
X148014330Y-89023796D01*
X148040078Y-88998048D01*
X148102390Y-88964022D01*
X148173205Y-88969087D01*
X148218268Y-88998048D01*
X148781125Y-89560905D01*
X148815151Y-89623217D01*
X148810086Y-89694032D01*
X148781125Y-89739095D01*
X148218268Y-90301952D01*
X148155956Y-90335978D01*
X148085141Y-90330913D01*
X148040078Y-90301952D01*
X148016811Y-90278685D01*
X148006723Y-90273177D01*
X148004000Y-90280479D01*
X148004000Y-90549343D01*
X147496000Y-90549343D01*
X147496000Y-90283990D01*
X147492763Y-90272965D01*
X147485670Y-90276204D01*
X147459922Y-90301952D01*
X147397610Y-90335978D01*
X147326795Y-90330913D01*
X147281732Y-90301952D01*
X146718875Y-89739095D01*
X146684849Y-89676783D01*
X146686684Y-89651132D01*
X147342084Y-89651132D01*
X147342215Y-89652965D01*
X147346466Y-89659580D01*
X147483188Y-89796302D01*
X147493277Y-89801811D01*
X147496000Y-89794510D01*
X147496000Y-89790999D01*
X148004000Y-89790999D01*
X148007237Y-89802024D01*
X148014328Y-89798786D01*
X148150302Y-89662812D01*
X148157916Y-89648868D01*
X148157785Y-89647035D01*
X148153534Y-89640420D01*
X148016812Y-89503698D01*
X148006723Y-89498189D01*
X148004000Y-89505490D01*
X148004000Y-89790999D01*
X147496000Y-89790999D01*
X147496000Y-89509001D01*
X147492763Y-89497976D01*
X147485672Y-89501214D01*
X147349698Y-89637188D01*
X147342084Y-89651132D01*
X146686684Y-89651132D01*
X146689914Y-89605968D01*
X146718875Y-89560905D01*
X147281732Y-88998048D01*
X147344044Y-88964022D01*
X147414859Y-88969087D01*
X147459922Y-88998048D01*
X147483189Y-89021315D01*
X147493277Y-89026823D01*
X147496000Y-89019521D01*
X147496000Y-88910116D01*
X147491525Y-88894877D01*
X147490135Y-88893672D01*
X147482452Y-88892001D01*
X147036215Y-88892001D01*
X147021295Y-88891115D01*
X146995650Y-88888057D01*
X146981654Y-88887959D01*
X146949765Y-88891311D01*
X146936594Y-88892001D01*
X145502884Y-88892001D01*
X145487965Y-88891115D01*
X145462318Y-88888057D01*
X145448321Y-88887959D01*
X145416429Y-88891311D01*
X145403259Y-88892001D01*
X145155331Y-88892001D01*
X145148510Y-88892371D01*
X145097648Y-88897895D01*
X145082396Y-88901521D01*
X144961946Y-88946676D01*
X144946351Y-88955214D01*
X144844276Y-89031715D01*
X144831715Y-89044276D01*
X144755214Y-89146351D01*
X144746676Y-89161946D01*
X144701522Y-89282394D01*
X144697895Y-89297649D01*
X144692369Y-89348514D01*
X144692000Y-89355328D01*
X144692000Y-89594048D01*
X144691006Y-89609840D01*
X144688162Y-89632356D01*
X144687966Y-89646363D01*
X144691399Y-89681379D01*
X144692000Y-89693675D01*
X144692000Y-91127372D01*
X144691007Y-91143163D01*
X144688161Y-91165696D01*
X144687965Y-91179693D01*
X143075500Y-91179693D01*
X143075500Y-90269710D01*
X143075980Y-90258728D01*
X143078303Y-90232175D01*
X143078303Y-90232170D01*
X143079263Y-90221193D01*
X143069512Y-90184803D01*
X143067132Y-90174069D01*
X143062502Y-90147812D01*
X143060588Y-90136955D01*
X143055076Y-90127407D01*
X143053883Y-90124130D01*
X143052406Y-90120962D01*
X143049553Y-90110316D01*
X143028348Y-90080031D01*
X143006639Y-90009683D01*
X143005905Y-90009731D01*
X143005705Y-90006656D01*
X143005571Y-90006223D01*
X143005588Y-90004860D01*
X143005588Y-90004855D01*
X143005647Y-90000000D01*
X142985323Y-89858082D01*
X142925984Y-89727572D01*
X142894362Y-89690873D01*
X142838260Y-89625763D01*
X142838257Y-89625760D01*
X142832400Y-89618963D01*
X142712095Y-89540985D01*
X142574739Y-89499907D01*
X142565763Y-89499852D01*
X142565762Y-89499852D01*
X142505555Y-89499484D01*
X142431376Y-89499031D01*
X142293529Y-89538428D01*
X142172280Y-89614930D01*
X142166338Y-89621658D01*
X142166337Y-89621659D01*
X142143926Y-89647035D01*
X142077377Y-89722388D01*
X142016447Y-89852163D01*
X141994391Y-89993823D01*
X142012980Y-90135979D01*
X142016597Y-90144199D01*
X142046530Y-90212226D01*
X142070720Y-90267203D01*
X142076497Y-90274076D01*
X142076498Y-90274077D01*
X142084831Y-90283990D01*
X142162970Y-90376948D01*
X142185328Y-90391831D01*
X142244198Y-90431018D01*
X142282313Y-90456390D01*
X142336075Y-90473186D01*
X142395130Y-90512590D01*
X142423507Y-90577668D01*
X142424500Y-90593452D01*
X142424500Y-91960223D01*
X142404498Y-92028344D01*
X142350842Y-92074837D01*
X142280568Y-92084941D01*
X142215988Y-92055447D01*
X142209405Y-92049318D01*
X141224091Y-91064004D01*
X141198485Y-91027061D01*
X141197927Y-91025834D01*
X141175984Y-90977572D01*
X141121957Y-90914871D01*
X141088260Y-90875763D01*
X141088257Y-90875760D01*
X141082400Y-90868963D01*
X140962095Y-90790985D01*
X140824739Y-90749907D01*
X140815763Y-90749852D01*
X140815762Y-90749852D01*
X140755555Y-90749484D01*
X140681376Y-90749031D01*
X140543529Y-90788428D01*
X140422280Y-90864930D01*
X140416338Y-90871658D01*
X140416337Y-90871659D01*
X140389964Y-90901521D01*
X140327377Y-90972388D01*
X140266447Y-91102163D01*
X140259567Y-91146351D01*
X140247009Y-91227009D01*
X140244391Y-91243823D01*
X140245555Y-91252725D01*
X140245555Y-91252728D01*
X140253686Y-91314901D01*
X140262980Y-91385979D01*
X140266597Y-91394199D01*
X140315289Y-91504859D01*
X140320720Y-91517203D01*
X140326497Y-91524076D01*
X140326498Y-91524077D01*
X140341745Y-91542215D01*
X140412970Y-91626948D01*
X140420447Y-91631925D01*
X140511842Y-91692763D01*
X140532313Y-91706390D01*
X140540888Y-91709069D01*
X140587093Y-91723504D01*
X140646150Y-91762909D01*
X140674528Y-91827988D01*
X140663216Y-91898078D01*
X140633218Y-91937079D01*
X140629778Y-91939250D01*
X140534875Y-92046708D01*
X140473945Y-92176483D01*
X140472564Y-92185355D01*
X140454342Y-92302390D01*
X140451889Y-92318143D01*
X140452227Y-92320727D01*
X140432335Y-92385533D01*
X140416273Y-92405218D01*
X140033778Y-92787714D01*
X140025674Y-92795140D01*
X139996806Y-92819363D01*
X139991293Y-92828912D01*
X139977961Y-92852003D01*
X139972055Y-92861274D01*
X139950446Y-92892134D01*
X139947592Y-92902784D01*
X139946115Y-92905952D01*
X139944923Y-92909228D01*
X139939412Y-92918773D01*
X139936556Y-92934973D01*
X139932870Y-92955876D01*
X139930492Y-92966603D01*
X139920736Y-93003011D01*
X139921697Y-93013996D01*
X139921697Y-93013998D01*
X139924020Y-93040546D01*
X139924500Y-93051528D01*
X139924500Y-97932795D01*
X139904498Y-98000916D01*
X139865735Y-98039357D01*
X139797780Y-98082233D01*
X139702877Y-98189691D01*
X139641947Y-98319466D01*
X139619891Y-98461126D01*
X139621055Y-98470028D01*
X139621055Y-98470031D01*
X139628741Y-98528807D01*
X139638480Y-98603282D01*
X139696220Y-98734506D01*
X139701997Y-98741379D01*
X139701998Y-98741380D01*
X139709292Y-98750057D01*
X139788470Y-98844251D01*
X139907813Y-98923693D01*
X140044657Y-98966445D01*
X140053629Y-98966609D01*
X140053632Y-98966610D01*
X140118963Y-98967807D01*
X140187999Y-98969073D01*
X140197033Y-98966610D01*
X140317658Y-98933724D01*
X140317660Y-98933723D01*
X140326317Y-98931363D01*
X140448491Y-98856348D01*
X140544700Y-98750057D01*
X140607210Y-98621036D01*
X140630996Y-98479657D01*
X140631147Y-98467303D01*
X140610823Y-98325385D01*
X140586799Y-98272547D01*
X140575500Y-98220396D01*
X140575500Y-93218835D01*
X140595502Y-93150714D01*
X140612405Y-93129740D01*
X140880061Y-92862084D01*
X140942373Y-92828058D01*
X140971475Y-92825201D01*
X140976946Y-92825301D01*
X140978525Y-92825330D01*
X141046265Y-92846586D01*
X141091760Y-92901091D01*
X141101135Y-92934966D01*
X141103008Y-92949289D01*
X141125981Y-93001498D01*
X141160748Y-93080513D01*
X141158824Y-93081360D01*
X141174500Y-93136209D01*
X141174500Y-100064742D01*
X141154498Y-100132863D01*
X141142942Y-100148149D01*
X141077377Y-100222388D01*
X141016447Y-100352163D01*
X141013134Y-100373442D01*
X140995947Y-100483830D01*
X140994391Y-100493823D01*
X141012980Y-100635979D01*
X141015154Y-100640920D01*
X141014231Y-100710109D01*
X140975053Y-100769318D01*
X140910085Y-100797947D01*
X140893819Y-100799001D01*
X137561517Y-100799001D01*
X137493396Y-100778999D01*
X137472422Y-100762096D01*
X135112405Y-98402079D01*
X135078379Y-98339767D01*
X135075500Y-98312984D01*
X135075500Y-93934829D01*
X135095502Y-93866708D01*
X135108085Y-93850274D01*
X135163176Y-93789411D01*
X135163181Y-93789404D01*
X135169200Y-93782754D01*
X135231710Y-93653733D01*
X135255496Y-93512354D01*
X135255647Y-93500000D01*
X135242079Y-93405257D01*
X135236596Y-93366968D01*
X135236595Y-93366965D01*
X135235323Y-93358082D01*
X135175984Y-93227572D01*
X135157598Y-93206234D01*
X135088260Y-93125763D01*
X135088257Y-93125760D01*
X135082400Y-93118963D01*
X134962095Y-93040985D01*
X134824739Y-92999907D01*
X134815763Y-92999852D01*
X134815762Y-92999852D01*
X134755555Y-92999484D01*
X134681376Y-92999031D01*
X134543529Y-93038428D01*
X134422280Y-93114930D01*
X134327377Y-93222388D01*
X134266447Y-93352163D01*
X134244391Y-93493823D01*
X133466503Y-93493823D01*
X139716503Y-87243823D01*
X140494391Y-87243823D01*
X140495555Y-87252725D01*
X140495555Y-87252728D01*
X140496814Y-87262354D01*
X140512980Y-87385979D01*
X140570720Y-87517203D01*
X140576497Y-87524076D01*
X140576498Y-87524077D01*
X140657190Y-87620072D01*
X140662970Y-87626948D01*
X140670447Y-87631925D01*
X140766798Y-87696062D01*
X140782313Y-87706390D01*
X140919157Y-87749142D01*
X140928129Y-87749306D01*
X140928132Y-87749307D01*
X140993463Y-87750504D01*
X141062499Y-87751770D01*
X141071533Y-87749307D01*
X141192158Y-87716421D01*
X141192160Y-87716420D01*
X141200817Y-87714060D01*
X141229641Y-87696362D01*
X163937966Y-87696362D01*
X163941399Y-87731378D01*
X163942000Y-87743674D01*
X163942000Y-87977885D01*
X163946475Y-87993124D01*
X163947865Y-87994329D01*
X163955548Y-87996000D01*
X164032332Y-87996000D01*
X164057977Y-87988470D01*
X164983188Y-87063259D01*
X164996000Y-87039797D01*
X164996000Y-87032332D01*
X165504000Y-87032332D01*
X165511530Y-87057977D01*
X166436741Y-87983188D01*
X166460203Y-87996000D01*
X166539884Y-87996000D01*
X166555123Y-87991525D01*
X166556328Y-87990135D01*
X166557999Y-87982452D01*
X166557999Y-87762130D01*
X166559225Y-87744593D01*
X166561948Y-87725219D01*
X166562554Y-87717340D01*
X166562741Y-87703962D01*
X166562354Y-87696062D01*
X166558784Y-87664233D01*
X166557999Y-87650188D01*
X166557999Y-87405331D01*
X166557629Y-87398510D01*
X166552105Y-87347648D01*
X166548479Y-87332396D01*
X166503324Y-87211946D01*
X166494786Y-87196351D01*
X166456052Y-87144669D01*
X180229501Y-87144669D01*
X180229871Y-87151490D01*
X180235395Y-87202352D01*
X180239021Y-87217604D01*
X180284176Y-87338054D01*
X180292714Y-87353649D01*
X180369215Y-87455724D01*
X180381776Y-87468285D01*
X180483851Y-87544786D01*
X180499446Y-87553324D01*
X180619894Y-87598478D01*
X180635149Y-87602105D01*
X180686014Y-87607631D01*
X180692828Y-87608000D01*
X182565385Y-87608000D01*
X182580624Y-87603525D01*
X182581829Y-87602135D01*
X182583500Y-87594452D01*
X182583500Y-86697115D01*
X182579025Y-86681876D01*
X182577635Y-86680671D01*
X182569952Y-86679000D01*
X180247616Y-86679000D01*
X180232377Y-86683475D01*
X180231172Y-86684865D01*
X180229501Y-86692548D01*
X180229501Y-87144669D01*
X166456052Y-87144669D01*
X166418285Y-87094276D01*
X166405724Y-87081715D01*
X166303649Y-87005214D01*
X166288054Y-86996676D01*
X166167606Y-86951522D01*
X166152351Y-86947895D01*
X166101486Y-86942369D01*
X166094672Y-86942000D01*
X165852875Y-86942000D01*
X165837957Y-86941114D01*
X165812318Y-86938057D01*
X165798320Y-86937959D01*
X165766436Y-86941310D01*
X165753267Y-86942000D01*
X165522115Y-86942000D01*
X165506876Y-86946475D01*
X165505671Y-86947865D01*
X165504000Y-86955548D01*
X165504000Y-87032332D01*
X164996000Y-87032332D01*
X164996000Y-86960116D01*
X164991525Y-86944877D01*
X164990135Y-86943672D01*
X164982452Y-86942001D01*
X164752882Y-86942001D01*
X164737963Y-86941115D01*
X164712317Y-86938057D01*
X164698321Y-86937959D01*
X164666430Y-86941311D01*
X164653260Y-86942001D01*
X164405331Y-86942001D01*
X164398510Y-86942371D01*
X164347648Y-86947895D01*
X164332396Y-86951521D01*
X164211946Y-86996676D01*
X164196351Y-87005214D01*
X164094276Y-87081715D01*
X164081715Y-87094276D01*
X164005214Y-87196351D01*
X163996676Y-87211946D01*
X163951522Y-87332394D01*
X163947895Y-87347649D01*
X163942369Y-87398514D01*
X163942000Y-87405328D01*
X163942000Y-87644047D01*
X163941007Y-87659839D01*
X163938161Y-87682365D01*
X163937966Y-87696362D01*
X141229641Y-87696362D01*
X141322991Y-87639045D01*
X141332988Y-87628001D01*
X141413178Y-87539407D01*
X141419200Y-87532754D01*
X141481710Y-87403733D01*
X141505496Y-87262354D01*
X141505581Y-87255403D01*
X141505810Y-87254658D01*
X141505991Y-87252637D01*
X141506418Y-87252675D01*
X141526415Y-87187532D01*
X141542477Y-87167849D01*
X142557441Y-86152885D01*
X180229500Y-86152885D01*
X180233975Y-86168124D01*
X180235365Y-86169329D01*
X180243048Y-86171000D01*
X182565385Y-86171000D01*
X182580624Y-86166525D01*
X182581829Y-86165135D01*
X182583500Y-86157452D01*
X182583500Y-85260116D01*
X182579025Y-85244877D01*
X182577635Y-85243672D01*
X182569952Y-85242001D01*
X180692831Y-85242001D01*
X180686010Y-85242371D01*
X180635148Y-85247895D01*
X180619896Y-85251521D01*
X180499446Y-85296676D01*
X180483851Y-85305214D01*
X180381776Y-85381715D01*
X180369215Y-85394276D01*
X180292714Y-85496351D01*
X180284176Y-85511946D01*
X180239022Y-85632394D01*
X180235395Y-85647649D01*
X180229869Y-85698514D01*
X180229500Y-85705328D01*
X180229500Y-86152885D01*
X142557441Y-86152885D01*
X143847922Y-84862405D01*
X143910234Y-84828379D01*
X143937017Y-84825500D01*
X145061036Y-84825500D01*
X145129157Y-84845502D01*
X145150409Y-84864198D01*
X145150503Y-84864093D01*
X145157190Y-84870072D01*
X145162970Y-84876948D01*
X145282313Y-84956390D01*
X145419157Y-84999142D01*
X145428129Y-84999306D01*
X145428132Y-84999307D01*
X145493463Y-85000504D01*
X145562499Y-85001770D01*
X145571533Y-84999307D01*
X145692158Y-84966421D01*
X145692160Y-84966420D01*
X145700817Y-84964060D01*
X145822991Y-84889045D01*
X145919200Y-84782754D01*
X145981710Y-84653733D01*
X146005496Y-84512354D01*
X146005647Y-84500000D01*
X145985323Y-84358082D01*
X145925984Y-84227572D01*
X145887464Y-84182867D01*
X145838260Y-84125763D01*
X145838257Y-84125760D01*
X145832400Y-84118963D01*
X145712095Y-84040985D01*
X145574739Y-83999907D01*
X145565763Y-83999852D01*
X145565762Y-83999852D01*
X145505555Y-83999484D01*
X145431376Y-83999031D01*
X145293529Y-84038428D01*
X145172280Y-84114930D01*
X145157287Y-84131907D01*
X145097203Y-84169725D01*
X145062845Y-84174500D01*
X143769713Y-84174500D01*
X143758732Y-84174021D01*
X143732170Y-84171697D01*
X143732168Y-84171697D01*
X143721193Y-84170737D01*
X143684783Y-84180492D01*
X143674076Y-84182866D01*
X143636955Y-84189412D01*
X143627411Y-84194922D01*
X143624135Y-84196114D01*
X143620964Y-84197593D01*
X143610316Y-84200446D01*
X143601287Y-84206768D01*
X143579449Y-84222059D01*
X143570179Y-84227964D01*
X143547096Y-84241291D01*
X143547093Y-84241293D01*
X143537545Y-84246806D01*
X143530457Y-84255253D01*
X143530456Y-84255254D01*
X143513326Y-84275669D01*
X143505900Y-84283773D01*
X142277728Y-85511946D01*
X141077204Y-86712470D01*
X141014892Y-86746495D01*
X140987339Y-86749373D01*
X140961235Y-86749214D01*
X140931376Y-86749031D01*
X140793529Y-86788428D01*
X140672280Y-86864930D01*
X140577377Y-86972388D01*
X140516447Y-87102163D01*
X140515066Y-87111035D01*
X140499602Y-87210356D01*
X140494391Y-87243823D01*
X139716503Y-87243823D01*
X143347921Y-83612405D01*
X143410233Y-83578379D01*
X143437016Y-83575500D01*
X145561036Y-83575500D01*
X145629157Y-83595502D01*
X145650409Y-83614198D01*
X145650503Y-83614093D01*
X145657190Y-83620072D01*
X145662970Y-83626948D01*
X145782313Y-83706390D01*
X145919157Y-83749142D01*
X145928129Y-83749306D01*
X145928132Y-83749307D01*
X145993463Y-83750504D01*
X146062499Y-83751770D01*
X146071533Y-83749307D01*
X146192158Y-83716421D01*
X146192160Y-83716420D01*
X146200817Y-83714060D01*
X146322991Y-83639045D01*
X146419200Y-83532754D01*
X146481710Y-83403733D01*
X146505496Y-83262354D01*
X146505647Y-83250000D01*
X146485323Y-83108082D01*
X146425984Y-82977572D01*
X146380254Y-82924500D01*
X146338260Y-82875763D01*
X146338257Y-82875760D01*
X146332400Y-82868963D01*
X146212095Y-82790985D01*
X146074739Y-82749907D01*
X146065763Y-82749852D01*
X146065762Y-82749852D01*
X146005555Y-82749484D01*
X145931376Y-82749031D01*
X145793529Y-82788428D01*
X145672280Y-82864930D01*
X145657287Y-82881907D01*
X145597203Y-82919725D01*
X145562845Y-82924500D01*
X143269710Y-82924500D01*
X143258728Y-82924020D01*
X143232180Y-82921697D01*
X143232178Y-82921697D01*
X143221193Y-82920736D01*
X143184785Y-82930492D01*
X143174058Y-82932870D01*
X143170699Y-82933462D01*
X143136955Y-82939412D01*
X143127410Y-82944923D01*
X143124134Y-82946115D01*
X143120966Y-82947592D01*
X143110316Y-82950446D01*
X143101285Y-82956770D01*
X143079456Y-82972055D01*
X143070185Y-82977961D01*
X143047094Y-82991293D01*
X143037545Y-82996806D01*
X143030459Y-83005251D01*
X143013315Y-83025682D01*
X143005889Y-83033785D01*
X128283785Y-97755889D01*
X128275681Y-97763316D01*
X128246806Y-97787545D01*
X128241293Y-97797094D01*
X128227961Y-97820185D01*
X128222055Y-97829456D01*
X128200446Y-97860316D01*
X128197592Y-97870966D01*
X128196115Y-97874134D01*
X128194923Y-97877410D01*
X128189412Y-97886955D01*
X128186319Y-97904498D01*
X128182870Y-97924058D01*
X128180492Y-97934785D01*
X128170736Y-97971193D01*
X128171697Y-97982178D01*
X128171697Y-97982180D01*
X128174020Y-98008728D01*
X128174500Y-98019710D01*
X128174500Y-99023500D01*
X128154498Y-99091621D01*
X128100842Y-99138114D01*
X128048500Y-99149500D01*
X127630252Y-99149500D01*
X127624184Y-99150707D01*
X127583939Y-99158712D01*
X127583938Y-99158712D01*
X127571769Y-99161133D01*
X127505448Y-99205448D01*
X127461133Y-99271769D01*
X127449500Y-99330252D01*
X127449500Y-100924984D01*
X127429498Y-100993105D01*
X127375842Y-101039598D01*
X127305568Y-101049702D01*
X127240988Y-101020208D01*
X127234405Y-101014079D01*
X126960715Y-100740389D01*
X126926689Y-100678077D01*
X126930252Y-100611522D01*
X126969405Y-100493823D01*
X126989351Y-100433863D01*
X127015171Y-100229474D01*
X127015390Y-100213806D01*
X127015534Y-100203522D01*
X127015534Y-100203518D01*
X127015583Y-100200000D01*
X126995480Y-99994970D01*
X126935935Y-99797749D01*
X126839218Y-99615849D01*
X126744734Y-99500000D01*
X126712906Y-99460975D01*
X126712903Y-99460972D01*
X126709011Y-99456200D01*
X126613212Y-99376948D01*
X126555025Y-99328811D01*
X126555021Y-99328809D01*
X126550275Y-99324882D01*
X126369055Y-99226897D01*
X126172254Y-99165977D01*
X126166129Y-99165333D01*
X126166128Y-99165333D01*
X125973498Y-99145087D01*
X125973496Y-99145087D01*
X125967369Y-99144443D01*
X125883010Y-99152120D01*
X125768342Y-99162555D01*
X125768339Y-99162556D01*
X125762203Y-99163114D01*
X125564572Y-99221280D01*
X125559107Y-99224137D01*
X125534426Y-99237040D01*
X125382002Y-99316726D01*
X125377201Y-99320586D01*
X125377198Y-99320588D01*
X125299382Y-99383154D01*
X125221447Y-99445815D01*
X125089024Y-99603630D01*
X125086056Y-99609028D01*
X125086053Y-99609033D01*
X124997983Y-99769233D01*
X124989776Y-99784162D01*
X124927484Y-99980532D01*
X124926798Y-99986649D01*
X124926797Y-99986653D01*
X124910523Y-100131745D01*
X124904520Y-100185262D01*
X124905036Y-100191406D01*
X124912597Y-100281442D01*
X124921759Y-100390553D01*
X124923458Y-100396478D01*
X124961908Y-100530568D01*
X124978544Y-100588586D01*
X124981359Y-100594063D01*
X124981360Y-100594066D01*
X125069897Y-100766341D01*
X125072712Y-100771818D01*
X125200677Y-100933270D01*
X125205370Y-100937264D01*
X125205371Y-100937265D01*
X125331054Y-101044229D01*
X125357564Y-101066791D01*
X125362942Y-101069797D01*
X125362944Y-101069798D01*
X125381669Y-101080263D01*
X125537398Y-101167297D01*
X125612352Y-101191651D01*
X125727471Y-101229056D01*
X125727475Y-101229057D01*
X125733329Y-101230959D01*
X125937894Y-101255351D01*
X125944029Y-101254879D01*
X125944031Y-101254879D01*
X126000939Y-101250500D01*
X126143300Y-101239546D01*
X126149230Y-101237890D01*
X126149232Y-101237890D01*
X126335797Y-101185800D01*
X126335796Y-101185800D01*
X126341725Y-101184145D01*
X126352962Y-101178469D01*
X126354722Y-101177580D01*
X126424544Y-101164721D01*
X126490235Y-101191651D01*
X126500626Y-101200952D01*
X127159079Y-101859405D01*
X127193105Y-101921717D01*
X127188040Y-101992532D01*
X127145493Y-102049368D01*
X127078973Y-102074179D01*
X127069984Y-102074500D01*
X125807016Y-102074500D01*
X125738895Y-102054498D01*
X125717921Y-102037595D01*
X124420715Y-100740389D01*
X124386689Y-100678077D01*
X124390252Y-100611522D01*
X124429405Y-100493823D01*
X124449351Y-100433863D01*
X124475171Y-100229474D01*
X124475390Y-100213806D01*
X124475534Y-100203522D01*
X124475534Y-100203518D01*
X124475583Y-100200000D01*
X124455480Y-99994970D01*
X124395935Y-99797749D01*
X124299218Y-99615849D01*
X124204734Y-99500000D01*
X124172906Y-99460975D01*
X124172903Y-99460972D01*
X124169011Y-99456200D01*
X124073212Y-99376948D01*
X124015025Y-99328811D01*
X124015021Y-99328809D01*
X124010275Y-99324882D01*
X123829055Y-99226897D01*
X123632254Y-99165977D01*
X123626129Y-99165333D01*
X123626128Y-99165333D01*
X123433498Y-99145087D01*
X123433496Y-99145087D01*
X123427369Y-99144443D01*
X123343010Y-99152120D01*
X123228342Y-99162555D01*
X123228339Y-99162556D01*
X123222203Y-99163114D01*
X123024572Y-99221280D01*
X123019107Y-99224137D01*
X122994426Y-99237040D01*
X122842002Y-99316726D01*
X122837201Y-99320586D01*
X122837198Y-99320588D01*
X122759382Y-99383154D01*
X122681447Y-99445815D01*
X122549024Y-99603630D01*
X122546056Y-99609028D01*
X122546053Y-99609033D01*
X122457983Y-99769233D01*
X122449776Y-99784162D01*
X122431789Y-99840866D01*
X122431068Y-99843138D01*
X122391405Y-99902022D01*
X122326202Y-99930114D01*
X122256163Y-99918497D01*
X122203523Y-99870857D01*
X122188762Y-99835735D01*
X122171214Y-99765875D01*
X122167894Y-99756124D01*
X122082972Y-99560814D01*
X122078105Y-99551739D01*
X121962426Y-99372926D01*
X121956136Y-99364757D01*
X121812806Y-99207240D01*
X121805273Y-99200215D01*
X121638139Y-99068222D01*
X121629552Y-99062517D01*
X121443117Y-98959599D01*
X121433705Y-98955369D01*
X121232959Y-98884280D01*
X121222988Y-98881646D01*
X121151837Y-98868972D01*
X121138540Y-98870432D01*
X121134000Y-98884989D01*
X121134000Y-101518517D01*
X120626000Y-101518517D01*
X120626000Y-100472115D01*
X120621525Y-100456876D01*
X120620135Y-100455671D01*
X120612452Y-100454000D01*
X119563225Y-100454000D01*
X119549694Y-100457973D01*
X119548257Y-100467966D01*
X118000500Y-100467966D01*
X118000500Y-99934183D01*
X119544389Y-99934183D01*
X119545912Y-99942607D01*
X119558292Y-99946000D01*
X120607885Y-99946000D01*
X120623124Y-99941525D01*
X120624329Y-99940135D01*
X120626000Y-99932452D01*
X120626000Y-98883102D01*
X120622082Y-98869758D01*
X120607806Y-98867771D01*
X120569324Y-98873660D01*
X120559288Y-98876051D01*
X120356868Y-98942212D01*
X120347359Y-98946209D01*
X120158463Y-99044542D01*
X120149738Y-99050036D01*
X119979433Y-99177905D01*
X119971726Y-99184748D01*
X119824590Y-99338717D01*
X119818104Y-99346727D01*
X119698098Y-99522649D01*
X119693000Y-99531623D01*
X119603338Y-99724783D01*
X119599775Y-99734470D01*
X119544389Y-99934183D01*
X118000500Y-99934183D01*
X118000500Y-94186665D01*
X128294994Y-94186665D01*
X128297310Y-94214241D01*
X128309964Y-94364930D01*
X128310592Y-94372414D01*
X128312291Y-94378339D01*
X128359986Y-94544672D01*
X128361971Y-94551595D01*
X128447176Y-94717385D01*
X128562959Y-94863468D01*
X128704912Y-94984279D01*
X128710290Y-94987285D01*
X128710292Y-94987286D01*
X128737731Y-95002621D01*
X128867627Y-95075217D01*
X129044907Y-95132819D01*
X129229998Y-95154890D01*
X129236133Y-95154418D01*
X129236135Y-95154418D01*
X129409710Y-95141062D01*
X129409715Y-95141061D01*
X129415851Y-95140589D01*
X129421781Y-95138933D01*
X129421783Y-95138933D01*
X129589459Y-95092117D01*
X129589458Y-95092117D01*
X129595387Y-95090462D01*
X129761768Y-95006417D01*
X129771093Y-94999132D01*
X129903794Y-94895454D01*
X129903795Y-94895453D01*
X129908655Y-94891656D01*
X130030454Y-94750550D01*
X130033503Y-94745184D01*
X130079464Y-94664277D01*
X130122526Y-94588474D01*
X130181364Y-94411601D01*
X130201405Y-94252965D01*
X130204285Y-94230170D01*
X130204286Y-94230163D01*
X130204727Y-94226668D01*
X130205099Y-94200000D01*
X130186909Y-94014487D01*
X130185128Y-94008588D01*
X130185127Y-94008583D01*
X130134814Y-93841939D01*
X130133033Y-93836040D01*
X130045522Y-93671456D01*
X130041632Y-93666686D01*
X130041629Y-93666682D01*
X129931605Y-93531780D01*
X129931602Y-93531777D01*
X129927710Y-93527005D01*
X129922056Y-93522327D01*
X129788834Y-93412116D01*
X129784085Y-93408187D01*
X129620116Y-93319529D01*
X129531083Y-93291969D01*
X129447936Y-93266231D01*
X129447933Y-93266230D01*
X129442049Y-93264409D01*
X129435924Y-93263765D01*
X129435923Y-93263765D01*
X129262796Y-93245568D01*
X129262795Y-93245568D01*
X129256668Y-93244924D01*
X129178549Y-93252033D01*
X129077171Y-93261259D01*
X129077168Y-93261260D01*
X129071032Y-93261818D01*
X129065122Y-93263557D01*
X129065119Y-93263558D01*
X128898129Y-93312707D01*
X128892214Y-93314448D01*
X128727023Y-93400807D01*
X128581752Y-93517608D01*
X128461935Y-93660401D01*
X128458971Y-93665793D01*
X128458968Y-93665797D01*
X128407739Y-93758983D01*
X128372135Y-93823746D01*
X128370274Y-93829613D01*
X128370273Y-93829615D01*
X128331604Y-93951516D01*
X128315772Y-94001424D01*
X128294994Y-94186665D01*
X118000500Y-94186665D01*
X118000500Y-90206082D01*
X128275577Y-90206082D01*
X128276093Y-90212226D01*
X128286060Y-90330913D01*
X128291175Y-90391831D01*
X128292874Y-90397756D01*
X128339502Y-90560368D01*
X128342554Y-90571012D01*
X128427759Y-90736802D01*
X128543542Y-90882885D01*
X128548235Y-90886879D01*
X128548236Y-90886880D01*
X128561179Y-90897895D01*
X128685495Y-91003696D01*
X128690873Y-91006702D01*
X128690875Y-91006703D01*
X128745141Y-91037031D01*
X128848210Y-91094634D01*
X129025490Y-91152236D01*
X129210581Y-91174307D01*
X129216716Y-91173835D01*
X129216718Y-91173835D01*
X129390293Y-91160479D01*
X129390298Y-91160478D01*
X129396434Y-91160006D01*
X129402364Y-91158350D01*
X129402366Y-91158350D01*
X129514325Y-91127090D01*
X129575970Y-91109879D01*
X129742351Y-91025834D01*
X129766838Y-91006703D01*
X129884377Y-90914871D01*
X129884378Y-90914870D01*
X129889238Y-90911073D01*
X130011037Y-90769967D01*
X130103109Y-90607891D01*
X130161947Y-90431018D01*
X130173954Y-90335978D01*
X130184868Y-90249587D01*
X130184869Y-90249580D01*
X130185310Y-90246085D01*
X130185682Y-90219417D01*
X130167492Y-90033904D01*
X130165711Y-90028005D01*
X130165710Y-90028000D01*
X130115397Y-89861356D01*
X130113616Y-89855457D01*
X130051745Y-89739095D01*
X130028999Y-89696315D01*
X130028997Y-89696312D01*
X130026105Y-89690873D01*
X130022215Y-89686103D01*
X130022212Y-89686099D01*
X129912188Y-89551197D01*
X129912185Y-89551194D01*
X129908293Y-89546422D01*
X129902639Y-89541744D01*
X129782097Y-89442023D01*
X129764668Y-89427604D01*
X129600699Y-89338946D01*
X129467288Y-89297649D01*
X129428519Y-89285648D01*
X129428516Y-89285647D01*
X129422632Y-89283826D01*
X129416507Y-89283182D01*
X129416506Y-89283182D01*
X129243379Y-89264985D01*
X129243378Y-89264985D01*
X129237251Y-89264341D01*
X129159132Y-89271450D01*
X129057754Y-89280676D01*
X129057751Y-89280677D01*
X129051615Y-89281235D01*
X129045705Y-89282974D01*
X129045702Y-89282975D01*
X128878712Y-89332124D01*
X128872797Y-89333865D01*
X128707606Y-89420224D01*
X128702806Y-89424084D01*
X128702805Y-89424084D01*
X128668815Y-89451413D01*
X128562335Y-89537025D01*
X128442518Y-89679818D01*
X128439554Y-89685210D01*
X128439551Y-89685214D01*
X128375334Y-89802024D01*
X128352718Y-89843163D01*
X128350857Y-89849030D01*
X128350856Y-89849032D01*
X128299879Y-90009731D01*
X128296355Y-90020841D01*
X128275577Y-90206082D01*
X118000500Y-90206082D01*
X118000500Y-81395996D01*
X120520814Y-81395996D01*
X120530523Y-81605767D01*
X120531927Y-81611592D01*
X120531927Y-81611593D01*
X120556084Y-81711826D01*
X120579724Y-81809918D01*
X120582206Y-81815376D01*
X120582207Y-81815380D01*
X120625320Y-81910201D01*
X120666640Y-82001081D01*
X120788137Y-82172360D01*
X120939831Y-82317575D01*
X120944866Y-82320826D01*
X121111209Y-82428233D01*
X121111212Y-82428234D01*
X121116246Y-82431485D01*
X121121809Y-82433727D01*
X121305455Y-82507739D01*
X121305458Y-82507740D01*
X121311019Y-82509981D01*
X121316900Y-82511129D01*
X121316905Y-82511131D01*
X121512676Y-82549362D01*
X121512679Y-82549362D01*
X121517122Y-82550230D01*
X121522643Y-82550500D01*
X121677469Y-82550500D01*
X121834046Y-82535561D01*
X121839802Y-82533872D01*
X121839804Y-82533872D01*
X121928883Y-82507739D01*
X122035549Y-82476447D01*
X122135947Y-82424739D01*
X122216908Y-82383041D01*
X122216911Y-82383039D01*
X122222239Y-82380295D01*
X122297947Y-82320826D01*
X122382662Y-82254282D01*
X122382667Y-82254278D01*
X122387379Y-82250576D01*
X122391311Y-82246045D01*
X122521079Y-82096502D01*
X122521083Y-82096497D01*
X122525010Y-82091971D01*
X122630166Y-81910201D01*
X122699053Y-81711826D01*
X122710870Y-81630327D01*
X122728325Y-81509944D01*
X122728325Y-81509941D01*
X122729186Y-81504004D01*
X122724187Y-81395996D01*
X127520814Y-81395996D01*
X127530523Y-81605767D01*
X127531927Y-81611592D01*
X127531927Y-81611593D01*
X127556084Y-81711826D01*
X127579724Y-81809918D01*
X127582206Y-81815376D01*
X127582207Y-81815380D01*
X127625320Y-81910201D01*
X127666640Y-82001081D01*
X127788137Y-82172360D01*
X127939831Y-82317575D01*
X127944866Y-82320826D01*
X128111209Y-82428233D01*
X128111212Y-82428234D01*
X128116246Y-82431485D01*
X128121809Y-82433727D01*
X128305455Y-82507739D01*
X128305458Y-82507740D01*
X128311019Y-82509981D01*
X128316900Y-82511129D01*
X128316905Y-82511131D01*
X128512676Y-82549362D01*
X128512679Y-82549362D01*
X128517122Y-82550230D01*
X128522643Y-82550500D01*
X128677469Y-82550500D01*
X128834046Y-82535561D01*
X128839802Y-82533872D01*
X128839804Y-82533872D01*
X128928883Y-82507739D01*
X129035549Y-82476447D01*
X129135947Y-82424739D01*
X129216908Y-82383041D01*
X129216911Y-82383039D01*
X129222239Y-82380295D01*
X129297947Y-82320826D01*
X129382662Y-82254282D01*
X129382667Y-82254278D01*
X129387379Y-82250576D01*
X129391311Y-82246045D01*
X129521079Y-82096502D01*
X129521083Y-82096497D01*
X129525010Y-82091971D01*
X129630166Y-81910201D01*
X129699053Y-81711826D01*
X129710870Y-81630327D01*
X129728325Y-81509944D01*
X129728325Y-81509941D01*
X129729186Y-81504004D01*
X129719477Y-81294233D01*
X129670276Y-81090082D01*
X129657309Y-81061561D01*
X129585840Y-80904374D01*
X129583360Y-80898919D01*
X129473389Y-80743889D01*
X129465329Y-80732526D01*
X129465328Y-80732525D01*
X129461863Y-80727640D01*
X129310169Y-80582425D01*
X129213033Y-80519705D01*
X129138791Y-80471767D01*
X129138788Y-80471766D01*
X129133754Y-80468515D01*
X129091319Y-80451413D01*
X128944545Y-80392261D01*
X128944542Y-80392260D01*
X128938981Y-80390019D01*
X128933100Y-80388871D01*
X128933095Y-80388869D01*
X128737324Y-80350638D01*
X128737321Y-80350638D01*
X128732878Y-80349770D01*
X128727357Y-80349500D01*
X128572531Y-80349500D01*
X128415954Y-80364439D01*
X128410198Y-80366128D01*
X128410196Y-80366128D01*
X128332679Y-80388869D01*
X128214451Y-80423553D01*
X128145493Y-80459069D01*
X128033092Y-80516959D01*
X128033089Y-80516961D01*
X128027761Y-80519705D01*
X128023046Y-80523409D01*
X127867338Y-80645718D01*
X127867333Y-80645722D01*
X127862621Y-80649424D01*
X127858690Y-80653954D01*
X127858689Y-80653955D01*
X127728921Y-80803498D01*
X127728917Y-80803503D01*
X127724990Y-80808029D01*
X127619834Y-80989799D01*
X127550947Y-81188174D01*
X127550086Y-81194109D01*
X127550086Y-81194111D01*
X127534701Y-81300223D01*
X127520814Y-81395996D01*
X122724187Y-81395996D01*
X122719477Y-81294233D01*
X122670276Y-81090082D01*
X122657309Y-81061561D01*
X122585840Y-80904374D01*
X122583360Y-80898919D01*
X122473389Y-80743889D01*
X122465329Y-80732526D01*
X122465328Y-80732525D01*
X122461863Y-80727640D01*
X122310169Y-80582425D01*
X122213033Y-80519705D01*
X122138791Y-80471767D01*
X122138788Y-80471766D01*
X122133754Y-80468515D01*
X122091319Y-80451413D01*
X121944545Y-80392261D01*
X121944542Y-80392260D01*
X121938981Y-80390019D01*
X121933100Y-80388871D01*
X121933095Y-80388869D01*
X121737324Y-80350638D01*
X121737321Y-80350638D01*
X121732878Y-80349770D01*
X121727357Y-80349500D01*
X121572531Y-80349500D01*
X121415954Y-80364439D01*
X121410198Y-80366128D01*
X121410196Y-80366128D01*
X121332679Y-80388869D01*
X121214451Y-80423553D01*
X121145493Y-80459069D01*
X121033092Y-80516959D01*
X121033089Y-80516961D01*
X121027761Y-80519705D01*
X121023046Y-80523409D01*
X120867338Y-80645718D01*
X120867333Y-80645722D01*
X120862621Y-80649424D01*
X120858690Y-80653954D01*
X120858689Y-80653955D01*
X120728921Y-80803498D01*
X120728917Y-80803503D01*
X120724990Y-80808029D01*
X120619834Y-80989799D01*
X120550947Y-81188174D01*
X120550086Y-81194109D01*
X120550086Y-81194111D01*
X120534701Y-81300223D01*
X120520814Y-81395996D01*
X118000500Y-81395996D01*
X118000500Y-79993823D01*
X154994391Y-79993823D01*
X154995555Y-80002725D01*
X154995555Y-80002728D01*
X154996814Y-80012354D01*
X155012980Y-80135979D01*
X155016597Y-80144199D01*
X155063110Y-80249907D01*
X155070720Y-80267203D01*
X155076497Y-80274076D01*
X155076498Y-80274077D01*
X155156258Y-80368963D01*
X155162970Y-80376948D01*
X155282313Y-80456390D01*
X155419157Y-80499142D01*
X155428129Y-80499306D01*
X155428132Y-80499307D01*
X155493463Y-80500504D01*
X155562499Y-80501770D01*
X155571533Y-80499307D01*
X155692158Y-80466421D01*
X155692160Y-80466420D01*
X155700817Y-80464060D01*
X155822991Y-80389045D01*
X155840165Y-80370072D01*
X155842995Y-80366945D01*
X155903538Y-80329863D01*
X155936410Y-80325500D01*
X167561036Y-80325500D01*
X167629157Y-80345502D01*
X167650409Y-80364198D01*
X167650503Y-80364093D01*
X167657190Y-80370072D01*
X167662970Y-80376948D01*
X167782313Y-80456390D01*
X167919157Y-80499142D01*
X167928129Y-80499306D01*
X167928132Y-80499307D01*
X167993463Y-80500504D01*
X168062499Y-80501770D01*
X168071533Y-80499307D01*
X168192158Y-80466421D01*
X168192160Y-80466420D01*
X168200817Y-80464060D01*
X168322991Y-80389045D01*
X168419200Y-80282754D01*
X168481710Y-80153733D01*
X168505496Y-80012354D01*
X168505647Y-80000000D01*
X168497473Y-79942924D01*
X168486596Y-79866968D01*
X168486595Y-79866965D01*
X168485323Y-79858082D01*
X168476317Y-79838273D01*
X168429700Y-79735746D01*
X168425984Y-79727572D01*
X168387867Y-79683335D01*
X168338260Y-79625763D01*
X168338257Y-79625760D01*
X168332400Y-79618963D01*
X168237161Y-79557232D01*
X168190877Y-79503396D01*
X168181046Y-79433083D01*
X168210790Y-79368618D01*
X168270665Y-79330467D01*
X168305693Y-79325500D01*
X168562984Y-79325500D01*
X168631105Y-79345502D01*
X168652079Y-79362405D01*
X169958576Y-80668902D01*
X169992602Y-80731214D01*
X169993888Y-80743889D01*
X169994391Y-80743823D01*
X170012980Y-80885979D01*
X170070720Y-81017203D01*
X170076497Y-81024076D01*
X170076498Y-81024077D01*
X170083792Y-81032754D01*
X170162970Y-81126948D01*
X170282313Y-81206390D01*
X170419157Y-81249142D01*
X170428129Y-81249306D01*
X170428132Y-81249307D01*
X170493463Y-81250504D01*
X170562499Y-81251770D01*
X170571533Y-81249307D01*
X170692158Y-81216421D01*
X170692160Y-81216420D01*
X170700817Y-81214060D01*
X170822991Y-81139045D01*
X170919200Y-81032754D01*
X170981710Y-80903733D01*
X171005496Y-80762354D01*
X171005647Y-80750000D01*
X170994033Y-80668902D01*
X170986596Y-80616968D01*
X170986595Y-80616965D01*
X170985323Y-80608082D01*
X170925984Y-80477572D01*
X170903444Y-80451413D01*
X170838260Y-80375763D01*
X170838257Y-80375760D01*
X170832400Y-80368963D01*
X170712095Y-80290985D01*
X170574739Y-80249907D01*
X170565763Y-80249852D01*
X170565762Y-80249852D01*
X170511267Y-80249519D01*
X170443270Y-80229101D01*
X170422942Y-80212616D01*
X168994111Y-78783785D01*
X168986684Y-78775681D01*
X168969541Y-78755251D01*
X168969542Y-78755251D01*
X168962455Y-78746806D01*
X168952906Y-78741293D01*
X168929815Y-78727961D01*
X168920544Y-78722055D01*
X168898715Y-78706770D01*
X168889684Y-78700446D01*
X168879034Y-78697592D01*
X168875866Y-78696115D01*
X168872590Y-78694923D01*
X168863045Y-78689412D01*
X168829301Y-78683462D01*
X168825942Y-78682870D01*
X168815215Y-78680492D01*
X168778807Y-78670736D01*
X168767822Y-78671697D01*
X168767820Y-78671697D01*
X168741272Y-78674020D01*
X168730290Y-78674500D01*
X160938008Y-78674500D01*
X160869887Y-78654498D01*
X160842556Y-78630750D01*
X160832400Y-78618963D01*
X160712095Y-78540985D01*
X160574739Y-78499907D01*
X160565763Y-78499852D01*
X160565762Y-78499852D01*
X160505555Y-78499484D01*
X160431376Y-78499031D01*
X160293529Y-78538428D01*
X160172280Y-78614930D01*
X160077377Y-78722388D01*
X160016447Y-78852163D01*
X160015066Y-78861035D01*
X159996126Y-78982681D01*
X159994391Y-78993823D01*
X160012980Y-79135979D01*
X160070720Y-79267203D01*
X160076497Y-79274076D01*
X160076498Y-79274077D01*
X160155968Y-79368618D01*
X160162970Y-79376948D01*
X160196336Y-79399158D01*
X160263119Y-79443613D01*
X160308742Y-79498010D01*
X160317713Y-79568438D01*
X160287183Y-79632535D01*
X160226847Y-79669952D01*
X160193300Y-79674500D01*
X155938008Y-79674500D01*
X155869887Y-79654498D01*
X155842556Y-79630750D01*
X155838259Y-79625763D01*
X155832400Y-79618963D01*
X155712095Y-79540985D01*
X155574739Y-79499907D01*
X155565763Y-79499852D01*
X155565762Y-79499852D01*
X155505555Y-79499484D01*
X155431376Y-79499031D01*
X155293529Y-79538428D01*
X155172280Y-79614930D01*
X155077377Y-79722388D01*
X155016447Y-79852163D01*
X154994391Y-79993823D01*
X118000500Y-79993823D01*
X118000500Y-78126500D01*
X118020502Y-78058379D01*
X118074158Y-78011886D01*
X118126500Y-78000500D01*
X180997082Y-78000500D01*
X181002901Y-78000634D01*
G37*
%TD.AperFunction*%
%TA.AperFunction,Conductor*%
G36*
X145245468Y-97595502D02*
G01*
X145291961Y-97649158D01*
X145300926Y-97676918D01*
X145311133Y-97728231D01*
X145355448Y-97794552D01*
X145421769Y-97838867D01*
X145433938Y-97841288D01*
X145433939Y-97841288D01*
X145474184Y-97849293D01*
X145480252Y-97850500D01*
X146247340Y-97850500D01*
X146300591Y-97862306D01*
X146303735Y-97863772D01*
X146314454Y-97868770D01*
X146325435Y-97869731D01*
X146325436Y-97869731D01*
X146417822Y-97877814D01*
X146417823Y-97877814D01*
X146428807Y-97878775D01*
X146439454Y-97875922D01*
X146439455Y-97875922D01*
X146518308Y-97854793D01*
X146550920Y-97850500D01*
X146623682Y-97850500D01*
X146691803Y-97870502D01*
X146738296Y-97924158D01*
X146748400Y-97994432D01*
X146718906Y-98059012D01*
X146712778Y-98065595D01*
X146068729Y-98709645D01*
X146006416Y-98743670D01*
X145978863Y-98746548D01*
X145953217Y-98746391D01*
X145922901Y-98746206D01*
X145785054Y-98785603D01*
X145663805Y-98862105D01*
X145568902Y-98969563D01*
X145507972Y-99099338D01*
X145503667Y-99126988D01*
X145490905Y-99208956D01*
X145485916Y-99240998D01*
X145487080Y-99249900D01*
X145487080Y-99249903D01*
X145490986Y-99279771D01*
X145504505Y-99383154D01*
X145530376Y-99441950D01*
X145555919Y-99500000D01*
X145562245Y-99514378D01*
X145568022Y-99521251D01*
X145568023Y-99521252D01*
X145643150Y-99610627D01*
X145654495Y-99624123D01*
X145676906Y-99639041D01*
X145742091Y-99682432D01*
X145773838Y-99703565D01*
X145910682Y-99746317D01*
X145919654Y-99746481D01*
X145919657Y-99746482D01*
X145984988Y-99747679D01*
X146054024Y-99748945D01*
X146063664Y-99746317D01*
X146183066Y-99713764D01*
X146254049Y-99715144D01*
X146313018Y-99754681D01*
X146318625Y-99762442D01*
X146320720Y-99767203D01*
X146412970Y-99876948D01*
X146532313Y-99956390D01*
X146669157Y-99999142D01*
X146678129Y-99999307D01*
X146678132Y-99999307D01*
X146740218Y-100000445D01*
X146807961Y-100021693D01*
X146827003Y-100037329D01*
X147120624Y-100330950D01*
X147128051Y-100339054D01*
X147152280Y-100367929D01*
X147161829Y-100373442D01*
X147184920Y-100386774D01*
X147194191Y-100392680D01*
X147225051Y-100414289D01*
X147235702Y-100417143D01*
X147238863Y-100418617D01*
X147242142Y-100419810D01*
X147251690Y-100425323D01*
X147262549Y-100427238D01*
X147270408Y-100430098D01*
X147327580Y-100472192D01*
X147352919Y-100538513D01*
X147338379Y-100608005D01*
X147288577Y-100658604D01*
X147227315Y-100674500D01*
X144835658Y-100674500D01*
X144767537Y-100654498D01*
X144721044Y-100600842D01*
X144710940Y-100530568D01*
X144742243Y-100463945D01*
X144776615Y-100425972D01*
X144776620Y-100425965D01*
X144782639Y-100419315D01*
X144845149Y-100290294D01*
X144868935Y-100148915D01*
X144869086Y-100136561D01*
X144853944Y-100030829D01*
X144850035Y-100003529D01*
X144850034Y-100003526D01*
X144848762Y-99994643D01*
X144789423Y-99864133D01*
X144769375Y-99840866D01*
X144701699Y-99762324D01*
X144701696Y-99762321D01*
X144695839Y-99755524D01*
X144575534Y-99677546D01*
X144438178Y-99636468D01*
X144429202Y-99636413D01*
X144429201Y-99636413D01*
X144374706Y-99636080D01*
X144306709Y-99615662D01*
X144286381Y-99599177D01*
X142847127Y-98159923D01*
X142813101Y-98097611D01*
X142818166Y-98026796D01*
X142860713Y-97969960D01*
X142903078Y-97949266D01*
X142963493Y-97932795D01*
X142986433Y-97926541D01*
X142986435Y-97926540D01*
X142995092Y-97924180D01*
X143117266Y-97849165D01*
X143132827Y-97831974D01*
X143198167Y-97759786D01*
X143213475Y-97742874D01*
X143260138Y-97646562D01*
X143307840Y-97593979D01*
X143373530Y-97575500D01*
X145177347Y-97575500D01*
X145245468Y-97595502D01*
G37*
%TD.AperFunction*%
%TA.AperFunction,Conductor*%
G36*
X128226664Y-103564931D02*
G01*
X128241860Y-103577890D01*
X129630185Y-104966215D01*
X129637612Y-104974319D01*
X129661841Y-105003194D01*
X129671390Y-105008707D01*
X129694481Y-105022039D01*
X129703752Y-105027945D01*
X129734612Y-105049554D01*
X129745262Y-105052408D01*
X129748430Y-105053885D01*
X129751706Y-105055077D01*
X129761251Y-105060588D01*
X129794995Y-105066538D01*
X129798354Y-105067130D01*
X129809081Y-105069508D01*
X129845489Y-105079264D01*
X129856465Y-105078304D01*
X129856468Y-105078304D01*
X129883039Y-105075979D01*
X129894020Y-105075500D01*
X132177190Y-105075500D01*
X132245311Y-105095502D01*
X132291804Y-105149158D01*
X132301908Y-105219432D01*
X132277487Y-105277765D01*
X132264139Y-105295319D01*
X132252944Y-105308139D01*
X130123488Y-107437595D01*
X130061176Y-107471621D01*
X130034393Y-107474500D01*
X127352746Y-107474500D01*
X127284625Y-107454498D01*
X127238132Y-107400842D01*
X127228028Y-107330568D01*
X127252784Y-107271796D01*
X127266806Y-107253522D01*
X127305861Y-107202625D01*
X127361330Y-107068709D01*
X127380250Y-106925000D01*
X127361330Y-106781291D01*
X127305861Y-106647375D01*
X127251633Y-106576704D01*
X127226032Y-106510484D01*
X127240297Y-106440935D01*
X127251633Y-106423296D01*
X127267744Y-106402300D01*
X127305861Y-106352625D01*
X127361330Y-106218709D01*
X127380250Y-106075000D01*
X127361330Y-105931291D01*
X127305861Y-105797375D01*
X127217621Y-105682379D01*
X127102625Y-105594139D01*
X126968709Y-105538670D01*
X126825000Y-105519750D01*
X126681291Y-105538670D01*
X126547375Y-105594139D01*
X126432379Y-105682379D01*
X126344139Y-105797375D01*
X126288670Y-105931291D01*
X126287045Y-105943637D01*
X126274922Y-106035715D01*
X126257266Y-106075625D01*
X126274922Y-106114285D01*
X126288670Y-106218709D01*
X126344139Y-106352625D01*
X126382256Y-106402300D01*
X126398367Y-106423296D01*
X126423968Y-106489516D01*
X126409703Y-106559065D01*
X126398367Y-106576704D01*
X126344139Y-106647375D01*
X126288670Y-106781291D01*
X126287592Y-106789480D01*
X126274922Y-106885715D01*
X126257266Y-106925625D01*
X126274922Y-106964285D01*
X126288670Y-107068709D01*
X126344139Y-107202625D01*
X126383194Y-107253522D01*
X126398367Y-107273296D01*
X126423968Y-107339516D01*
X126409703Y-107409065D01*
X126398367Y-107426704D01*
X126394886Y-107431241D01*
X126344139Y-107497375D01*
X126340980Y-107505002D01*
X126340977Y-107505007D01*
X126322786Y-107548926D01*
X126278239Y-107604207D01*
X126210875Y-107626629D01*
X126142084Y-107609071D01*
X126122039Y-107590991D01*
X126120425Y-107592731D01*
X126084523Y-107559427D01*
X126081118Y-107556147D01*
X126067723Y-107542752D01*
X126063753Y-107540028D01*
X126061105Y-107537703D01*
X126046881Y-107524508D01*
X126046878Y-107524506D01*
X126038354Y-107516599D01*
X126027550Y-107512289D01*
X126023561Y-107509767D01*
X126012773Y-107504006D01*
X126008448Y-107502089D01*
X125998854Y-107495508D01*
X125987534Y-107492822D01*
X125976899Y-107488109D01*
X125977450Y-107486866D01*
X125926474Y-107457777D01*
X125917270Y-107447082D01*
X125901632Y-107426703D01*
X125876032Y-107360485D01*
X125890296Y-107290936D01*
X125901633Y-107273296D01*
X125916806Y-107253522D01*
X125955861Y-107202625D01*
X126011330Y-107068709D01*
X126025078Y-106964285D01*
X126042734Y-106924375D01*
X126025078Y-106885715D01*
X126012408Y-106789480D01*
X126011330Y-106781291D01*
X125955861Y-106647375D01*
X125901633Y-106576704D01*
X125876032Y-106510484D01*
X125890297Y-106440935D01*
X125901633Y-106423296D01*
X125917744Y-106402300D01*
X125955861Y-106352625D01*
X126011330Y-106218709D01*
X126025078Y-106114285D01*
X126042734Y-106074375D01*
X126025078Y-106035715D01*
X126012955Y-105943637D01*
X126011330Y-105931291D01*
X125955861Y-105797375D01*
X125867621Y-105682379D01*
X125752625Y-105594139D01*
X125618709Y-105538670D01*
X125475000Y-105519750D01*
X125331291Y-105538670D01*
X125197375Y-105594139D01*
X125082379Y-105682379D01*
X124994139Y-105797375D01*
X124938670Y-105931291D01*
X124919750Y-106075000D01*
X124938670Y-106218709D01*
X124994139Y-106352625D01*
X125032256Y-106402300D01*
X125048367Y-106423296D01*
X125073968Y-106489516D01*
X125059703Y-106559065D01*
X125048367Y-106576704D01*
X124994139Y-106647375D01*
X124938670Y-106781291D01*
X124919750Y-106925000D01*
X124938670Y-107068709D01*
X124994139Y-107202625D01*
X125033194Y-107253522D01*
X125048367Y-107273296D01*
X125073968Y-107339516D01*
X125059703Y-107409065D01*
X125048367Y-107426704D01*
X125044886Y-107431241D01*
X124994139Y-107497375D01*
X124938670Y-107631291D01*
X124919750Y-107775000D01*
X124938670Y-107918709D01*
X124994139Y-108052625D01*
X125040312Y-108112798D01*
X125048367Y-108123296D01*
X125073968Y-108189516D01*
X125059703Y-108259065D01*
X125048367Y-108276704D01*
X124994139Y-108347375D01*
X124938670Y-108481291D01*
X124919750Y-108625000D01*
X124938670Y-108768709D01*
X124994139Y-108902625D01*
X125028034Y-108946798D01*
X125053634Y-109013016D01*
X125039370Y-109082565D01*
X124989769Y-109133361D01*
X124928071Y-109149500D01*
X124646980Y-109149500D01*
X124578859Y-109129498D01*
X124532366Y-109075842D01*
X124520980Y-109023500D01*
X124520980Y-105727155D01*
X124540982Y-105659034D01*
X124594638Y-105612541D01*
X124664912Y-105602437D01*
X124692208Y-105615697D01*
X124714915Y-105620073D01*
X124724590Y-105616200D01*
X125385905Y-104954885D01*
X125448217Y-104920859D01*
X125519032Y-104925924D01*
X125564095Y-104954885D01*
X126137188Y-105527978D01*
X126151132Y-105535592D01*
X126152965Y-105535461D01*
X126159580Y-105531210D01*
X126735905Y-104954885D01*
X126798217Y-104920859D01*
X126869032Y-104925924D01*
X126914095Y-104954885D01*
X127571767Y-105612557D01*
X127584147Y-105619317D01*
X127591062Y-105614141D01*
X127609835Y-105581625D01*
X127615181Y-105569617D01*
X127666833Y-105410650D01*
X127669563Y-105397807D01*
X127687036Y-105231565D01*
X127687036Y-105218435D01*
X127669563Y-105052193D01*
X127666833Y-105039350D01*
X127615182Y-104880387D01*
X127614315Y-104878439D01*
X127614150Y-104877210D01*
X127613139Y-104874098D01*
X127613708Y-104873913D01*
X127604878Y-104808072D01*
X127634982Y-104743774D01*
X127695069Y-104705958D01*
X127731729Y-104701206D01*
X127737089Y-104701304D01*
X127762499Y-104701770D01*
X127771163Y-104699408D01*
X127892158Y-104666421D01*
X127892160Y-104666420D01*
X127900817Y-104664060D01*
X128022991Y-104589045D01*
X128048180Y-104561217D01*
X128113178Y-104489407D01*
X128119200Y-104482754D01*
X128181710Y-104353733D01*
X128205496Y-104212354D01*
X128205647Y-104200000D01*
X128195807Y-104131290D01*
X128186596Y-104066968D01*
X128186595Y-104066965D01*
X128185323Y-104058082D01*
X128177551Y-104040987D01*
X128152896Y-103986762D01*
X128125984Y-103927572D01*
X128056047Y-103846406D01*
X128026733Y-103781745D01*
X128025500Y-103764159D01*
X128025500Y-103727597D01*
X128025980Y-103716615D01*
X128028303Y-103690068D01*
X128028303Y-103690066D01*
X128029264Y-103679080D01*
X128027982Y-103674295D01*
X128041233Y-103608362D01*
X128090633Y-103557370D01*
X128159758Y-103541179D01*
X128226664Y-103564931D01*
G37*
%TD.AperFunction*%
%TA.AperFunction,Conductor*%
G36*
X126041121Y-103641002D02*
G01*
X126087614Y-103694658D01*
X126099000Y-103747000D01*
X126099000Y-104747000D01*
X126078998Y-104815121D01*
X126025342Y-104861614D01*
X125973000Y-104873000D01*
X125717000Y-104873000D01*
X125648879Y-104852998D01*
X125602386Y-104799342D01*
X125591000Y-104747000D01*
X125591000Y-103747000D01*
X125611002Y-103678879D01*
X125664658Y-103632386D01*
X125717000Y-103621000D01*
X125973000Y-103621000D01*
X126041121Y-103641002D01*
G37*
%TD.AperFunction*%
%TA.AperFunction,Conductor*%
G36*
X145494032Y-93956581D02*
G01*
X145539095Y-93985542D01*
X146101952Y-94548399D01*
X146135978Y-94610711D01*
X146130913Y-94681526D01*
X146101952Y-94726589D01*
X145926589Y-94901952D01*
X145864277Y-94935978D01*
X145793462Y-94930913D01*
X145748399Y-94901952D01*
X145185542Y-94339095D01*
X145151516Y-94276783D01*
X145156581Y-94205968D01*
X145185542Y-94160905D01*
X145360905Y-93985542D01*
X145423217Y-93951516D01*
X145494032Y-93956581D01*
G37*
%TD.AperFunction*%
%TD*%
M02*
