M48
; DRILL file {KiCad (6.0.1)} date Thu Sep 15 14:00:09 2022
; FORMAT={-:-/ absolute / inch / decimal}
; #@! TF.CreationDate,2022-09-15T14:00:09-04:00
; #@! TF.GenerationSoftware,Kicad,Pcbnew,(6.0.1)
; #@! TF.FileFunction,MixedPlating,1,2
FMAT,2
INCH
; #@! TA.AperFunction,Plated,PTH,ComponentDrill
T1C0.0079
; #@! TA.AperFunction,Plated,PTH,ComponentDrill
T2C0.0118
; #@! TA.AperFunction,Plated,PTH,ViaDrill
T3C0.0157
; #@! TA.AperFunction,Plated,PTH,ComponentDrill
T4C0.0157
; #@! TA.AperFunction,Plated,PTH,ComponentDrill
T5C0.0236
; #@! TA.AperFunction,Plated,PTH,ComponentDrill
T6C0.0315
; #@! TA.AperFunction,Plated,PTH,ComponentDrill
T7C0.0394
; #@! TA.AperFunction,NonPlated,NPTH,ComponentDrill
T8C0.0669
%
G90
G05
T1
X6.4843Y-3.4528
X6.4843Y-3.4744
X6.4843Y-3.4961
X6.5059Y-3.4528
X6.5059Y-3.4744
X6.5059Y-3.4961
X6.5276Y-3.4528
X6.5276Y-3.4744
X6.5276Y-3.4961
T2
X5.7264Y-3.5295
X5.7264Y-3.5899
X5.7264Y-3.6503
X5.7264Y-3.7106
X5.7867Y-3.5295
X5.7867Y-3.5899
X5.7867Y-3.6503
X5.7867Y-3.7106
X5.8471Y-3.5295
X5.8471Y-3.5899
X5.8471Y-3.6503
X5.8471Y-3.7106
X5.9075Y-3.5295
X5.9075Y-3.5899
X5.9075Y-3.6503
X5.9075Y-3.7106
T3
X5.0276Y-4.1024
X5.2349Y-4.0797
X5.3051Y-3.6811
X5.4613Y-4.0797
X5.4626Y-4.0059
X5.4921Y-3.3858
X5.4921Y-3.5039
X5.5168Y-3.8767
X5.5315Y-4.439
X5.5413Y-3.5925
X5.5495Y-3.6348
X5.5507Y-4.1771
X5.5512Y-3.435
X5.561Y-4.124
X5.5709Y-3.9567
X5.5742Y-3.542
X5.5744Y-3.6541
X5.5906Y-4.0231
X5.6004Y-4.1789
X5.6076Y-4.1077
X5.6102Y-3.5433
X5.6201Y-3.7303
X5.6218Y-3.837
X5.6693Y-4.2815
X5.6791Y-3.189
X5.6791Y-3.878
X5.6836Y-3.9424
X5.7283Y-3.3268
X5.7477Y-3.9074
X5.748Y-3.2776
X5.7579Y-4.0453
X5.7746Y-3.8297
X5.7776Y-3.3661
X5.7776Y-3.9173
X5.8169Y-3.8976
X5.8169Y-4.1142
X5.8418Y-3.9169
X5.8465Y-4.3012
X5.8465Y-4.3799
X5.8661Y-4.2323
X5.8713Y-3.9813
X5.9252Y-3.3366
X5.9449Y-4.0551
X5.9547Y-4.1142
X5.9562Y-4.4439
X5.9648Y-4.144
X5.9674Y-4.0059
X5.9718Y-4.375
X5.9831Y-3.6319
X6.0158Y-4.4567
X6.0335Y-3.1594
X6.0335Y-3.5925
X6.0827Y-3.5138
X6.0841Y-4.1596
X6.0923Y-3.6593
X6.0925Y-3.2874
X6.0925Y-3.7697
X6.122Y-3.1496
X6.122Y-3.6024
X6.1516Y-3.3661
X6.1516Y-3.4154
X6.1614Y-3.2972
X6.1713Y-3.1988
X6.1713Y-3.5039
X6.1713Y-3.6614
X6.1811Y-3.6024
X6.2303Y-3.4941
X6.2402Y-3.3465
X6.25Y-3.622
X6.2795Y-3.2185
X6.2992Y-3.4941
X6.3189Y-3.1102
X6.3189Y-3.6024
X6.378Y-3.5039
X6.3976Y-3.1791
X6.4075Y-3.6122
X6.4272Y-3.3465
X6.437Y-3.2185
X6.4567Y-3.5728
X6.5059Y-3.7864
X6.5354Y-3.7008
X6.5453Y-3.2283
X6.5846Y-3.622
X6.6043Y-4.0157
X6.6142Y-3.1496
X6.624Y-3.5531
X6.6437Y-3.6319
X6.6535Y-3.7008
X6.6732Y-3.1988
X6.6831Y-3.7894
X6.7126Y-3.1004
X6.7126Y-3.1791
X6.7126Y-3.2677
X6.7323Y-3.6516
X6.7323Y-3.8976
X6.7421Y-3.3661
X6.7717Y-3.2776
X6.7913Y-3.9173
X6.8012Y-3.1496
X6.8012Y-3.6122
X6.8012Y-3.7795
X6.8406Y-3.7303
X6.8504Y-3.2185
X6.8504Y-3.4154
X6.8602Y-3.3563
X6.8602Y-3.5728
X6.8602Y-3.878
X6.8701Y-3.7795
X6.8898Y-3.6909
X6.8898Y-3.9469
X6.9193Y-3.6417
X6.939Y-3.3169
X6.9685Y-3.75
X6.9755Y-3.8108
X6.9879Y-4.003
X6.9882Y-4.124
X7.0079Y-3.2677
X7.0079Y-3.6909
X7.0374Y-3.3661
X7.0866Y-4.0551
X7.1063Y-3.3169
X7.1161Y-3.9764
X7.1555Y-3.7205
X7.1654Y-3.8386
X7.185Y-3.2382
T4
X4.94Y-4.1427
X4.94Y-4.1762
X4.94Y-4.2096
X4.94Y-4.2431
X4.94Y-4.2766
X4.94Y-4.31
X4.94Y-4.3435
X4.94Y-4.377
X4.9931Y-4.1427
X4.9931Y-4.1762
X4.9931Y-4.2096
X4.9931Y-4.2431
X4.9931Y-4.2766
X4.9931Y-4.31
X4.9931Y-4.3435
X4.9931Y-4.377
T6
X5.0878Y-3.5519
X5.0886Y-3.7087
X5.4823Y-4.3898
X5.561Y-4.3898
X5.6398Y-4.3898
T7
X4.7591Y-3.9449
X4.8591Y-3.9449
X4.9591Y-3.9449
X5.0591Y-3.9449
X5.2362Y-4.2402
X5.2362Y-4.3386
X5.4035Y-4.3898
X5.7177Y-4.3892
X6.0236Y-4.1224
X6.0236Y-4.2224
X6.1236Y-4.1224
X6.1236Y-4.2224
X6.1256Y-4.3799
X6.2236Y-4.1224
X6.2236Y-4.2224
X6.2256Y-4.3799
X6.3236Y-4.1224
X6.3236Y-4.2224
X6.3256Y-4.3799
X6.4236Y-4.1224
X6.4236Y-4.2224
X6.4256Y-4.3799
X6.5236Y-4.1224
X6.5236Y-4.2224
X6.5256Y-4.3799
T8
X4.7884Y-3.2067
X5.064Y-3.2067
T5
G00X4.8372Y-4.0896
M15
G01X4.8057Y-4.0896
M16
G05
G00X4.8372Y-4.4301
M15
G01X4.8057Y-4.4301
M16
G05
G00X4.9841Y-4.0896
M15
G01X4.925Y-4.0896
M16
G05
G00X4.9841Y-4.4301
M15
G01X4.925Y-4.4301
M16
G05
T0
M30
