%TF.GenerationSoftware,KiCad,Pcbnew,(6.0.1)*%
%TF.CreationDate,2022-09-15T14:00:08-04:00*%
%TF.ProjectId,bpcw-hardware,62706377-2d68-4617-9264-776172652e6b,rev?*%
%TF.SameCoordinates,Original*%
%TF.FileFunction,Soldermask,Bot*%
%TF.FilePolarity,Negative*%
%FSLAX46Y46*%
G04 Gerber Fmt 4.6, Leading zero omitted, Abs format (unit mm)*
G04 Created by KiCad (PCBNEW (6.0.1)) date 2022-09-15 14:00:08*
%MOMM*%
%LPD*%
G01*
G04 APERTURE LIST*
G04 Aperture macros list*
%AMRoundRect*
0 Rectangle with rounded corners*
0 $1 Rounding radius*
0 $2 $3 $4 $5 $6 $7 $8 $9 X,Y pos of 4 corners*
0 Add a 4 corners polygon primitive as box body*
4,1,4,$2,$3,$4,$5,$6,$7,$8,$9,$2,$3,0*
0 Add four circle primitives for the rounded corners*
1,1,$1+$1,$2,$3*
1,1,$1+$1,$4,$5*
1,1,$1+$1,$6,$7*
1,1,$1+$1,$8,$9*
0 Add four rect primitives between the rounded corners*
20,1,$1+$1,$2,$3,$4,$5,0*
20,1,$1+$1,$4,$5,$6,$7,0*
20,1,$1+$1,$6,$7,$8,$9,0*
20,1,$1+$1,$8,$9,$2,$3,0*%
G04 Aperture macros list end*
%ADD10C,1.750000*%
%ADD11C,1.500000*%
%ADD12RoundRect,0.250000X-0.750000X0.600000X-0.750000X-0.600000X0.750000X-0.600000X0.750000X0.600000X0*%
%ADD13O,2.000000X1.700000*%
%ADD14R,1.700000X1.700000*%
%ADD15O,1.700000X1.700000*%
%ADD16C,1.700000*%
%ADD17R,4.200000X1.350000*%
%ADD18C,0.700000*%
%ADD19O,2.400000X0.900000*%
%ADD20O,1.700000X0.900000*%
%ADD21R,1.500000X1.000000*%
G04 APERTURE END LIST*
D10*
%TO.C,SW1*%
X145230583Y-111485437D03*
X137250000Y-111500000D03*
D11*
X139250000Y-111500000D03*
X141250000Y-111500000D03*
X143250000Y-111500000D03*
%TD*%
%TO.C,LS1*%
X129250000Y-94200000D03*
X129230583Y-90219417D03*
%TD*%
D12*
%TO.C,BT1*%
X133000000Y-107700000D03*
D13*
X133000000Y-110200000D03*
%TD*%
D14*
%TO.C,J2*%
X128500000Y-100200000D03*
D15*
X125960000Y-100200000D03*
X123420000Y-100200000D03*
X120880000Y-100200000D03*
%TD*%
D16*
%TO.C,J1*%
X121625000Y-81450000D03*
X128625000Y-81450000D03*
%TD*%
D17*
%TO.C,J6*%
X182837500Y-86425000D03*
X182837500Y-92075000D03*
%TD*%
D14*
%TO.C,J4*%
X153000000Y-107250000D03*
D15*
X153000000Y-104710000D03*
X155540000Y-107250000D03*
X155540000Y-104710000D03*
X158080000Y-107250000D03*
X158080000Y-104710000D03*
X160620000Y-107250000D03*
X160620000Y-104710000D03*
X163160000Y-107250000D03*
X163160000Y-104710000D03*
X165700000Y-107250000D03*
X165700000Y-104710000D03*
%TD*%
D14*
%TO.C,J3*%
X165750000Y-111250000D03*
D15*
X163210000Y-111250000D03*
X160670000Y-111250000D03*
X158130000Y-111250000D03*
X155590000Y-111250000D03*
%TD*%
D18*
%TO.C,J5*%
X126825000Y-105225000D03*
X126825000Y-106075000D03*
X126825000Y-106925000D03*
X126825000Y-107775000D03*
X126825000Y-108625000D03*
X126825000Y-109475000D03*
X126825000Y-110325000D03*
X126825000Y-111175000D03*
X125475000Y-111175000D03*
X125475000Y-110325000D03*
X125475000Y-109475000D03*
X125475000Y-108625000D03*
X125475000Y-107775000D03*
X125475000Y-106925000D03*
X125475000Y-106075000D03*
X125475000Y-105225000D03*
D19*
X125845000Y-112525000D03*
X125845000Y-103875000D03*
D20*
X122465000Y-112525000D03*
X122465000Y-103875000D03*
%TD*%
D21*
%TO.C,JP1*%
X146250000Y-97150000D03*
X146250000Y-95850000D03*
%TD*%
M02*
