%TF.GenerationSoftware,KiCad,Pcbnew,(6.0.1)*%
%TF.CreationDate,2022-09-15T14:00:08-04:00*%
%TF.ProjectId,bpcw-hardware,62706377-2d68-4617-9264-776172652e6b,rev?*%
%TF.SameCoordinates,Original*%
%TF.FileFunction,Soldermask,Top*%
%TF.FilePolarity,Negative*%
%FSLAX46Y46*%
G04 Gerber Fmt 4.6, Leading zero omitted, Abs format (unit mm)*
G04 Created by KiCad (PCBNEW (6.0.1)) date 2022-09-15 14:00:08*
%MOMM*%
%LPD*%
G01*
G04 APERTURE LIST*
G04 Aperture macros list*
%AMRoundRect*
0 Rectangle with rounded corners*
0 $1 Rounding radius*
0 $2 $3 $4 $5 $6 $7 $8 $9 X,Y pos of 4 corners*
0 Add a 4 corners polygon primitive as box body*
4,1,4,$2,$3,$4,$5,$6,$7,$8,$9,$2,$3,0*
0 Add four circle primitives for the rounded corners*
1,1,$1+$1,$2,$3*
1,1,$1+$1,$4,$5*
1,1,$1+$1,$6,$7*
1,1,$1+$1,$8,$9*
0 Add four rect primitives between the rounded corners*
20,1,$1+$1,$2,$3,$4,$5,0*
20,1,$1+$1,$4,$5,$6,$7,0*
20,1,$1+$1,$6,$7,$8,$9,0*
20,1,$1+$1,$8,$9,$2,$3,0*%
%AMFreePoly0*
4,1,9,3.862500,-0.866500,0.737500,-0.866500,0.737500,-0.450000,-0.737500,-0.450000,-0.737500,0.450000,0.737500,0.450000,0.737500,0.866500,3.862500,0.866500,3.862500,-0.866500,3.862500,-0.866500,$1*%
G04 Aperture macros list end*
%ADD10RoundRect,0.218750X-0.218750X-0.256250X0.218750X-0.256250X0.218750X0.256250X-0.218750X0.256250X0*%
%ADD11C,1.750000*%
%ADD12C,1.500000*%
%ADD13RoundRect,0.140000X-0.170000X0.140000X-0.170000X-0.140000X0.170000X-0.140000X0.170000X0.140000X0*%
%ADD14RoundRect,0.225000X-0.250000X0.225000X-0.250000X-0.225000X0.250000X-0.225000X0.250000X0.225000X0*%
%ADD15RoundRect,0.062500X-0.350000X-0.062500X0.350000X-0.062500X0.350000X0.062500X-0.350000X0.062500X0*%
%ADD16RoundRect,0.062500X-0.062500X-0.350000X0.062500X-0.350000X0.062500X0.350000X-0.062500X0.350000X0*%
%ADD17R,1.600000X1.600000*%
%ADD18RoundRect,0.218750X0.256250X-0.218750X0.256250X0.218750X-0.256250X0.218750X-0.256250X-0.218750X0*%
%ADD19RoundRect,0.135000X-0.135000X-0.185000X0.135000X-0.185000X0.135000X0.185000X-0.135000X0.185000X0*%
%ADD20RoundRect,0.140000X0.170000X-0.140000X0.170000X0.140000X-0.170000X0.140000X-0.170000X-0.140000X0*%
%ADD21RoundRect,0.062500X0.337500X0.062500X-0.337500X0.062500X-0.337500X-0.062500X0.337500X-0.062500X0*%
%ADD22RoundRect,0.062500X0.062500X0.337500X-0.062500X0.337500X-0.062500X-0.337500X0.062500X-0.337500X0*%
%ADD23R,3.600000X3.600000*%
%ADD24RoundRect,0.140000X0.140000X0.170000X-0.140000X0.170000X-0.140000X-0.170000X0.140000X-0.170000X0*%
%ADD25RoundRect,0.250000X-0.750000X0.600000X-0.750000X-0.600000X0.750000X-0.600000X0.750000X0.600000X0*%
%ADD26O,2.000000X1.700000*%
%ADD27R,1.700000X1.700000*%
%ADD28O,1.700000X1.700000*%
%ADD29C,1.700000*%
%ADD30R,2.200000X2.800000*%
%ADD31R,2.800000X2.800000*%
%ADD32RoundRect,0.237500X0.237500X-0.987500X0.237500X0.987500X-0.237500X0.987500X-0.237500X-0.987500X0*%
%ADD33RoundRect,0.150000X-0.150000X0.587500X-0.150000X-0.587500X0.150000X-0.587500X0.150000X0.587500X0*%
%ADD34R,5.600000X2.100000*%
%ADD35R,0.600000X0.450000*%
%ADD36RoundRect,0.225000X0.225000X0.250000X-0.225000X0.250000X-0.225000X-0.250000X0.225000X-0.250000X0*%
%ADD37R,0.650000X0.400000*%
%ADD38R,3.600000X1.270000*%
%ADD39R,4.200000X1.350000*%
%ADD40RoundRect,0.237500X-0.987500X-0.237500X0.987500X-0.237500X0.987500X0.237500X-0.987500X0.237500X0*%
%ADD41RoundRect,0.218750X-0.256250X0.218750X-0.256250X-0.218750X0.256250X-0.218750X0.256250X0.218750X0*%
%ADD42RoundRect,0.135000X0.185000X-0.135000X0.185000X0.135000X-0.185000X0.135000X-0.185000X-0.135000X0*%
%ADD43RoundRect,0.135000X0.135000X0.185000X-0.135000X0.185000X-0.135000X-0.185000X0.135000X-0.185000X0*%
%ADD44RoundRect,0.237500X-0.237500X0.987500X-0.237500X-0.987500X0.237500X-0.987500X0.237500X0.987500X0*%
%ADD45RoundRect,0.218750X0.218750X0.256250X-0.218750X0.256250X-0.218750X-0.256250X0.218750X-0.256250X0*%
%ADD46RoundRect,0.062500X0.375000X0.062500X-0.375000X0.062500X-0.375000X-0.062500X0.375000X-0.062500X0*%
%ADD47RoundRect,0.062500X0.062500X0.375000X-0.062500X0.375000X-0.062500X-0.375000X0.062500X-0.375000X0*%
%ADD48R,5.100000X5.100000*%
%ADD49RoundRect,0.237500X0.987500X0.237500X-0.987500X0.237500X-0.987500X-0.237500X0.987500X-0.237500X0*%
%ADD50RoundRect,0.225000X-0.225000X-0.250000X0.225000X-0.250000X0.225000X0.250000X-0.225000X0.250000X0*%
%ADD51R,0.900000X1.300000*%
%ADD52FreePoly0,90.000000*%
%ADD53RoundRect,0.140000X-0.140000X-0.170000X0.140000X-0.170000X0.140000X0.170000X-0.140000X0.170000X0*%
%ADD54R,1.500000X4.000000*%
%ADD55C,0.700000*%
%ADD56O,2.400000X0.900000*%
%ADD57O,1.700000X0.900000*%
%ADD58R,1.000000X1.500000*%
%ADD59RoundRect,0.135000X-0.185000X0.135000X-0.185000X-0.135000X0.185000X-0.135000X0.185000X0.135000X0*%
G04 APERTURE END LIST*
D10*
%TO.C,L5*%
X157712500Y-94000000D03*
X159287500Y-94000000D03*
%TD*%
D11*
%TO.C,SW1*%
X145230583Y-111485437D03*
X137250000Y-111500000D03*
D12*
X139250000Y-111500000D03*
X141250000Y-111500000D03*
X143250000Y-111500000D03*
%TD*%
%TO.C,LS1*%
X129250000Y-94200000D03*
X129230583Y-90219417D03*
%TD*%
D13*
%TO.C,C23*%
X159500000Y-83020000D03*
X159500000Y-83980000D03*
%TD*%
D14*
%TO.C,C26*%
X159000000Y-85975000D03*
X159000000Y-87525000D03*
%TD*%
D15*
%TO.C,U4*%
X163812500Y-87750000D03*
X163812500Y-88250000D03*
X163812500Y-88750000D03*
D16*
X164750000Y-89687500D03*
X165250000Y-89687500D03*
X165750000Y-89687500D03*
D15*
X166687500Y-88750000D03*
X166687500Y-88250000D03*
X166687500Y-87750000D03*
D16*
X165750000Y-86812500D03*
X165250000Y-86812500D03*
X164750000Y-86812500D03*
D17*
X165250000Y-88250000D03*
%TD*%
D18*
%TO.C,L11*%
X170250000Y-90037500D03*
X170250000Y-88462500D03*
%TD*%
D19*
%TO.C,R1*%
X146990000Y-112750000D03*
X148010000Y-112750000D03*
%TD*%
D14*
%TO.C,C30*%
X168500000Y-82225000D03*
X168500000Y-83775000D03*
%TD*%
D10*
%TO.C,L8*%
X162212500Y-94000000D03*
X163787500Y-94000000D03*
%TD*%
%TO.C,L9*%
X162462500Y-83750000D03*
X164037500Y-83750000D03*
%TD*%
D20*
%TO.C,C2*%
X148250000Y-108480000D03*
X148250000Y-107520000D03*
%TD*%
D21*
%TO.C,U1*%
X149450000Y-105300000D03*
X149450000Y-104800000D03*
X149450000Y-104300000D03*
X149450000Y-103800000D03*
X149450000Y-103300000D03*
X149450000Y-102800000D03*
X149450000Y-102300000D03*
X149450000Y-101800000D03*
D22*
X148750000Y-101100000D03*
X148250000Y-101100000D03*
X147750000Y-101100000D03*
X147250000Y-101100000D03*
X146750000Y-101100000D03*
X146250000Y-101100000D03*
X145750000Y-101100000D03*
X145250000Y-101100000D03*
D21*
X144550000Y-101800000D03*
X144550000Y-102300000D03*
X144550000Y-102800000D03*
X144550000Y-103300000D03*
X144550000Y-103800000D03*
X144550000Y-104300000D03*
X144550000Y-104800000D03*
X144550000Y-105300000D03*
D22*
X145250000Y-106000000D03*
X145750000Y-106000000D03*
X146250000Y-106000000D03*
X146750000Y-106000000D03*
X147250000Y-106000000D03*
X147750000Y-106000000D03*
X148250000Y-106000000D03*
X148750000Y-106000000D03*
D23*
X147000000Y-103550000D03*
%TD*%
D24*
%TO.C,C15*%
X153730000Y-90250000D03*
X152770000Y-90250000D03*
%TD*%
D25*
%TO.C,BT1*%
X133000000Y-107700000D03*
D26*
X133000000Y-110200000D03*
%TD*%
D24*
%TO.C,C10*%
X149980000Y-85500000D03*
X149020000Y-85500000D03*
%TD*%
D20*
%TO.C,C6*%
X157500000Y-96230000D03*
X157500000Y-95270000D03*
%TD*%
D13*
%TO.C,C16*%
X154750000Y-90270000D03*
X154750000Y-91230000D03*
%TD*%
D27*
%TO.C,J2*%
X128500000Y-100200000D03*
D28*
X125960000Y-100200000D03*
X123420000Y-100200000D03*
X120880000Y-100200000D03*
%TD*%
D18*
%TO.C,L3*%
X156250000Y-96287500D03*
X156250000Y-94712500D03*
%TD*%
D13*
%TO.C,C1*%
X150750000Y-100000000D03*
X150750000Y-100960000D03*
%TD*%
D29*
%TO.C,J1*%
X121625000Y-81450000D03*
X128625000Y-81450000D03*
D30*
X120525000Y-85150000D03*
D31*
X129925000Y-85150000D03*
X134025000Y-80700000D03*
%TD*%
D32*
%TO.C,TP5*%
X155500000Y-100750000D03*
%TD*%
D20*
%TO.C,C4*%
X147000000Y-108480000D03*
X147000000Y-107520000D03*
%TD*%
D32*
%TO.C,TP6*%
X153250000Y-100750000D03*
%TD*%
D24*
%TO.C,C32*%
X176380000Y-88250000D03*
X175420000Y-88250000D03*
%TD*%
D33*
%TO.C,Q1*%
X122950000Y-92512500D03*
X121050000Y-92512500D03*
X122000000Y-94387500D03*
%TD*%
D24*
%TO.C,C19*%
X163980000Y-95250000D03*
X163020000Y-95250000D03*
%TD*%
D13*
%TO.C,C25*%
X165250000Y-82770000D03*
X165250000Y-83730000D03*
%TD*%
D34*
%TO.C,Y1*%
X139750000Y-81250000D03*
X149240292Y-81245146D03*
%TD*%
D35*
%TO.C,D2*%
X125300000Y-96700000D03*
X123200000Y-96700000D03*
%TD*%
D19*
%TO.C,R12*%
X160740000Y-86000000D03*
X161760000Y-86000000D03*
%TD*%
D24*
%TO.C,C27*%
X166960000Y-91000000D03*
X166000000Y-91000000D03*
%TD*%
D32*
%TO.C,TP12*%
X137750000Y-92750000D03*
%TD*%
D13*
%TO.C,C18*%
X158750000Y-90270000D03*
X158750000Y-91230000D03*
%TD*%
D36*
%TO.C,C33*%
X124275000Y-86950000D03*
X122725000Y-86950000D03*
%TD*%
D19*
%TO.C,R10*%
X170702500Y-97500000D03*
X171722500Y-97500000D03*
%TD*%
D37*
%TO.C,U5*%
X177550000Y-88600000D03*
X177550000Y-89250000D03*
X177550000Y-89900000D03*
X179450000Y-89900000D03*
X179450000Y-89250000D03*
X179450000Y-88600000D03*
%TD*%
D38*
%TO.C,J6*%
X183037500Y-89250000D03*
D39*
X182837500Y-86425000D03*
X182837500Y-92075000D03*
%TD*%
D40*
%TO.C,TP10*%
X140750000Y-91250000D03*
%TD*%
D41*
%TO.C,L2*%
X152750000Y-87250000D03*
X152750000Y-88825000D03*
%TD*%
D42*
%TO.C,R9*%
X128600000Y-104510000D03*
X128600000Y-103490000D03*
%TD*%
D10*
%TO.C,L7*%
X159962500Y-90250000D03*
X161537500Y-90250000D03*
%TD*%
D36*
%TO.C,C5*%
X133525000Y-102500000D03*
X131975000Y-102500000D03*
%TD*%
D42*
%TO.C,JP2*%
X148000000Y-85510000D03*
X148000000Y-84490000D03*
%TD*%
D43*
%TO.C,R6*%
X153760000Y-92250000D03*
X152740000Y-92250000D03*
%TD*%
D19*
%TO.C,R7*%
X138490000Y-104750000D03*
X139510000Y-104750000D03*
%TD*%
D14*
%TO.C,C24*%
X161000000Y-82225000D03*
X161000000Y-83775000D03*
%TD*%
D24*
%TO.C,C17*%
X159480000Y-95250000D03*
X158520000Y-95250000D03*
%TD*%
D10*
%TO.C,L4*%
X155962500Y-90250000D03*
X157537500Y-90250000D03*
%TD*%
D44*
%TO.C,TP13*%
X137750000Y-96250000D03*
%TD*%
D19*
%TO.C,R2*%
X148990000Y-112750000D03*
X150010000Y-112750000D03*
%TD*%
D44*
%TO.C,TP1*%
X142500000Y-100000000D03*
%TD*%
D13*
%TO.C,C21*%
X166250000Y-82770000D03*
X166250000Y-83730000D03*
%TD*%
D45*
%TO.C,L12*%
X173287500Y-88500000D03*
X171712500Y-88500000D03*
%TD*%
D42*
%TO.C,R8*%
X128500000Y-106710000D03*
X128500000Y-105690000D03*
%TD*%
D27*
%TO.C,J4*%
X153000000Y-107250000D03*
D28*
X153000000Y-104710000D03*
X155540000Y-107250000D03*
X155540000Y-104710000D03*
X158080000Y-107250000D03*
X158080000Y-104710000D03*
X160620000Y-107250000D03*
X160620000Y-104710000D03*
X163160000Y-107250000D03*
X163160000Y-104710000D03*
X165700000Y-107250000D03*
X165700000Y-104710000D03*
%TD*%
D40*
%TO.C,TP9*%
X142000000Y-95750000D03*
%TD*%
D32*
%TO.C,TP3*%
X160000000Y-100750000D03*
%TD*%
D19*
%TO.C,R5*%
X121490000Y-90950000D03*
X122510000Y-90950000D03*
%TD*%
D18*
%TO.C,L10*%
X168500000Y-86787500D03*
X168500000Y-85212500D03*
%TD*%
D46*
%TO.C,U3*%
X151187500Y-94700000D03*
X151187500Y-94200000D03*
X151187500Y-93700000D03*
X151187500Y-93200000D03*
X151187500Y-92700000D03*
X151187500Y-92200000D03*
X151187500Y-91700000D03*
X151187500Y-91200000D03*
X151187500Y-90700000D03*
X151187500Y-90200000D03*
X151187500Y-89700000D03*
X151187500Y-89200000D03*
D47*
X150500000Y-88512500D03*
X150000000Y-88512500D03*
X149500000Y-88512500D03*
X149000000Y-88512500D03*
X148500000Y-88512500D03*
X148000000Y-88512500D03*
X147500000Y-88512500D03*
X147000000Y-88512500D03*
X146500000Y-88512500D03*
X146000000Y-88512500D03*
X145500000Y-88512500D03*
X145000000Y-88512500D03*
D46*
X144312500Y-89200000D03*
X144312500Y-89700000D03*
X144312500Y-90200000D03*
X144312500Y-90700000D03*
X144312500Y-91200000D03*
X144312500Y-91700000D03*
X144312500Y-92200000D03*
X144312500Y-92700000D03*
X144312500Y-93200000D03*
X144312500Y-93700000D03*
X144312500Y-94200000D03*
X144312500Y-94700000D03*
D47*
X145000000Y-95387500D03*
X145500000Y-95387500D03*
X146000000Y-95387500D03*
X146500000Y-95387500D03*
X147000000Y-95387500D03*
X147500000Y-95387500D03*
X148000000Y-95387500D03*
X148500000Y-95387500D03*
X149000000Y-95387500D03*
X149500000Y-95387500D03*
X150000000Y-95387500D03*
X150500000Y-95387500D03*
D48*
X147750000Y-91950000D03*
%TD*%
D40*
%TO.C,TP8*%
X141250000Y-107250000D03*
%TD*%
D49*
%TO.C,TP11*%
X179250000Y-98250000D03*
%TD*%
D45*
%TO.C,D1*%
X169250000Y-97500000D03*
X167675000Y-97500000D03*
%TD*%
D27*
%TO.C,J3*%
X165750000Y-111250000D03*
D28*
X163210000Y-111250000D03*
X160670000Y-111250000D03*
X158130000Y-111250000D03*
X155590000Y-111250000D03*
%TD*%
D13*
%TO.C,C31*%
X174500000Y-88520000D03*
X174500000Y-89480000D03*
%TD*%
D50*
%TO.C,C7*%
X148225000Y-86750000D03*
X149775000Y-86750000D03*
%TD*%
D51*
%TO.C,U2*%
X133000000Y-100650000D03*
D52*
X134500000Y-100562500D03*
D51*
X136000000Y-100650000D03*
%TD*%
D32*
%TO.C,TP4*%
X157750000Y-100750000D03*
%TD*%
D20*
%TO.C,C14*%
X154000000Y-88480000D03*
X154000000Y-87520000D03*
%TD*%
D32*
%TO.C,TP15*%
X137750000Y-89250000D03*
%TD*%
D18*
%TO.C,L6*%
X160750000Y-96287500D03*
X160750000Y-94712500D03*
%TD*%
D53*
%TO.C,C12*%
X154000000Y-93750000D03*
X154960000Y-93750000D03*
%TD*%
D20*
%TO.C,C8*%
X144500000Y-97730000D03*
X144500000Y-96770000D03*
%TD*%
D32*
%TO.C,TP7*%
X164500000Y-100750000D03*
%TD*%
D53*
%TO.C,C28*%
X168020000Y-88250000D03*
X168980000Y-88250000D03*
%TD*%
D32*
%TO.C,TP16*%
X134250000Y-84750000D03*
%TD*%
D50*
%TO.C,C3*%
X135225000Y-102500000D03*
X136775000Y-102500000D03*
%TD*%
D19*
%TO.C,R11*%
X160740000Y-87500000D03*
X161760000Y-87500000D03*
%TD*%
D32*
%TO.C,TP14*%
X137750000Y-85750000D03*
%TD*%
D50*
%TO.C,C9*%
X144225000Y-86750000D03*
X145775000Y-86750000D03*
%TD*%
D18*
%TO.C,L1*%
X152750000Y-95037500D03*
X152750000Y-93462500D03*
%TD*%
D20*
%TO.C,C20*%
X162000000Y-96230000D03*
X162000000Y-95270000D03*
%TD*%
D19*
%TO.C,R13*%
X178240000Y-91500000D03*
X179260000Y-91500000D03*
%TD*%
D54*
%TO.C,SW2*%
X169920000Y-105487500D03*
X180080000Y-105487500D03*
X175000000Y-105487500D03*
%TD*%
D55*
%TO.C,J5*%
X126825000Y-105225000D03*
X126825000Y-106075000D03*
X126825000Y-106925000D03*
X126825000Y-107775000D03*
X126825000Y-108625000D03*
X126825000Y-109475000D03*
X126825000Y-110325000D03*
X126825000Y-111175000D03*
X125475000Y-111175000D03*
X125475000Y-110325000D03*
X125475000Y-109475000D03*
X125475000Y-108625000D03*
X125475000Y-107775000D03*
X125475000Y-106925000D03*
X125475000Y-106075000D03*
X125475000Y-105225000D03*
D56*
X125845000Y-112525000D03*
X125845000Y-103875000D03*
D57*
X122465000Y-112525000D03*
X122465000Y-103875000D03*
%TD*%
D53*
%TO.C,C13*%
X144520000Y-85500000D03*
X145480000Y-85500000D03*
%TD*%
D13*
%TO.C,C29*%
X169750000Y-83770000D03*
X169750000Y-84730000D03*
%TD*%
%TO.C,C11*%
X147000000Y-86020000D03*
X147000000Y-86980000D03*
%TD*%
D58*
%TO.C,JP3*%
X165500000Y-80000000D03*
X166800000Y-80000000D03*
X168100000Y-80000000D03*
%TD*%
D32*
%TO.C,TP2*%
X162250000Y-100750000D03*
%TD*%
D59*
%TO.C,R4*%
X176750000Y-100205000D03*
X176750000Y-101225000D03*
%TD*%
M02*
